<svg width="186" height="204" viewBox="0 0 186 204" fill="none" xmlns="http://www.w3.org/2000/svg">
<g filter="url(#filter0_dd_24025_85402)">
<path d="M13.9819 56.3789L93 10.7577L172.018 56.3789V147.621L93 193.242L13.9819 147.621V56.3789Z" stroke="#EC2227" stroke-width="2.24609"/>
</g>
<g clip-path="url(#clip0_24025_85402)">
<path fill-rule="evenodd" clip-rule="evenodd" d="M101.216 48.4901L95.1177 44.9657L94.9319 44.9073L94.7196 44.8595L94.5444 44.833H94.3056H94.0827H93.8544L93.6209 44.8701L93.3926 44.9232L93.1644 44.9922L92.9096 45.0612L92.6761 45.162L92.4266 45.2841L92.1718 45.4221L58.7323 64.7374C57.0622 65.8178 55.7434 67.3617 54.9372 69.1801C54.2223 70.6012 53.8359 72.1649 53.8066 73.7555L53.8332 150.719C53.8332 152.014 54.0826 153.235 55.1177 154.127L61.2217 157.651C60.1867 156.765 59.9531 155.528 59.9319 154.244V77.2799C59.9675 75.6914 60.3498 74.1299 61.0519 72.7045C61.8604 70.8876 63.1787 69.3443 64.847 68.2618L98.2865 48.9465L98.5413 48.8032L98.796 48.6812L99.0243 48.5856L99.2737 48.5007L99.5073 48.4317L99.7408 48.3786L99.9691 48.3415H100.197H100.404H100.633L100.84 48.368L101.025 48.4158L101.216 48.4901Z" fill="#FA2327"/>
<path fill-rule="evenodd" clip-rule="evenodd" d="M94.2476 45.6296L92.772 46.033L92.565 46.1498L59.168 65.4598C57.7402 66.3197 56.6361 67.6254 55.6542 69.5575C54.9995 70.8802 54.6374 72.3285 54.5926 73.8037L54.6563 150.688C54.7094 152.073 54.9801 152.885 55.6701 153.485L59.2582 155.545C59.1781 155.111 59.1408 154.67 59.1467 154.228L59.099 77.2645C59.1391 75.5545 59.556 73.8745 60.3198 72.3441C61.4185 70.1042 62.7136 68.5861 64.4174 67.567L98.5735 47.9067L94.2476 45.6296ZM61.2433 158.459C61.097 158.454 60.9536 158.416 60.824 158.347L54.7306 154.823C53.255 153.575 53.0692 151.983 53.048 150.73L53.0002 73.7719C53.0449 72.0643 53.4616 70.3869 54.2211 68.8568C55.3251 66.6116 56.6149 65.0935 58.3134 64.0797L93.738 44.0267H94.2688L95.0809 44.1381C95.0809 44.1381 95.3092 44.2071 95.3304 44.2124L101.594 47.8059C101.775 47.9061 101.912 48.0715 101.976 48.2686C102.04 48.4657 102.026 48.6797 101.939 48.8674C101.861 49.0528 101.716 49.202 101.533 49.2856C101.35 49.3692 101.143 49.3809 100.951 49.3186L100.325 49.2071L98.8548 49.6105L98.6478 49.6795L65.2667 68.9789C63.7241 69.9663 62.513 71.3937 61.7901 73.0766C61.1216 74.3942 60.7587 75.8456 60.7285 77.3228V154.25C60.7709 155.635 61.047 156.447 61.7423 157.036C61.8939 157.172 61.9913 157.358 62.0167 157.56C62.042 157.762 61.9936 157.966 61.8803 158.135C61.8056 158.234 61.7094 158.314 61.5991 158.37C61.4887 158.426 61.3671 158.456 61.2433 158.459V158.459Z" fill="#AD181B"/>
<path fill-rule="evenodd" clip-rule="evenodd" d="M64.8791 157.588L98.3186 138.273C101.031 136.707 103.244 132.657 103.244 129.25L103.191 52.2909C103.191 48.8833 100.988 47.3918 98.2708 48.9629L64.8313 68.2782C62.119 69.844 59.9163 73.8939 59.9163 77.3015V154.265C59.9534 157.631 62.1562 159.133 64.8791 157.588Z" fill="#FA2327"/>
<path fill-rule="evenodd" clip-rule="evenodd" d="M100.32 49.1536C99.7314 49.1863 99.1613 49.369 98.6636 49.6844L65.2666 68.9785C62.8038 70.3904 60.7337 74.2014 60.7337 77.2959V154.26C60.7337 155.677 61.1689 156.739 61.9333 157.174C62.5702 157.551 63.4726 157.444 64.4386 156.882L97.8781 137.567C100.341 136.149 102.416 132.349 102.416 129.249L102.363 52.2906C102.363 50.8681 101.949 49.8118 101.19 49.3766C100.922 49.2285 100.621 49.1518 100.314 49.1536H100.32ZM62.8303 159.026C62.2393 159.031 61.6572 158.881 61.1424 158.591C59.8632 157.853 59.1466 156.277 59.1466 154.26L59.0989 77.2959C59.0989 73.6282 61.4927 69.2704 64.4386 67.5719L97.8568 48.246C99.359 47.3755 100.824 47.28 101.997 47.9487C103.292 48.6865 103.998 50.263 103.998 52.28V129.212C103.998 132.88 101.625 137.248 98.6902 138.947L65.2507 158.257C64.5215 158.709 63.6877 158.965 62.8303 159V159.026Z" fill="#AD181B"/>
<path fill-rule="evenodd" clip-rule="evenodd" d="M103.223 128.299L103.191 52.2909C103.191 48.8833 100.988 47.3918 98.2708 48.9629L64.8313 68.2782C62.119 69.844 59.9163 73.8939 59.9163 77.3015V153.299L103.223 128.299Z" fill="white"/>
<path fill-rule="evenodd" clip-rule="evenodd" d="M100.32 49.1536C99.7314 49.1862 99.1613 49.3689 98.6636 49.6844L65.2666 68.9784C62.8038 70.3903 60.7337 74.2014 60.7337 77.2958V151.882L102.416 127.864L102.363 52.2905C102.363 50.868 101.949 49.8118 101.19 49.3765C100.922 49.2285 100.621 49.1517 100.314 49.1536H100.32ZM59.9534 154.116C59.8069 154.112 59.6634 154.074 59.5341 154.005C59.4122 153.932 59.312 153.827 59.2439 153.702C59.1758 153.577 59.1423 153.436 59.1466 153.294L59.0989 77.2958C59.0989 73.6281 61.4927 69.2704 64.4386 67.5718L97.8568 48.2459C99.359 47.3755 100.824 47.2693 101.997 47.9593C103.292 48.6865 103.998 50.2629 103.998 52.2799V128.288C104.001 128.431 103.967 128.572 103.898 128.697C103.829 128.822 103.728 128.926 103.605 129L60.3675 154.005C60.24 154.074 60.0983 154.112 59.9534 154.116V154.116Z" fill="#AD181B"/>
<path fill-rule="evenodd" clip-rule="evenodd" d="M54.9797 69.1221V69.1964C54.2648 70.6176 53.8784 72.1812 53.8491 73.7718L53.8757 150.736C53.8757 152.031 54.1251 153.262 55.1602 154.143L61.2642 157.668C60.2292 156.781 59.9956 155.545 59.9744 154.26V77.2962C59.9984 75.7062 60.3812 74.1421 61.0943 72.7208V72.6465L54.9797 69.1221Z" fill="#D41E21"/>
<path fill-rule="evenodd" clip-rule="evenodd" d="M55.3726 70.2793C54.909 71.3943 54.657 72.5859 54.6295 73.7931L54.6561 150.688C54.7091 152.073 54.9798 152.885 55.6699 153.485L59.258 155.545C59.1779 155.111 59.1405 154.67 59.1465 154.228L59.0987 77.2645C59.1366 75.7774 59.4572 74.3111 60.0435 72.9439L55.3726 70.2475V70.2793ZM61.2431 158.459C61.0967 158.454 60.9534 158.416 60.8238 158.347L54.7304 154.823C53.2548 153.576 53.069 151.983 53.0478 150.731L53 73.7719C53.0417 72.0622 53.4585 70.3825 54.2208 68.8515C54.2699 68.7391 54.3428 68.6387 54.4344 68.5571C54.526 68.4756 54.6343 68.4149 54.7516 68.3791C54.8555 68.3409 54.9661 68.3245 55.0766 68.3309C55.1871 68.3373 55.2951 68.3664 55.3938 68.4163L61.4926 71.9407C61.6712 72.0435 61.804 72.2104 61.8641 72.4075C61.9242 72.6047 61.9071 72.8173 61.8163 73.0023C61.1532 74.3427 60.7908 75.8119 60.7548 77.3069V154.228C60.7972 155.614 61.0732 156.426 61.7686 157.015C61.9202 157.151 62.0176 157.337 62.043 157.539C62.0683 157.74 62.0199 157.945 61.9066 158.114C61.8314 158.22 61.732 158.307 61.6166 158.367C61.5012 158.427 61.3732 158.458 61.2431 158.459V158.459Z" fill="#AD181B"/>
<path fill-rule="evenodd" clip-rule="evenodd" d="M57.0022 103.055C56.7863 103.055 56.5792 102.969 56.4261 102.817C56.2729 102.665 56.1862 102.459 56.1848 102.243V94.5039C56.1757 94.3914 56.19 94.2782 56.2268 94.1714C56.2637 94.0647 56.3222 93.9668 56.3987 93.8838C56.4753 93.8008 56.5682 93.7346 56.6716 93.6893C56.775 93.644 56.8866 93.6207 56.9995 93.6207C57.1124 93.6207 57.2241 93.644 57.3275 93.6893C57.4309 93.7346 57.5238 93.8008 57.6004 93.8838C57.6769 93.9668 57.7354 94.0647 57.7722 94.1714C57.8091 94.2782 57.8234 94.3914 57.8143 94.5039V102.243C57.8143 102.458 57.7287 102.665 57.5764 102.817C57.4241 102.969 57.2176 103.055 57.0022 103.055V103.055Z" fill="#AD181B"/>
<path fill-rule="evenodd" clip-rule="evenodd" d="M57.0022 90.242C56.7849 90.2406 56.577 90.1533 56.4239 89.9992C56.2708 89.845 56.1848 89.6366 56.1848 89.4193V81.6858C56.2014 81.481 56.2944 81.29 56.4453 81.1507C56.5963 81.0115 56.7942 80.9342 56.9996 80.9342C57.205 80.9342 57.4028 81.0115 57.5538 81.1507C57.7048 81.29 57.7978 81.481 57.8143 81.6858V89.4193C57.8143 89.6357 57.7291 89.8433 57.5771 89.9973C57.4251 90.1513 57.2186 90.2392 57.0022 90.242V90.242Z" fill="#AD181B"/>
<path fill-rule="evenodd" clip-rule="evenodd" d="M79.3058 146.532C79.1647 146.532 79.0261 146.494 78.9047 146.422C78.7833 146.35 78.6834 146.247 78.6157 146.123C78.5616 146.031 78.5263 145.928 78.512 145.822C78.4976 145.716 78.5044 145.607 78.5321 145.504C78.5597 145.4 78.6076 145.303 78.673 145.218C78.7384 145.133 78.8199 145.062 78.913 145.008L85.6115 141.134C85.7033 141.08 85.8049 141.045 85.9103 141.031C86.0158 141.016 86.1231 141.023 86.2258 141.051C86.3286 141.079 86.4249 141.126 86.5089 141.192C86.593 141.257 86.6632 141.338 86.7155 141.431C86.8235 141.618 86.8528 141.841 86.7971 142.05C86.7414 142.259 86.6052 142.437 86.4183 142.546L79.7145 146.442C79.5885 146.507 79.4476 146.538 79.3058 146.532V146.532Z" fill="#AD181B"/>
<path fill-rule="evenodd" clip-rule="evenodd" d="M96.7953 53.3841C96.5382 53.5654 96.3261 53.8032 96.1752 54.0792C96.0243 54.3553 95.9386 54.6622 95.9248 54.9765V54.9765C95.9248 55.5815 96.3176 55.8469 96.7953 55.5709C97.059 55.3943 97.2776 55.1581 97.4334 54.8816C97.5892 54.605 97.6779 54.2957 97.6923 53.9786V53.9786C97.6923 53.3788 97.2836 53.1081 96.7953 53.3841Z" fill="#FA2327"/>
<path fill-rule="evenodd" clip-rule="evenodd" d="M96.4286 56.5158C96.212 56.52 95.9986 56.4629 95.8129 56.3513C95.5866 56.2084 95.4027 56.0075 95.2804 55.7695C95.1581 55.5314 95.1019 55.2649 95.1176 54.9978C95.1301 54.5359 95.2539 54.0839 95.4784 53.6801C95.703 53.2762 96.0216 52.9326 96.4074 52.6782C96.6152 52.5453 96.8549 52.4707 97.1015 52.4623C97.348 52.4539 97.5923 52.512 97.8086 52.6305C98.0342 52.7741 98.2174 52.9752 98.3396 53.213C98.4618 53.4509 98.5185 53.717 98.504 53.984C98.4915 54.4451 98.3677 54.8964 98.1431 55.2994C97.9185 55.7023 97.5998 56.045 97.2142 56.2982C96.9774 56.4418 96.7055 56.5171 96.4286 56.5158V56.5158Z" fill="#AD181B"/>
<path fill-rule="evenodd" clip-rule="evenodd" d="M88.4246 107.307C88.2809 107.305 88.1399 107.267 88.0147 107.197C87.8894 107.126 87.784 107.025 87.7081 106.903C87.6532 106.811 87.6173 106.708 87.6026 106.602C87.5879 106.496 87.5945 106.387 87.6222 106.283C87.6499 106.18 87.6981 106.082 87.7638 105.997C87.8296 105.912 87.9117 105.841 88.0053 105.789L94.5924 102.015C94.7791 101.909 94.9999 101.882 95.2068 101.938C95.4136 101.995 95.5896 102.131 95.6964 102.317C95.751 102.41 95.7864 102.512 95.8007 102.618C95.815 102.724 95.8079 102.832 95.7796 102.936C95.7514 103.039 95.7028 103.136 95.6365 103.22C95.5702 103.305 95.4877 103.375 95.3939 103.427L88.8387 107.201C88.7128 107.273 88.5697 107.309 88.4246 107.307V107.307Z" fill="#AD181B"/>
<path fill-rule="evenodd" clip-rule="evenodd" d="M88.4246 120.3C88.2802 120.299 88.1385 120.261 88.013 120.189C87.8876 120.118 87.7826 120.015 87.7081 119.892C87.6532 119.799 87.6173 119.697 87.6026 119.59C87.5879 119.484 87.5945 119.375 87.6222 119.272C87.6499 119.168 87.6981 119.071 87.7638 118.986C87.8296 118.901 87.9117 118.83 88.0053 118.777L94.5924 114.998C94.7797 114.895 94.9996 114.869 95.2056 114.925C95.4117 114.982 95.5877 115.116 95.6964 115.3C95.7503 115.393 95.7853 115.496 95.7993 115.602C95.8133 115.709 95.806 115.817 95.7778 115.921C95.7497 116.024 95.7013 116.121 95.6354 116.206C95.5694 116.291 95.4874 116.362 95.3939 116.415L88.8387 120.189C88.7131 120.262 88.5701 120.301 88.4246 120.3Z" fill="#AD181B"/>
<path fill-rule="evenodd" clip-rule="evenodd" d="M65.5211 75.3165C65.3418 75.3146 65.168 75.2543 65.0262 75.1446C64.8844 75.0349 64.7823 74.8819 64.7354 74.7088C64.6885 74.5358 64.6995 74.3522 64.7666 74.1859C64.8337 74.0196 64.9532 73.8798 65.1071 73.7878L67.0391 72.6625C67.1311 72.6093 67.2326 72.5748 67.338 72.561C67.4433 72.5471 67.5503 72.5542 67.6529 72.5818C67.7555 72.6094 67.8516 72.657 67.9357 72.7219C68.0199 72.7868 68.0904 72.8676 68.1432 72.9598C68.1991 73.0524 68.2362 73.1552 68.2523 73.2622C68.2684 73.3693 68.2632 73.4784 68.2371 73.5834C68.211 73.6884 68.1644 73.7873 68.1 73.8743C68.0356 73.9613 67.9547 74.0347 67.8619 74.0903L65.9245 75.1997C65.8032 75.2747 65.6637 75.3151 65.5211 75.3165V75.3165Z" fill="#AD181B"/>
<path fill-rule="evenodd" clip-rule="evenodd" d="M69.3642 73.0871C69.2206 73.0866 69.0798 73.0468 68.9572 72.9719C68.8346 72.8971 68.7349 72.79 68.6689 72.6624C68.6149 72.5695 68.58 72.4669 68.566 72.3604C68.552 72.2538 68.5593 72.1456 68.5874 72.042C68.6156 71.9383 68.664 71.8412 68.7299 71.7564C68.7958 71.6716 68.8779 71.6007 68.9714 71.5478L70.9088 70.4384C71.0967 70.3322 71.3192 70.3049 71.5272 70.3626C71.7353 70.4204 71.9118 70.5584 72.0181 70.7463C72.1244 70.9342 72.1517 71.1567 72.094 71.3647C72.0362 71.5728 71.8982 71.7494 71.7103 71.8556L69.7729 72.9756C69.649 73.0485 69.5079 73.087 69.3642 73.0871V73.0871Z" fill="#AD181B"/>
<path fill-rule="evenodd" clip-rule="evenodd" d="M73.2281 70.8685C73.0488 70.8678 72.8747 70.8081 72.7326 70.6987C72.5906 70.5892 72.4885 70.4361 72.442 70.2629C72.3955 70.0897 72.4073 69.9061 72.4755 69.7402C72.5437 69.5744 72.6645 69.4356 72.8194 69.3452L74.7621 68.2358C74.9494 68.1358 75.1681 68.1121 75.3725 68.1696C75.577 68.2271 75.7512 68.3615 75.8588 68.5445C75.9665 68.7276 75.9992 68.9452 75.9501 69.1517C75.901 69.3583 75.7739 69.538 75.5954 69.653L73.6474 70.7571C73.5203 70.8313 73.3754 70.8698 73.2281 70.8685V70.8685Z" fill="#AD181B"/>
<path fill-rule="evenodd" clip-rule="evenodd" d="M67.2886 116.935C67.1452 116.932 67.005 116.893 66.8807 116.822C66.7564 116.75 66.6521 116.649 66.5773 116.527C66.4784 116.335 66.4569 116.112 66.5171 115.905C66.5774 115.697 66.7148 115.521 66.9011 115.412L70.192 113.528C70.3796 113.424 70.6005 113.398 70.807 113.456C71.0135 113.513 71.1891 113.65 71.296 113.836C71.3507 113.928 71.3865 114.03 71.4012 114.136C71.4159 114.242 71.4092 114.35 71.3815 114.453C71.3538 114.556 71.3056 114.653 71.2399 114.738C71.1742 114.822 71.0922 114.893 70.9987 114.945L67.7079 116.824C67.5786 116.893 67.4351 116.931 67.2886 116.935V116.935Z" fill="#AD181B"/>
<path fill-rule="evenodd" clip-rule="evenodd" d="M67.2887 129.923C67.1436 129.923 67.0012 129.884 66.8762 129.81C66.7512 129.737 66.6481 129.631 66.5774 129.504C66.4801 129.313 66.4595 129.091 66.5196 128.885C66.5798 128.679 66.7162 128.504 66.9012 128.395L70.1921 126.516C70.3786 126.426 70.592 126.411 70.7894 126.473C70.9868 126.535 71.1534 126.669 71.2558 126.849C71.3581 127.028 71.3885 127.24 71.3408 127.441C71.2931 127.643 71.1709 127.818 70.9989 127.933L67.708 129.817C67.5783 129.885 67.4348 129.921 67.2887 129.923V129.923Z" fill="#AD181B"/>
<path fill-rule="evenodd" clip-rule="evenodd" d="M67.2888 90.9585C67.1457 90.9576 67.0052 90.92 66.8807 90.8494C66.7562 90.7788 66.6518 90.6775 66.5776 90.5551C66.481 90.3645 66.458 90.145 66.5128 89.9385C66.5676 89.732 66.6964 89.5528 66.8748 89.4352L70.171 87.5562C70.3603 87.4491 70.5839 87.4203 70.7941 87.4758C71.0043 87.5314 71.1846 87.6669 71.2963 87.8534C71.3512 87.9462 71.3872 88.0491 71.402 88.1559C71.4168 88.2628 71.4102 88.3715 71.3825 88.4758C71.3549 88.58 71.3067 88.6777 71.2408 88.7632C71.175 88.8486 71.0928 88.9201 70.999 88.9734L67.7081 90.8471C67.5808 90.9208 67.436 90.9593 67.2888 90.9585V90.9585Z" fill="#AD181B"/>
<path fill-rule="evenodd" clip-rule="evenodd" d="M67.2891 103.947C67.1453 103.946 67.0043 103.908 66.8797 103.836C66.755 103.765 66.651 103.662 66.5778 103.538C66.4803 103.346 66.4594 103.124 66.5196 102.917C66.5797 102.71 66.7162 102.534 66.9016 102.424L70.1925 100.545C70.3797 100.438 70.6017 100.409 70.8098 100.466C71.0178 100.523 71.1948 100.66 71.3018 100.847C71.4088 101.034 71.437 101.256 71.3803 101.464C71.3235 101.672 71.1865 101.849 70.9992 101.956L67.7084 103.841C67.5797 103.911 67.4355 103.947 67.2891 103.947Z" fill="#AD181B"/>
<path fill-rule="evenodd" clip-rule="evenodd" d="M88.4247 81.3404C88.2802 81.3393 88.1385 81.3012 88.013 81.2296C87.8876 81.158 87.7826 81.0555 87.7081 80.9317C87.6541 80.8373 87.6197 80.7331 87.6068 80.6251C87.5939 80.5171 87.6028 80.4077 87.633 80.3032C87.6632 80.1988 87.7141 80.1015 87.7826 80.0171C87.8511 79.9326 87.9359 79.8628 88.0319 79.8118L94.6189 76.0379C94.7113 75.9642 94.8186 75.9116 94.9334 75.8836C95.0482 75.8557 95.1677 75.8532 95.2836 75.8762C95.3995 75.8992 95.509 75.9473 95.6044 76.0169C95.6998 76.0866 95.7789 76.1763 95.836 76.2797C95.8932 76.3831 95.9271 76.4977 95.9355 76.6156C95.9438 76.7334 95.9263 76.8517 95.8842 76.9621C95.8421 77.0725 95.7764 77.1724 95.6917 77.2548C95.607 77.3372 95.5054 77.4001 95.3939 77.4392L88.8387 81.229C88.7122 81.3003 88.5698 81.3386 88.4247 81.3404V81.3404Z" fill="#AD181B"/>
<path fill-rule="evenodd" clip-rule="evenodd" d="M88.4246 94.3288C88.2778 94.3245 88.1345 94.2821 88.0089 94.2058C87.8833 94.1295 87.7797 94.0219 87.7081 93.8936C87.6532 93.8012 87.6173 93.6988 87.6026 93.5923C87.5879 93.4859 87.5945 93.3776 87.6222 93.2737C87.6499 93.1699 87.6981 93.0726 87.7638 92.9877C87.8296 92.9027 87.9117 92.8317 88.0053 92.7789L94.5924 89.005C94.7784 88.899 94.9988 88.8708 95.2056 88.9265C95.4123 88.9821 95.5887 89.1172 95.6964 89.3023C95.7505 89.3956 95.7855 89.4987 95.7996 89.6056C95.8136 89.7125 95.8064 89.8211 95.7783 89.9252C95.7501 90.0293 95.7017 90.1269 95.6357 90.2121C95.5698 90.2974 95.4876 90.3688 95.3939 90.4222L88.8387 94.212C88.7136 94.2872 88.5706 94.3276 88.4246 94.3288V94.3288Z" fill="#AD181B"/>
<path fill-rule="evenodd" clip-rule="evenodd" d="M96.6357 73.2145L74.6611 85.9109V94.7538L96.6357 82.0627V73.2145Z" fill="white"/>
<path fill-rule="evenodd" clip-rule="evenodd" d="M75.4683 86.3829V93.3627L95.8345 81.5899V74.6313L75.4683 86.3829ZM74.6615 95.5655C74.4437 95.5669 74.2341 95.4825 74.0781 95.3305C73.9222 95.1785 73.8323 94.9711 73.8282 94.7534V85.9317C73.8268 85.7867 73.8633 85.6438 73.934 85.5172C74.0048 85.3906 74.1073 85.2847 74.2316 85.2098L96.2432 72.5082C96.3678 72.4403 96.5074 72.4048 96.6493 72.4048C96.7911 72.4048 96.9307 72.4403 97.0553 72.5082C97.1753 72.579 97.2755 72.6788 97.3469 72.7985C97.4183 72.9181 97.4586 73.0537 97.464 73.1929V82.0623C97.4591 82.2016 97.419 82.3374 97.3475 82.4571C97.2761 82.5768 97.1756 82.6765 97.0553 82.747L75.0755 95.454C74.95 95.5276 74.807 95.5661 74.6615 95.5655V95.5655Z" fill="#AD181B"/>
<path fill-rule="evenodd" clip-rule="evenodd" d="M96.6357 86.2027L74.6611 98.9044V107.747L96.6357 95.0402V86.2027Z" fill="white"/>
<path fill-rule="evenodd" clip-rule="evenodd" d="M75.4683 99.3717V106.33L95.8345 94.5734V87.6201L75.4683 99.3717ZM74.6615 108.565C74.5149 108.561 74.3712 108.523 74.2421 108.453C74.1189 108.381 74.0163 108.277 73.9438 108.154C73.8714 108.03 73.8316 107.891 73.8281 107.747V98.9046C73.8295 98.761 73.8685 98.6203 73.9411 98.4965C74.0138 98.3726 74.1175 98.2699 74.2421 98.1986L96.2432 85.5022C96.367 85.432 96.5069 85.3951 96.6492 85.3951C96.7916 85.3951 96.9315 85.432 97.0553 85.5022C97.1796 85.5721 97.283 85.6739 97.3548 85.797C97.4267 85.9202 97.4644 86.0603 97.464 86.2029V95.0405C97.4642 95.1837 97.4265 95.3245 97.3547 95.4485C97.2829 95.5724 97.1796 95.6752 97.0553 95.7464L75.0755 108.453C74.948 108.522 74.8063 108.561 74.6615 108.565V108.565Z" fill="#AD181B"/>
<path fill-rule="evenodd" clip-rule="evenodd" d="M96.6357 99.1965L74.6611 111.893V120.73L96.6357 108.034V99.1965Z" fill="white"/>
<path fill-rule="evenodd" clip-rule="evenodd" d="M75.4683 112.365V119.318L95.8345 107.562V100.608L75.4683 112.365ZM74.6615 121.542C74.4437 121.544 74.2341 121.459 74.0781 121.307C73.9221 121.155 73.8323 120.948 73.8281 120.73V111.893C73.8295 111.749 73.8685 111.608 73.9411 111.485C74.0138 111.361 74.1175 111.258 74.2421 111.187L96.2432 98.4904C96.3661 98.4175 96.5064 98.3791 96.6492 98.3791C96.7921 98.3791 96.9324 98.4175 97.0553 98.4904C97.1793 98.562 97.2823 98.6649 97.354 98.7887C97.4257 98.9126 97.4637 99.0532 97.464 99.1963V108.034C97.467 108.18 97.4307 108.324 97.3588 108.451C97.2868 108.578 97.182 108.683 97.0553 108.756L75.0755 121.431C74.9499 121.505 74.807 121.543 74.6615 121.542V121.542Z" fill="#AD181B"/>
<path fill-rule="evenodd" clip-rule="evenodd" d="M96.6357 112.18L74.6611 124.881V133.719L96.6357 121.022V112.18Z" fill="white"/>
<path fill-rule="evenodd" clip-rule="evenodd" d="M75.4679 125.343V132.312L95.8341 120.55V113.591L75.4679 125.343ZM74.6611 134.536C74.5145 134.532 74.3709 134.494 74.2418 134.425C74.1172 134.353 74.0134 134.251 73.9408 134.127C73.8682 134.003 73.8292 133.862 73.8278 133.719V124.881C73.8251 124.734 73.8609 124.589 73.9317 124.461C74.0025 124.332 74.1057 124.225 74.2312 124.149L96.2322 111.452C96.356 111.382 96.4959 111.345 96.6383 111.345C96.7806 111.345 96.9205 111.382 97.0443 111.452C97.1673 111.525 97.2694 111.628 97.341 111.752C97.4125 111.875 97.4511 112.015 97.453 112.158V121.001C97.4515 121.145 97.4132 121.285 97.3416 121.41C97.27 121.535 97.1677 121.639 97.0443 121.712L75.0751 134.425C74.9477 134.493 74.8059 134.532 74.6611 134.536V134.536Z" fill="#AD181B"/>
<path d="M99.1785 144.164C95.3462 144.164 93.1488 142.158 93.1488 138.666V103.804C93.0001 104.414 92.8728 104.934 92.7825 105.29C92.2517 107.413 89.9375 109.992 84.98 110.815C84.1422 110.964 83.2936 111.042 82.4428 111.049C80.7072 111.049 79.4863 110.635 78.8176 109.817C78.6027 109.552 78.4505 109.241 78.3724 108.908C78.2943 108.575 78.2922 108.229 78.3664 107.896C78.6371 106.585 83.3452 85.8683 85.9672 78.5912C87.4481 74.4086 94.6774 68.4426 97.8728 65.8152C98.0532 65.4861 98.239 65.1305 98.4035 64.7536C98.4234 64.7129 98.4465 64.6739 98.4726 64.6368C99.4704 62.6676 100.32 60.6506 100.638 59.8598C100.638 59.8279 100.755 59.5785 100.755 59.5785C101.986 57.0625 104.539 54.6368 108.6 52.0997C112.146 49.881 116.748 48.1453 119.078 48.1453C119.427 48.1381 119.775 48.1902 120.107 48.2993C120.316 48.3131 120.515 48.3973 120.67 48.5381C120.721 48.5752 120.769 48.616 120.813 48.6602C120.914 48.7877 121 48.9267 121.068 49.0742C121.707 50.027 122.453 50.9033 123.292 51.6857L123.372 51.7494C125.264 50.7156 127.388 50.1804 129.545 50.1942C131.997 50.1942 133.791 50.9532 134.677 52.3173C136.333 55.0031 138.722 61.3831 141.785 71.2717L141.96 71.8024C142.761 74.3821 141.355 77.6411 138.451 79.9341C137.003 81.1203 135.215 81.8155 133.345 81.9192C132.257 81.9192 131.445 81.5477 131.063 80.8895V118.851C131.063 123.703 131.063 128.289 116.864 137.137C109.55 141.749 103.425 144.164 99.1785 144.164Z" fill="#FA2327"/>
<path d="M108.86 54.3499C106.206 55.8839 102.491 57.8797 101.466 60.1143C100.601 62.0463 103.791 66.1599 110.022 64.541C110.681 64.5092 111.742 64.7533 113.207 63.92C114.672 63.0867 114.853 62.2693 114.853 62.2693C121.079 56.696 121.11 50.1886 120.24 49.2916C119.194 48.2459 111.514 52.8213 108.86 54.3499Z" fill="#D41E21"/>
<path d="M117.973 52.4342C118.249 51.3948 118.391 50.3247 118.398 49.2495V49.0637C116.084 49.3716 112.183 50.9108 109.077 52.8482C106.968 54.096 105.038 55.6245 103.34 57.3917L103.297 59.9501C103.263 60.5136 103.414 61.0727 103.727 61.5425C106.275 57.9331 113.021 53.3737 117.973 52.4342Z" fill="white"/>
<path d="M123.377 52.8319C123.157 52.688 122.947 52.5284 122.751 52.3542C122.682 52.3011 122.618 52.2321 122.549 52.1684C122.251 51.8928 121.968 51.6023 121.7 51.298C121.217 50.7408 120.765 50.1578 120.346 49.5517L120.144 49.2491V49.212C120.145 50.2277 120.034 51.2403 119.815 52.2321C119.757 52.5241 119.677 52.8054 119.603 53.092C119.529 53.3786 119.476 53.6865 119.391 53.9678C118.376 56.9708 116.843 59.7731 114.863 62.2481L116.349 66.3351C124.184 59.5623 123.377 52.8319 123.377 52.8319Z" fill="white"/>
<path d="M104.348 64.0158C104.086 63.9196 103.832 63.8025 103.589 63.6655C102.93 63.3075 102.388 62.766 102.03 62.1066C101.672 61.4471 101.513 60.698 101.572 59.95V59.95L101.466 60.2048C101.333 60.5233 101.084 61.1177 100.755 61.8768C100.606 62.2112 100.447 62.5721 100.272 62.9383C99.9479 63.6496 99.587 64.4086 99.2101 65.1623C98.9978 65.5923 98.7802 66.0063 98.5679 66.3884C99.6127 67.4974 100.878 68.3761 102.281 68.9684C103.685 69.5606 105.197 69.8534 106.721 69.8279C108.053 69.8203 109.378 69.6219 110.654 69.2388L111.009 67.8375L111.901 63.8725C110.422 64.2475 108.904 64.447 107.379 64.467C106.351 64.4854 105.326 64.333 104.348 64.0158V64.0158Z" fill="white"/>
<path d="M142.798 71.6009L142.623 71.0701C139.497 60.9851 137.14 54.7113 135.426 51.9299C134.401 50.2845 132.321 49.3822 129.587 49.3822C127.499 49.3842 125.438 49.8501 123.552 50.7463C123.494 50.6826 123.435 50.6295 123.372 50.5711L123.17 50.3694C123.021 50.2049 122.873 50.0403 122.735 49.8705L122.655 49.775C122.321 49.3663 122.034 48.9682 121.822 48.6656C121.773 48.557 121.716 48.4523 121.652 48.3524V48.3524C121.594 48.2653 121.528 48.1835 121.456 48.1083V48.1083C121.329 47.976 121.182 47.8649 121.02 47.7792C120.96 47.741 120.896 47.709 120.829 47.6837V47.6837H120.76C120.658 47.6331 120.551 47.5922 120.442 47.5616C120.389 47.5616 120.309 47.5616 120.251 47.5297C120.192 47.4979 120.091 47.4713 120.001 47.4554C119.754 47.393 119.502 47.3539 119.247 47.3386H119.184C118.917 47.3457 118.652 47.367 118.388 47.4023C118.329 47.4023 118.244 47.4342 118.186 47.4448C117.592 47.5285 117.003 47.649 116.424 47.8057L115.893 47.9544C115.219 48.1508 114.513 48.3896 113.77 48.6709L113.281 48.8673C112.506 49.1805 111.721 49.5308 110.941 49.9289L110.633 50.0881C109.794 50.5181 108.961 50.9745 108.175 51.4629C107.225 52.0573 106.371 52.6412 105.58 53.2198L105.527 53.2622C104.79 53.8006 104.081 54.3764 103.404 54.9873V54.9873C103.133 55.2367 102.873 55.4809 102.639 55.7251L102.549 55.81C102.443 55.9215 102.337 56.0276 102.236 56.1391C101.812 56.5989 101.416 57.0846 101.052 57.5934L100.824 57.8004C100.526 58.2329 100.259 58.6851 100.022 59.1539C99.9799 59.2282 99.9428 59.3026 99.9109 59.3716C99.8712 59.4661 99.8392 59.5637 99.8154 59.6635L99.688 59.966L99.6084 60.1465C99.55 60.2951 99.4757 60.465 99.4014 60.6401C99.3271 60.8153 99.2634 60.948 99.1944 61.1125L98.9714 61.6433C98.8122 61.9936 98.6424 62.3652 98.4407 62.7527L97.6392 64.3769C97.4906 64.6847 97.3366 64.966 97.1827 65.2474C91.9492 69.5626 86.5245 74.4299 85.1286 78.2728C82.4746 85.6454 77.809 106.197 77.4959 107.7C77.3926 108.161 77.3954 108.639 77.5039 109.099C77.6123 109.558 77.8238 109.987 78.1222 110.354C78.9608 111.41 80.4099 111.941 82.4162 111.941C83.3062 111.929 84.1937 111.846 85.0702 111.691C88.9396 111.049 91.068 109.499 92.2358 108.076V138.692C92.2358 142.673 94.8101 145.062 99.136 145.062C103.568 145.062 109.853 142.604 117.315 137.96C130.925 129.467 131.933 124.929 131.923 118.942V82.62C132.383 82.7649 132.863 82.8365 133.345 82.8323C135.411 82.735 137.389 81.9736 138.987 80.6614C142.172 78.1614 143.706 74.5202 142.798 71.6009ZM116.318 66.3567L114.831 62.2696C116.808 59.7939 118.337 56.9916 119.348 53.9894C119.433 53.7081 119.486 53.4055 119.561 53.1136C119.635 52.8217 119.715 52.5457 119.773 52.2537C119.992 51.2637 120.102 50.2528 120.102 49.2389V49.2389V49.276L120.304 49.5786L120.33 49.6157C120.452 49.7909 120.622 50.0244 120.813 50.2792L120.935 50.4331C121.116 50.672 121.318 50.9161 121.54 51.1762L121.657 51.3248L121.737 51.4045C121.949 51.6433 122.167 51.8662 122.4 52.0839C122.437 52.121 122.469 52.1635 122.506 52.1953C122.544 52.2272 122.639 52.328 122.708 52.3811C122.905 52.5553 123.114 52.7149 123.334 52.8588C123.334 52.8588 124.184 59.5626 116.318 66.3567ZM99.1785 65.1518C99.5447 64.4299 99.8791 63.724 100.192 63.0287L100.251 62.9119C100.298 62.8057 100.341 62.7155 100.383 62.6093C100.5 62.3493 100.612 62.1104 100.712 61.8822V61.8344C100.744 61.7548 100.765 61.7017 100.803 61.6274C100.925 61.3355 101.047 61.0648 101.142 60.8365L101.185 60.7304C101.27 60.5287 101.365 60.311 101.413 60.1996L101.519 59.9448C101.46 60.6928 101.619 61.4419 101.977 62.1014C102.335 62.7608 102.877 63.3023 103.536 63.6603C103.779 63.7973 104.033 63.9144 104.295 64.0106C105.267 64.3218 106.284 64.4707 107.305 64.4512C108.83 64.4312 110.348 64.2316 111.827 63.8567L110.935 67.8217L110.58 69.2229C109.304 69.6061 107.979 69.8045 106.647 69.8121C105.123 69.8376 103.611 69.5448 102.207 68.9526C100.803 68.3603 99.5386 67.4816 98.4937 66.3726C98.7591 65.9958 98.9768 65.5817 99.1785 65.1518ZM104.603 56.1285C104.89 55.8737 105.192 55.5977 105.516 55.3482L105.919 55.0297C106.249 54.775 106.594 54.4989 106.981 54.2548L107.422 53.9416C107.952 53.5807 108.483 53.2144 109.083 52.8429C109.805 52.3917 110.569 51.9724 111.344 51.5743L111.625 51.431C112.353 51.0701 113.08 50.741 113.796 50.4491L114.242 50.2686C114.911 50.0032 115.553 49.7803 116.164 49.5892L116.694 49.4406C117.201 49.2979 117.715 49.1827 118.234 49.0955H118.414V49.2442C118.408 50.3194 118.265 51.3895 117.989 52.4289C113.037 53.3684 106.312 57.9278 103.738 61.5265C103.425 61.0568 103.274 60.4976 103.308 59.9342L103.35 57.3758C103.653 57.0467 103.987 56.707 104.348 56.3726L104.603 56.1285ZM111.413 62.1953C110.083 62.5296 108.719 62.7078 107.347 62.7261C106.602 62.7371 105.859 62.6442 105.139 62.4501C107.177 59.6635 112.926 55.5021 117.4 54.2972C116.455 56.7672 115.144 59.0808 113.51 61.1603L112.979 61.776L111.413 62.1953ZM137.952 79.3079C136.655 80.3753 135.054 81.0051 133.377 81.1072C132.538 81.1072 131.928 80.8471 131.785 80.3323C131.371 79.0531 130.256 75.879 130.256 75.879V118.544C130.256 123.416 130.622 127.636 116.456 136.452C108.902 141.155 103.027 143.294 99.1838 143.294C95.8186 143.294 94.0139 141.659 94.0139 138.66V96.8026C94.0139 96.8026 92.4216 103.172 91.9545 105.088C91.4874 107.004 89.3695 109.212 84.8472 109.966C84.0549 110.105 83.2525 110.18 82.4481 110.189C79.826 110.189 78.9927 109.127 79.2156 108.066C79.4969 106.707 84.1785 86.1019 86.7793 78.8726C88.0479 75.3641 93.7857 70.3482 97.2517 67.4607C98.4577 68.7662 99.9252 69.8029 101.559 70.5034C103.192 71.204 104.954 71.5526 106.732 71.5265C108.226 71.5166 109.711 71.295 111.142 70.8684L112.087 70.5977L112.331 69.6476L112.687 68.2463L113.589 64.2282L113.648 63.9629L114.709 66.9352L115.564 69.2813L117.453 67.6518C125.946 60.3429 125.134 52.9278 125.097 52.6147L125.006 51.9618C126.457 51.39 128.001 51.0896 129.561 51.0754C131.45 51.0754 133.191 51.5637 133.961 52.8057C136.562 57.052 140.447 69.8493 141.153 72.1157C141.859 74.3822 140.5 77.2962 137.926 79.3132L137.952 79.3079Z" fill="#AD181B"/>
</g>
<defs>
<filter id="filter0_dd_24025_85402" x="3.87451" y="0.476562" width="178.251" height="203.047" filterUnits="userSpaceOnUse" color-interpolation-filters="sRGB">
<feFlood flood-opacity="0" result="BackgroundImageFix"/>
<feColorMatrix in="SourceAlpha" type="matrix" values="0 0 0 0 0 0 0 0 0 0 0 0 0 0 0 0 0 0 127 0" result="hardAlpha"/>
<feOffset dx="-2.24609" dy="-2.24609"/>
<feGaussianBlur stdDeviation="3.36914"/>
<feColorMatrix type="matrix" values="0 0 0 0 1 0 0 0 0 1 0 0 0 0 1 0 0 0 1 0"/>
<feBlend mode="normal" in2="BackgroundImageFix" result="effect1_dropShadow_24025_85402"/>
<feColorMatrix in="SourceAlpha" type="matrix" values="0 0 0 0 0 0 0 0 0 0 0 0 0 0 0 0 0 0 127 0" result="hardAlpha"/>
<feOffset dx="2.24609" dy="2.24609"/>
<feGaussianBlur stdDeviation="3.36914"/>
<feColorMatrix type="matrix" values="0 0 0 0 0.682353 0 0 0 0 0.682353 0 0 0 0 0.752941 0 0 0 0.4 0"/>
<feBlend mode="normal" in2="effect1_dropShadow_24025_85402" result="effect2_dropShadow_24025_85402"/>
<feBlend mode="normal" in="SourceGraphic" in2="effect2_dropShadow_24025_85402" result="shape"/>
</filter>
<clipPath id="clip0_24025_85402">
<rect width="90.0584" height="115" fill="white" transform="translate(53 44)"/>
</clipPath>
</defs>
</svg>
