<svg width="186" height="204" viewBox="0 0 186 204" fill="none" xmlns="http://www.w3.org/2000/svg">
<g filter="url(#filter0_dd_24025_85400)">
<path d="M13.9819 56.3789L93 10.7577L172.018 56.3789V147.621L93 193.242L13.9819 147.621V56.3789Z" stroke="#EC2227" stroke-width="2.24609"/>
</g>
<path fill-rule="evenodd" clip-rule="evenodd" d="M84.8555 113.077L57.9614 128.604L60.5852 130.135L86.1675 115.483C86.6048 115.264 86.3861 114.608 86.1675 114.171C85.9488 113.733 85.2928 112.858 84.8555 113.077Z" fill="white"/>
<path fill-rule="evenodd" clip-rule="evenodd" d="M59.7107 128.604L60.5853 129.042L85.5116 114.827V114.608C85.5116 114.389 85.2929 114.389 85.2929 114.171L59.7107 128.604ZM60.5853 131.01C60.3667 131.01 60.3667 131.01 60.148 130.791L57.5242 129.26C57.3056 129.042 57.0869 128.823 57.0869 128.604C57.0869 128.385 57.3056 127.948 57.5242 127.948L84.4183 112.421C85.2929 111.984 86.3862 112.64 86.8235 113.733C87.2608 114.827 87.2608 115.701 86.3862 116.139L60.5853 131.01C60.804 131.01 60.804 131.01 60.5853 131.01Z" fill="#AD181B"/>
<path fill-rule="evenodd" clip-rule="evenodd" d="M84.8557 105.642L58.8362 120.731L61.46 122.262L86.1676 108.047C86.6049 107.829 86.3862 107.173 86.1676 106.735C85.9489 106.079 85.293 105.205 84.8557 105.642Z" fill="white"/>
<path fill-rule="evenodd" clip-rule="evenodd" d="M60.5852 120.513L61.4598 120.95L85.5115 106.954V106.735C85.5115 106.517 85.2928 106.517 85.2928 106.298L60.5852 120.513ZM61.4598 122.918C61.2412 122.918 61.2412 122.918 61.0225 122.7L58.3987 121.169C58.1801 120.95 57.9614 120.731 57.9614 120.513C57.9614 120.294 58.1801 119.857 58.3987 119.857L84.4182 104.767C85.2928 104.33 86.3861 104.986 86.8234 106.079C87.2607 107.173 87.2607 108.047 86.3861 108.485L61.6785 122.7C61.6785 122.918 61.4598 122.918 61.4598 122.918Z" fill="#AD181B"/>
<path fill-rule="evenodd" clip-rule="evenodd" d="M87.9167 119.857C88.3541 119.638 90.9779 118.107 91.1965 118.107C92.7271 117.451 94.4763 118.545 95.5695 119.419C97.5374 121.169 99.068 124.23 98.8493 126.855C98.8493 127.729 98.412 128.823 97.5374 129.26L94.4763 131.01C95.1322 130.572 95.3509 130.135 95.5695 129.479C96.2255 127.292 95.1322 124.668 94.039 122.918C92.9457 121.387 91.1965 119.638 89.2287 119.419C88.7914 119.419 88.3541 119.638 87.9167 119.857Z" fill="#FA2327"/>
<path fill-rule="evenodd" clip-rule="evenodd" d="M90.7591 119.2C92.2897 119.856 93.6016 121.387 94.4762 122.699C95.5695 124.23 96.6627 126.855 96.4441 129.041L96.8814 128.823C97.5373 128.385 97.756 127.511 97.756 127.073C97.9746 124.668 96.4441 121.825 94.6949 120.294C93.8203 119.419 92.2897 118.544 91.1965 118.982C91.4151 118.763 91.1965 118.982 90.7591 119.2ZM94.4762 132.103C94.2576 132.103 93.8203 131.884 93.8203 131.666C93.6016 131.228 93.6016 130.791 94.0389 130.572C94.4762 130.354 94.6949 129.916 94.6949 129.479C95.1322 127.729 94.2576 125.324 93.1643 123.574C92.2897 122.262 90.7592 120.731 89.0099 120.513C88.5726 120.513 88.354 120.513 88.1353 120.731C87.698 120.95 87.2607 120.731 87.0421 120.294C86.8234 119.856 87.0421 119.419 87.4794 119.2L87.9167 118.982C89.8845 117.888 90.5405 117.451 90.7591 117.451C92.9457 116.576 95.3508 118.326 96.0068 118.982C97.9747 120.731 99.9425 124.012 99.5052 127.292C99.2866 128.823 98.8493 129.916 97.756 130.354L94.6949 132.103C94.6949 131.884 94.4762 132.103 94.4762 132.103Z" fill="#AD181B"/>
<path fill-rule="evenodd" clip-rule="evenodd" d="M95.5697 126.636C96.2256 129.916 94.6951 131.884 92.2899 131.228C89.8848 130.572 87.2609 127.511 86.605 124.23C85.949 120.95 87.4796 118.982 89.8848 119.638C92.2899 120.294 94.9137 123.574 95.5697 126.636Z" fill="#D41E21"/>
<path fill-rule="evenodd" clip-rule="evenodd" d="M89.0101 120.513C88.5728 120.513 88.3541 120.731 87.9168 120.95C87.2609 121.606 87.0422 122.918 87.2609 124.23C87.9168 127.073 90.1033 130.135 92.2899 130.572C92.9458 130.791 93.6018 130.572 94.0391 130.354C94.695 129.698 94.9137 128.386 94.4764 127.073C93.8204 124.23 91.6339 121.169 89.4474 120.731C89.4474 120.513 89.2287 120.513 89.0101 120.513ZM93.1645 132.322C92.7272 132.322 92.5085 132.322 92.0712 132.103C89.2287 131.447 86.6049 127.948 85.7303 124.449C85.293 122.262 85.7303 120.513 86.8236 119.419C87.6982 118.545 88.7914 118.326 90.1033 118.763C92.9458 119.419 95.5696 122.918 96.4442 126.417C96.8815 128.604 96.4442 130.354 95.351 131.447C94.695 132.103 94.0391 132.322 93.1645 132.322Z" fill="#AD181B"/>
<path fill-rule="evenodd" clip-rule="evenodd" d="M118.528 137.57C118.965 137.352 121.589 135.821 121.808 135.821C123.338 135.165 125.087 136.258 126.181 137.133C128.149 138.882 129.679 141.944 129.46 144.568C129.46 145.443 129.023 146.537 128.149 146.974L125.087 148.723C125.743 148.286 125.962 147.849 126.181 147.193C126.837 145.006 125.743 142.381 124.65 140.632C123.557 139.101 121.808 137.352 119.84 137.133C119.402 137.352 118.965 137.352 118.528 137.57Z" fill="#FA2327"/>
<path fill-rule="evenodd" clip-rule="evenodd" d="M121.589 136.914C123.119 137.57 124.431 139.101 125.306 140.413C126.399 141.944 127.492 144.568 127.055 146.755L127.492 146.537C128.148 146.099 128.367 145.224 128.367 144.787C128.586 142.382 127.055 139.539 125.306 138.008C124.431 137.133 122.901 136.258 122.026 136.696C122.026 136.477 121.808 136.696 121.589 136.914ZM125.087 149.817C124.869 149.817 124.431 149.598 124.431 149.38C124.213 148.942 124.213 148.505 124.65 148.286C125.087 148.067 125.306 147.63 125.306 147.193C125.743 145.443 124.869 143.038 123.775 141.288C122.901 139.976 121.37 138.445 119.621 138.226C119.184 138.226 118.965 138.226 118.746 138.445C118.309 138.664 117.872 138.445 117.653 138.008C117.435 137.57 117.653 137.133 118.09 136.914L118.528 136.696C120.496 135.602 121.152 135.165 121.37 135.165C123.557 134.29 125.962 136.04 126.618 136.696C128.586 138.445 130.554 141.725 130.116 145.006C129.898 146.537 129.46 147.63 128.367 148.067L125.306 149.817C125.525 149.817 125.306 149.817 125.087 149.817Z" fill="#AD181B"/>
<path fill-rule="evenodd" clip-rule="evenodd" d="M126.181 144.569C126.837 147.849 125.306 149.817 122.901 149.161C120.496 148.505 117.872 145.443 117.216 142.163C116.56 138.883 118.091 136.915 120.496 137.571C123.12 138.008 125.525 141.288 126.181 144.569Z" fill="#D41E21"/>
<path fill-rule="evenodd" clip-rule="evenodd" d="M119.84 138.227C119.403 138.227 119.184 138.445 118.747 138.664C118.091 139.32 117.872 140.632 118.309 141.944C118.965 144.787 121.152 147.849 123.338 148.286C123.994 148.505 124.65 148.286 125.087 148.068C125.743 147.412 125.962 146.099 125.525 144.787C124.869 141.944 122.682 138.883 120.496 138.445C120.058 138.227 119.84 138.227 119.84 138.227ZM123.776 150.036C123.338 150.036 123.12 150.036 122.682 149.817C119.84 149.161 117.216 145.662 116.341 142.163C115.904 139.976 116.341 138.227 117.435 137.133C118.309 136.258 119.403 136.04 120.714 136.477C123.557 137.133 126.181 140.632 127.055 144.131C127.493 146.318 127.055 148.068 125.962 149.161C125.525 149.817 124.65 150.036 123.776 150.036Z" fill="#AD181B"/>
<path fill-rule="evenodd" clip-rule="evenodd" d="M60.5854 135.602C61.0228 135.383 63.6466 133.853 63.8652 133.853C65.3958 133.197 67.145 134.29 68.2382 135.165C70.2061 136.914 71.7367 139.976 71.518 142.6C71.518 143.475 71.0807 144.568 70.2061 145.006L67.145 146.755C67.8009 146.318 68.0196 145.881 68.2382 145.225C68.8942 143.038 67.8009 140.413 66.7077 138.664C65.6144 137.133 63.8652 135.383 61.8974 135.165C61.2414 135.383 61.0228 135.383 60.5854 135.602Z" fill="#FA2327"/>
<path fill-rule="evenodd" clip-rule="evenodd" d="M63.4279 134.946C64.9584 135.602 66.2703 137.133 67.1449 138.445C68.2382 139.976 69.3314 142.6 69.1128 144.787L69.5501 144.569C70.2061 144.131 70.4247 143.256 70.4247 142.819C70.6434 140.414 69.1128 137.571 67.3636 136.04C66.489 135.165 64.9584 134.29 63.8652 134.728C64.0838 134.728 63.8652 134.728 63.4279 134.946ZM67.1449 147.849C66.9263 147.849 66.489 147.63 66.489 147.412C66.2703 146.974 66.2703 146.537 66.7076 146.318C67.1449 146.099 67.3636 145.662 67.5822 145.225C68.0195 143.475 67.1449 141.07 66.0517 139.32C65.1771 138.008 63.4279 136.477 61.8973 136.258C61.6786 136.258 61.2413 136.258 61.0227 136.477C60.5854 136.696 60.1481 136.477 59.9294 136.04C59.7108 135.602 59.9294 135.165 60.1481 134.946L60.5854 134.728C62.5533 133.634 63.2092 133.197 63.4279 133.197C65.6144 132.322 68.0195 134.072 68.6755 134.728C70.6434 136.477 72.6112 139.757 72.1739 143.038C72.1739 144.569 71.518 145.662 70.4247 146.099L67.3636 147.849C67.3636 147.849 67.1449 147.849 67.1449 147.849Z" fill="#AD181B"/>
<path fill-rule="evenodd" clip-rule="evenodd" d="M68.2384 142.6C68.8943 145.881 67.3638 147.849 64.9586 147.193C62.5534 146.537 59.9296 143.475 59.2737 140.195C58.6177 136.914 60.1483 134.946 62.5534 135.602C64.9586 136.258 67.5824 139.32 68.2384 142.6Z" fill="#D41E21"/>
<path fill-rule="evenodd" clip-rule="evenodd" d="M61.6785 136.258C61.2412 136.258 61.0226 136.477 60.5853 136.696C59.9293 137.352 59.7107 138.445 60.148 139.976C60.8039 142.819 62.9904 145.881 65.177 146.318C65.8329 146.537 66.4889 146.318 66.9262 146.099C67.5821 145.443 67.8008 144.35 67.3635 142.819C66.7075 139.976 64.521 136.914 62.3345 136.477C62.1158 136.258 61.8972 136.258 61.6785 136.258ZM65.8329 148.286C65.3956 148.286 65.177 148.286 64.7397 148.067C61.8972 147.411 59.2734 143.912 58.3988 140.413C57.9615 138.226 58.3988 136.477 59.492 135.383C60.3666 134.509 61.4599 134.29 62.7718 134.727C65.6143 135.383 68.2381 138.883 69.1127 142.382C69.55 144.568 69.1127 146.318 68.0194 147.411C67.3635 147.849 66.7075 148.286 65.8329 148.286Z" fill="#AD181B"/>
<path fill-rule="evenodd" clip-rule="evenodd" d="M85.9489 104.548C85.7303 104.33 85.293 104.548 85.0743 104.767C84.637 105.204 84.1997 105.86 84.1997 106.516C84.1997 106.735 84.1997 106.954 84.4184 106.954L130.554 133.634V130.572L85.9489 104.548Z" fill="white"/>
<path fill-rule="evenodd" clip-rule="evenodd" d="M85.0745 106.298L129.679 132.103V131.01L85.5118 105.423C85.2932 105.642 85.0745 106.079 85.0745 106.298ZM130.773 134.509C130.554 134.509 130.554 134.509 130.335 134.29L84.1999 107.61C83.7626 107.392 83.5439 106.954 83.5439 106.517C83.5439 105.423 83.9812 104.549 84.6372 104.111C85.2932 103.674 85.9491 103.674 86.3864 103.892L131.21 129.698C131.429 129.916 131.647 130.135 131.647 130.354V133.415C131.647 133.634 131.429 134.072 131.21 134.072C130.991 134.509 130.773 134.509 130.773 134.509Z" fill="#AD181B"/>
<path fill-rule="evenodd" clip-rule="evenodd" d="M86.6049 114.827C86.6049 115.046 86.3862 115.264 85.9489 115.483C85.5116 115.702 84.637 115.702 83.9811 115.264C83.7625 115.264 83.7625 115.046 83.7625 114.827V72.8385L86.3862 74.3693L86.6049 114.827Z" fill="white"/>
<path fill-rule="evenodd" clip-rule="evenodd" d="M84.8557 114.608C85.0743 114.827 85.5116 114.827 85.7303 114.608V75.0253L84.8557 74.3692V114.608ZM85.293 116.358C84.637 116.358 84.1997 116.139 83.7624 115.92C83.3251 115.701 83.1064 115.264 83.1064 114.827V72.8384C83.1064 72.6197 83.3251 72.1823 83.5438 72.1823C83.7624 71.9636 84.1997 71.9636 84.4184 72.1823L87.2608 73.7131C87.4795 73.9318 87.6981 74.1505 87.6981 74.3692V114.827C87.6981 115.483 87.2608 115.92 86.6049 116.139C86.1676 116.358 85.7303 116.358 85.293 116.358Z" fill="#AD181B"/>
<path fill-rule="evenodd" clip-rule="evenodd" d="M85.9489 113.077C85.7303 112.859 85.293 113.077 85.0743 113.296C84.637 113.733 84.1997 114.389 84.1997 115.045C84.1997 115.264 84.1997 115.483 84.4184 115.483L130.554 142.163L131.647 139.757L85.9489 113.077Z" fill="white"/>
<path fill-rule="evenodd" clip-rule="evenodd" d="M85.2931 114.827L130.554 140.851L130.991 139.976L85.949 113.952C85.5117 114.171 85.2931 114.608 85.2931 114.827ZM130.773 143.038C130.554 143.038 130.554 143.038 130.335 142.819L84.1998 116.139C83.7625 115.92 83.5439 115.483 83.5439 115.045C83.3252 114.171 83.9812 113.077 84.6371 112.64C85.2931 112.203 85.949 112.203 86.3863 112.421L132.303 138.883C132.74 139.101 132.959 139.539 132.74 139.976L131.647 142.382C131.647 142.6 131.428 142.819 131.21 142.819C130.991 143.038 130.991 143.038 130.773 143.038Z" fill="#AD181B"/>
<path fill-rule="evenodd" clip-rule="evenodd" d="M91.1965 153.316C91.6338 153.097 94.2577 151.567 94.4763 151.567C96.0069 150.911 97.7561 152.004 98.8493 152.879C100.817 154.628 102.348 157.69 102.129 160.314C102.129 161.189 101.692 162.282 100.817 162.72L97.7561 164.469C98.412 164.032 98.6307 163.594 98.8493 162.938C99.5053 160.752 98.412 158.127 97.3188 156.378C96.2255 154.847 94.4763 153.097 92.5084 152.879C92.0711 153.097 91.6338 153.097 91.1965 153.316Z" fill="#FA2327"/>
<path fill-rule="evenodd" clip-rule="evenodd" d="M94.2577 152.66C95.7883 153.316 97.1002 154.847 97.9748 156.159C99.0681 157.69 100.161 160.314 99.9427 162.501L100.38 162.282C101.036 161.845 101.255 160.97 101.255 160.533C101.473 158.127 99.724 155.284 98.1935 153.753C97.3189 152.879 95.7883 152.004 94.695 152.441C94.695 152.441 94.4764 152.441 94.2577 152.66ZM97.7562 165.563C97.5375 165.563 97.1002 165.344 97.1002 165.125C96.8816 164.688 96.8816 164.25 97.3189 164.032C97.7562 163.813 97.9748 163.376 97.9748 162.938C98.4121 161.189 97.5375 158.783 96.4443 157.034C95.5696 155.722 94.0391 154.191 92.2899 153.972C91.8526 153.972 91.6339 153.972 91.4153 154.191C90.978 154.409 90.5407 154.191 90.322 153.753C90.1034 153.316 90.322 152.879 90.5407 152.66L90.978 152.441C92.9458 151.348 93.6018 150.91 93.8204 150.91C96.007 150.036 98.4121 151.785 99.0681 152.441C101.036 154.191 103.004 157.471 102.567 160.751C102.567 162.282 101.911 163.376 100.817 163.813L97.7562 165.563C97.9748 165.563 97.9748 165.563 97.7562 165.563Z" fill="#AD181B"/>
<path fill-rule="evenodd" clip-rule="evenodd" d="M98.8495 160.314C99.5055 163.594 97.9749 165.563 95.5697 164.907C93.1646 164.25 90.5407 161.189 89.8848 157.909C89.2288 154.628 90.7594 152.66 93.1645 153.316C95.7884 153.972 98.1935 157.034 98.8495 160.314Z" fill="#D41E21"/>
<path fill-rule="evenodd" clip-rule="evenodd" d="M92.2901 153.972C91.8528 153.972 91.6342 154.191 91.1969 154.41C90.5409 155.066 90.3223 156.378 90.7596 157.69C91.4155 160.533 93.602 163.594 95.7885 164.032C96.4445 164.25 97.1004 164.032 97.5377 163.813C98.1937 163.157 98.4123 161.845 97.975 160.533C97.3191 157.69 95.1326 154.628 92.9461 154.191C92.7274 153.972 92.5088 153.972 92.2901 153.972ZM96.4445 166C96.0072 166 95.7885 166 95.3512 165.781C92.5088 165.125 89.885 161.626 89.0103 158.127C88.573 155.94 89.0103 154.191 90.1036 153.097C90.9782 152.223 92.0715 152.004 93.3834 152.441C96.2258 153.097 99.0683 156.596 99.7243 160.095C100.162 162.282 99.7243 164.032 98.631 165.125C98.1937 165.781 97.3191 166 96.4445 166Z" fill="#AD181B"/>
<path fill-rule="evenodd" clip-rule="evenodd" d="M104.097 115.701C103.879 115.701 103.879 115.701 103.66 115.483L51.4023 85.3037C50.965 85.085 50.965 84.429 51.1837 84.2103C51.4023 83.7729 52.0583 83.5542 52.2769 83.9916L104.535 114.171C104.972 114.389 105.191 115.045 104.753 115.264C104.753 115.483 104.316 115.701 104.097 115.701Z" fill="#AD181B"/>
<path fill-rule="evenodd" clip-rule="evenodd" d="M131.428 99.5186C131.21 99.5186 131.21 99.5186 130.991 99.2999L78.0774 68.9021C77.6401 68.6834 77.4214 68.0273 77.8587 67.8086C78.0774 67.3713 78.5147 67.1526 78.952 67.5899L131.647 97.9877C132.084 98.2064 132.303 98.8625 131.866 99.0812C131.866 99.5186 131.647 99.5186 131.428 99.5186Z" fill="#AD181B"/>
<path fill-rule="evenodd" clip-rule="evenodd" d="M104.097 115.701C103.878 115.701 103.441 115.483 103.441 115.264C103.223 114.827 103.441 114.389 103.66 114.171L130.991 98.425C131.428 98.2063 131.866 98.425 132.084 98.6437C132.303 99.0811 132.084 99.5185 131.866 99.7372L104.534 115.483C104.316 115.483 104.316 115.701 104.097 115.701Z" fill="#AD181B"/>
<path fill-rule="evenodd" clip-rule="evenodd" d="M85.0744 137.789C84.8558 137.789 84.4184 137.57 84.4184 137.352C84.1998 136.914 84.4184 136.477 84.6371 136.258L130.991 109.578C131.428 109.36 131.866 109.578 132.084 109.797C132.303 110.234 132.084 110.672 131.866 110.89L85.5117 137.789C85.2931 137.789 85.0744 137.789 85.0744 137.789Z" fill="#AD181B"/>
<path fill-rule="evenodd" clip-rule="evenodd" d="M104.097 137.352C103.878 137.352 103.441 137.133 103.441 136.914C103.223 136.477 103.441 136.039 103.66 135.821L130.991 120.075C131.428 119.856 131.866 120.075 132.084 120.294C132.303 120.731 132.084 121.169 131.866 121.387L104.534 137.133C104.316 137.352 104.316 137.352 104.097 137.352Z" fill="#AD181B"/>
<path fill-rule="evenodd" clip-rule="evenodd" d="M58.3989 89.0214C58.1802 89.0214 57.7429 88.8027 57.7429 88.584C57.5243 88.1467 57.7429 87.7093 57.9616 87.4906L85.293 71.7449C85.7303 71.5263 86.1676 71.7449 86.3862 71.9636C86.6049 72.401 86.3862 72.8384 86.1676 73.0571L58.8362 88.8027C58.8362 89.0214 58.6175 89.0214 58.3989 89.0214Z" fill="#AD181B"/>
<path fill-rule="evenodd" clip-rule="evenodd" d="M58.3989 100.393C58.1802 100.393 57.7429 100.175 57.7429 99.9559C57.5243 99.5185 57.7429 99.0811 57.9616 98.8625L83.3251 84.2103C83.7624 83.9916 84.1997 84.2103 84.4184 84.429C84.637 84.8664 84.4184 85.3037 84.1997 85.5224L58.8362 100.175C58.8362 100.393 58.6175 100.393 58.3989 100.393Z" fill="#AD181B"/>
<path fill-rule="evenodd" clip-rule="evenodd" d="M58.3989 110.89C58.1802 110.89 57.7429 110.672 57.7429 110.453C57.5243 110.016 57.7429 109.578 57.9616 109.359L83.3251 94.7073C83.7624 94.4886 84.1997 94.7073 84.4184 94.926C84.637 95.3634 84.4184 95.8008 84.1997 96.0194L58.8362 110.672C58.8362 110.89 58.6175 110.89 58.3989 110.89Z" fill="#AD181B"/>
<path fill-rule="evenodd" clip-rule="evenodd" d="M58.3985 132.322C57.9612 132.322 57.5239 131.884 57.5239 131.447V88.3653C57.5239 87.9279 57.9612 87.4905 58.3985 87.4905C58.8358 87.4905 59.2731 87.9279 59.2731 88.3653V131.447C59.2731 131.884 58.8358 132.322 58.3985 132.322Z" fill="#AD181B"/>
<path fill-rule="evenodd" clip-rule="evenodd" d="M104.097 117.232C103.66 117.232 103.222 116.795 103.222 116.358V82.8983C103.222 82.4609 103.66 82.0236 104.097 82.0236C104.534 82.0236 104.972 82.4609 104.972 82.8983V116.139C104.972 116.795 104.534 117.232 104.097 117.232Z" fill="#AD181B"/>
<path fill-rule="evenodd" clip-rule="evenodd" d="M103.878 158.565C103.66 158.565 103.66 158.565 103.441 158.346L57.9614 132.103C57.5241 131.885 57.3055 131.229 57.7428 131.01C57.9614 130.572 58.3987 130.354 58.836 130.791L104.316 157.034C104.753 157.253 104.971 157.909 104.534 158.127C104.534 158.346 104.316 158.565 103.878 158.565Z" fill="#AD181B"/>
<path fill-rule="evenodd" clip-rule="evenodd" d="M131.428 133.634C130.991 133.634 130.554 133.197 130.554 132.759V98.8624C130.554 98.425 130.991 97.9876 131.428 97.9876C131.866 97.9876 132.303 98.425 132.303 98.8624V132.541C132.303 133.197 131.866 133.634 131.428 133.634Z" fill="#AD181B"/>
<path fill-rule="evenodd" clip-rule="evenodd" d="M85.7301 138.445C85.2928 138.445 84.8555 138.008 84.8555 137.57V116.358C84.8555 115.92 85.2928 115.483 85.7301 115.483C86.1674 115.483 86.6047 115.92 86.6047 116.358V137.57C86.6047 138.008 86.1674 138.445 85.7301 138.445Z" fill="#AD181B"/>
<path fill-rule="evenodd" clip-rule="evenodd" d="M104.097 126.636C103.878 126.636 103.878 126.636 103.66 126.417L58.1801 100.175C57.7428 99.9558 57.7428 99.2997 57.9615 99.0811C58.1801 98.6437 58.8361 98.425 59.0547 98.8624L104.534 125.105C104.971 125.324 105.19 125.98 104.753 126.198C104.534 126.417 104.316 126.636 104.097 126.636Z" fill="#AD181B"/>
<path fill-rule="evenodd" clip-rule="evenodd" d="M104.097 137.133C103.878 137.133 103.878 137.133 103.66 136.914L57.9614 110.453C57.5241 110.234 57.3055 109.578 57.7428 109.359C57.9614 108.922 58.3987 108.703 58.836 109.141L104.534 135.602C104.971 135.821 105.19 136.477 104.753 136.696C104.753 137.133 104.534 137.133 104.097 137.133Z" fill="#AD181B"/>
<path fill-rule="evenodd" clip-rule="evenodd" d="M131.428 110.89C131.21 110.89 131.21 110.89 130.991 110.672L86.1675 84.8663C85.7302 84.6476 85.5115 83.9915 85.9488 83.7728C86.1675 83.3355 86.8234 83.1168 87.0421 83.5541L131.866 109.359C132.303 109.578 132.522 110.234 132.084 110.453C131.866 110.672 131.647 110.89 131.428 110.89Z" fill="#AD181B"/>
<path fill-rule="evenodd" clip-rule="evenodd" d="M131.866 122.262C131.647 122.262 131.647 122.262 131.428 122.044L86.1675 96.0195C85.7302 95.8008 85.5115 95.1448 85.9488 94.9261C86.1675 94.4887 86.8234 94.27 87.0421 94.7074L132.303 120.731C132.74 120.95 132.959 121.606 132.522 121.825C132.522 122.044 132.084 122.262 131.866 122.262Z" fill="#AD181B"/>
<path fill-rule="evenodd" clip-rule="evenodd" d="M95.5698 144.131C95.1325 144.131 94.6952 143.694 94.6952 143.256V113.515L69.1129 128.385C68.8943 128.604 68.457 128.604 68.2383 128.385C68.0197 128.167 67.801 127.948 67.801 127.729V82.4608C67.801 82.0234 68.2383 81.586 68.6756 81.586C69.1129 81.586 69.5502 82.0234 69.5502 82.4608V126.199L94.6952 111.546V78.087C94.6952 77.6496 95.1325 77.2122 95.5698 77.2122C96.0071 77.2122 96.4444 77.6496 96.4444 78.087V111.984V143.256C96.4444 143.912 96.0071 144.131 95.5698 144.131Z" fill="#AD181B"/>
<path fill-rule="evenodd" clip-rule="evenodd" d="M76.5472 142.819C76.1099 142.819 75.6726 142.382 75.6726 141.944V131.885V77.8684C75.6726 77.431 76.1099 76.9936 76.5472 76.9936C76.9845 76.9936 77.4218 77.431 77.4218 77.8684V130.572L103.223 115.702C103.66 115.483 104.097 115.702 104.316 115.92C104.535 116.358 104.316 116.795 104.097 117.014L77.4218 132.541V141.944C77.4218 142.382 77.2032 142.819 76.5472 142.819Z" fill="#AD181B"/>
<path fill-rule="evenodd" clip-rule="evenodd" d="M113.937 143.694C113.499 143.694 113.062 143.256 113.062 142.819V88.5839C113.062 88.1465 113.499 87.7092 113.937 87.7092C114.374 87.7092 114.811 88.1465 114.811 88.5839V142.819C114.811 143.256 114.374 143.694 113.937 143.694Z" fill="#AD181B"/>
<path fill-rule="evenodd" clip-rule="evenodd" d="M123.12 138.008C122.682 138.008 122.245 137.57 122.245 137.133V94.0512C122.245 93.6139 122.682 93.1765 123.12 93.1765C123.557 93.1765 123.994 93.6139 123.994 94.0512V137.133C123.994 137.57 123.557 138.008 123.12 138.008Z" fill="#AD181B"/>
<path fill-rule="evenodd" clip-rule="evenodd" d="M59.9294 131.228C59.9294 131.447 59.7107 131.666 59.2734 131.884C58.8361 132.103 57.9615 132.103 57.3056 131.666C57.0869 131.447 57.0869 131.447 57.0869 131.228V89.2401L59.7107 90.7709L59.9294 131.228Z" fill="white"/>
<path fill-rule="evenodd" clip-rule="evenodd" d="M58.1804 131.01C58.399 131.228 58.8363 131.228 59.055 131.01V91.2083L57.9617 90.5523V131.01H58.1804ZM58.6177 132.759C57.9617 132.759 57.5244 132.541 57.0871 132.322C56.6498 132.103 56.4312 131.666 56.4312 131.228V89.2401C56.4312 89.0214 56.6498 88.5841 56.8685 88.5841C57.0871 88.3654 57.5244 88.3654 57.7431 88.5841L60.3669 90.1149C60.5855 90.3336 60.8042 90.5523 60.8042 90.771V131.228C60.8042 131.885 60.3669 132.322 59.7109 132.541C59.4923 132.759 59.055 132.759 58.6177 132.759Z" fill="#AD181B"/>
<path fill-rule="evenodd" clip-rule="evenodd" d="M59.2731 120.95C59.0545 120.731 58.6172 120.95 58.3985 121.169C57.9612 121.606 57.5239 122.262 57.5239 122.918C57.5239 123.137 57.5239 123.356 57.7426 123.356L103.878 150.036V146.974L86.6046 136.914L59.2731 120.95Z" fill="white"/>
<path fill-rule="evenodd" clip-rule="evenodd" d="M58.6175 122.7L103.222 148.505V147.411L59.0548 121.825C58.8362 122.043 58.6175 122.481 58.6175 122.7ZM104.097 150.91C103.878 150.91 103.878 150.91 103.66 150.692L57.5243 124.012C57.087 123.793 56.8683 123.356 56.8683 122.918C56.6497 121.825 57.3056 120.95 57.9616 120.513C58.6175 120.075 59.2735 120.075 59.7108 120.294L104.534 146.099C104.753 146.318 104.972 146.537 104.972 146.755V149.817C104.972 150.036 104.753 150.473 104.534 150.473C104.316 150.692 104.316 150.91 104.097 150.91Z" fill="#AD181B"/>
<path fill-rule="evenodd" clip-rule="evenodd" d="M59.2731 129.479C59.0545 129.26 58.6172 129.479 58.3985 129.698C57.9612 130.135 57.5239 130.791 57.5239 131.447C57.5239 131.666 57.5239 131.884 57.7426 131.884L103.878 158.564V155.503L86.6046 145.443L59.2731 129.479Z" fill="white"/>
<path fill-rule="evenodd" clip-rule="evenodd" d="M58.6175 131.01L103.222 156.815V155.722L59.0548 130.135C58.8362 130.572 58.6175 130.791 58.6175 131.01ZM104.097 159.221C103.878 159.221 103.878 159.221 103.66 159.002L57.5243 132.322C57.087 132.103 56.8683 131.666 56.8683 131.228C56.6497 130.135 57.3056 129.26 57.9616 128.823C58.6175 128.385 59.2735 128.385 59.7108 128.604L104.534 154.409C104.753 154.628 104.972 154.847 104.972 155.066V158.127C104.972 158.346 104.753 158.783 104.534 158.783C104.316 159.221 104.316 159.221 104.097 159.221Z" fill="#AD181B"/>
<path fill-rule="evenodd" clip-rule="evenodd" d="M131.21 131.228L104.097 146.974V149.817L132.522 133.415C132.959 133.197 132.74 132.54 132.522 132.103C132.522 131.666 131.866 131.01 131.21 131.228Z" fill="white"/>
<path fill-rule="evenodd" clip-rule="evenodd" d="M104.972 147.411V148.286L131.866 132.759V132.541C131.866 132.322 131.647 132.322 131.647 132.103L104.972 147.411ZM104.097 150.911C103.878 150.911 103.878 150.911 103.66 150.692C103.441 150.473 103.222 150.254 103.222 150.036V147.193C103.222 146.974 103.441 146.537 103.66 146.537L130.772 130.791C131.866 130.354 132.74 131.01 133.178 132.103C133.615 133.197 133.615 134.071 132.74 134.509L104.097 150.911C104.316 150.911 104.316 150.692 104.097 150.911Z" fill="#AD181B"/>
<path fill-rule="evenodd" clip-rule="evenodd" d="M76.9843 65.6217C76.7657 65.403 76.3284 65.6216 76.1097 65.8403C75.6724 66.2777 75.2351 66.9338 75.2351 67.5899C75.2351 67.8085 75.2351 68.0272 75.4538 68.0272L130.773 99.9559L130.991 96.8942L129.461 96.0194L76.9843 65.6217Z" fill="white"/>
<path fill-rule="evenodd" clip-rule="evenodd" d="M76.1094 67.3712L130.116 98.6437V97.5503L76.3281 66.4964C76.3281 66.7151 76.1094 67.1525 76.1094 67.3712ZM130.991 100.831C130.772 100.831 130.772 100.831 130.554 100.612L75.2348 68.6833C74.7975 68.4646 74.5789 68.0272 74.5789 67.5898C74.5789 66.7151 75.0162 65.6216 75.6721 65.1843C76.3281 64.7469 76.984 64.7469 77.4213 64.9656L131.866 96.2381C132.084 96.4568 132.303 96.6755 132.303 97.1129L132.084 100.175C132.084 100.393 131.866 100.831 131.647 100.831C131.21 100.831 130.991 100.831 130.991 100.831Z" fill="#AD181B"/>
<path fill-rule="evenodd" clip-rule="evenodd" d="M131.428 139.539L104.097 155.284V158.346L132.74 141.725C133.615 141.288 132.303 139.32 131.428 139.539Z" fill="white"/>
<path fill-rule="evenodd" clip-rule="evenodd" d="M104.972 155.94V156.815L132.084 141.07C132.084 140.851 131.866 140.413 131.647 140.413L104.972 155.94ZM104.097 159.221C103.878 159.221 103.878 159.221 103.66 159.002C103.441 158.783 103.222 158.565 103.222 158.346V155.284C103.222 155.066 103.441 154.628 103.66 154.628L130.991 138.883C131.866 138.445 132.74 138.883 133.396 139.976C134.052 141.07 133.834 142.163 133.178 142.6L104.534 159.221C104.316 159.221 104.316 159.221 104.097 159.221Z" fill="#AD181B"/>
<path fill-rule="evenodd" clip-rule="evenodd" d="M105.409 148.942C105.409 149.161 105.19 149.38 104.753 149.598C104.316 149.817 103.441 149.817 102.785 149.38C102.566 149.161 102.566 149.161 102.566 148.942V114.389L105.19 113.733L105.409 148.942Z" fill="white"/>
<path fill-rule="evenodd" clip-rule="evenodd" d="M103.66 148.724C103.878 148.942 104.316 148.942 104.534 148.724V114.827L103.441 115.045V148.724H103.66ZM104.097 150.473C103.441 150.473 103.004 150.254 102.566 150.036C102.129 149.817 101.91 149.38 101.91 148.942V114.389C101.91 113.952 102.129 113.515 102.566 113.515L105.19 112.859C105.409 112.859 105.628 112.859 105.846 113.077C106.065 113.296 106.065 113.515 106.065 113.733V148.942C106.065 149.598 105.627 150.036 104.972 150.254C104.972 150.473 104.534 150.473 104.097 150.473Z" fill="#AD181B"/>
<path fill-rule="evenodd" clip-rule="evenodd" d="M50.3088 81.8046C50.0901 81.5859 49.6528 81.8046 49.4342 82.0233C48.9969 82.4607 48.5596 83.1167 48.5596 83.7728C48.5596 83.9915 48.5596 84.2102 48.7782 84.2102L103.878 116.139V113.077L50.3088 81.8046Z" fill="white"/>
<path fill-rule="evenodd" clip-rule="evenodd" d="M49.434 83.5542L103.222 114.608V113.515L50.09 82.8982C49.6527 82.8982 49.6527 83.3355 49.434 83.5542ZM104.097 117.014C103.878 117.014 103.878 117.014 103.66 116.795L48.5594 84.8664C48.1221 84.6477 47.9035 84.2103 47.9035 83.7729C47.6848 82.8982 48.3408 81.8047 48.9967 81.3673C49.6527 80.93 50.3086 80.93 50.746 81.1487L104.534 112.202C104.753 112.421 104.971 112.64 104.971 112.859V115.92C104.971 116.139 104.753 116.576 104.534 116.576C104.316 117.014 104.316 117.014 104.097 117.014Z" fill="#AD181B"/>
<path fill-rule="evenodd" clip-rule="evenodd" d="M132.959 132.759C132.959 132.978 132.74 133.197 132.303 133.415C131.647 133.634 130.991 133.634 130.335 133.197C130.116 133.197 130.116 132.978 130.116 132.759V100.831L132.959 98.8624V132.759Z" fill="white"/>
<path fill-rule="evenodd" clip-rule="evenodd" d="M130.991 132.541C131.21 132.759 131.647 132.759 131.866 132.541V100.612L130.991 101.268V132.541ZM131.647 134.509C130.991 134.509 130.554 134.29 130.117 134.071C129.679 133.853 129.461 133.415 129.461 132.978V100.831C129.461 100.612 129.679 100.393 129.898 100.175L132.522 98.2064C132.74 97.9877 133.178 97.9877 133.396 98.2064C133.615 98.4251 133.834 98.6438 133.834 99.0812V132.978C133.834 133.634 133.396 134.071 132.74 134.29C132.303 134.29 131.866 134.509 131.647 134.509Z" fill="#AD181B"/>
<path fill-rule="evenodd" clip-rule="evenodd" d="M131.647 96.8941L104.097 112.858V115.701L132.959 99.081C133.396 98.8623 133.178 98.2063 132.959 97.7689C132.74 97.3315 132.084 96.6755 131.647 96.8941Z" fill="white"/>
<path fill-rule="evenodd" clip-rule="evenodd" d="M104.972 113.515V114.389L132.303 98.6438C132.303 98.6438 132.303 98.4251 132.084 98.4251C132.084 98.2065 131.866 98.2065 131.866 97.9878L104.972 113.515ZM104.097 116.795C103.878 116.795 103.878 116.795 103.66 116.576C103.441 116.358 103.222 116.139 103.222 115.92V113.077C103.222 112.859 103.441 112.421 103.66 112.421L131.21 96.4569C132.084 96.0196 133.178 96.6756 133.615 97.7691C134.052 98.8625 134.052 99.7373 133.178 100.175L104.097 116.795C104.097 116.795 104.316 116.795 104.097 116.795Z" fill="#AD181B"/>
<path fill-rule="evenodd" clip-rule="evenodd" d="M45.9356 84.2103C45.717 83.5542 45.2797 83.1169 44.6237 82.8982C44.1864 82.6795 43.7491 82.6795 43.3118 82.6795C43.0932 82.8982 42.8745 83.3355 42.8745 83.7729C42.8745 84.429 43.0932 84.8664 43.3118 85.5224C43.7491 86.1785 44.1864 86.6159 44.6237 86.8346C45.061 87.0532 45.4983 87.0532 45.9356 87.0532C46.1543 86.8346 46.3729 86.3972 46.3729 85.9598C46.3729 85.3037 46.1543 84.8664 45.9356 84.2103Z" fill="#D41E21"/>
<path fill-rule="evenodd" clip-rule="evenodd" d="M43.7492 83.5542C43.7492 83.5542 43.7492 83.7729 43.7492 83.9916C43.7492 84.429 43.9679 84.8663 44.1865 85.3037C44.4052 85.7411 44.8425 86.1785 45.0611 86.3972C45.2798 86.6159 45.4984 86.6159 45.4984 86.6159C45.4984 86.6159 45.4984 86.3972 45.4984 86.1785C45.4984 85.7411 45.2798 85.3037 45.0611 84.8663C44.8425 84.429 44.4052 83.9916 44.1865 83.7729C43.9679 83.5542 43.9679 83.5542 43.7492 83.5542ZM45.4984 88.1467C45.0611 88.1467 44.6238 87.928 44.1865 87.7093C43.5306 87.2719 43.0933 86.8345 42.656 85.9598C42.2187 85.3037 42 84.429 42 83.7729C42 82.8981 42.4373 82.2421 42.8746 81.8047C43.5306 81.3673 44.1865 81.586 45.0611 82.0234C45.7171 82.4608 46.1544 82.8981 46.5917 83.7729C47.029 84.429 47.2476 85.3037 47.2476 85.9598C47.2476 86.8345 46.8103 87.4906 46.373 87.928C46.1544 88.1467 45.7171 88.1467 45.4984 88.1467Z" fill="#AD181B"/>
<path fill-rule="evenodd" clip-rule="evenodd" d="M81.1384 61.9039C80.7011 61.6852 80.2638 61.4666 79.8265 61.6852L43.3118 82.6794C43.5304 82.4607 43.9677 82.4607 44.1864 82.6794C44.405 82.8981 44.8423 82.8981 45.061 83.3355C45.4983 83.7728 45.7169 84.2102 45.9356 84.8663C46.1542 85.3037 46.1542 85.5223 46.1542 85.9597C46.1542 86.3971 46.1542 86.8345 45.7169 87.0532L82.2317 66.059C82.4503 65.8403 82.669 65.6217 82.669 65.403C82.669 65.1843 82.669 65.1843 82.669 64.9656C82.669 64.7469 82.669 64.5282 82.669 64.3095C82.669 63.8721 82.4503 63.4348 82.013 62.9974C82.013 62.56 81.5757 62.1226 81.1384 61.9039Z" fill="#FA2327"/>
<path fill-rule="evenodd" clip-rule="evenodd" d="M45.4982 82.4605L45.7169 82.6792C46.1542 83.1166 46.5915 83.7727 47.0288 84.4287C47.2474 84.6474 47.2474 85.0848 47.2474 85.3035L82.013 65.1841C82.013 64.9654 82.013 64.9654 82.013 64.7467C82.013 64.528 82.013 64.528 82.013 64.3093C82.013 63.872 81.7943 63.6533 81.5757 63.2159C81.357 62.7785 81.1384 62.5598 80.7011 62.3411C80.4824 62.1224 80.2638 62.1224 80.2638 62.1224L45.4982 82.4605ZM45.9355 87.9278C45.7169 87.9278 45.2796 87.7091 45.2796 87.4904C45.0609 87.053 45.0609 86.6156 45.4982 86.397C45.4982 86.397 45.4982 86.1783 45.4982 85.9596C45.4982 85.7409 45.4982 85.5222 45.2796 85.0848C45.0609 84.6474 44.8423 84.2101 44.405 83.9914C44.1863 83.7727 43.9677 83.7727 43.749 83.554C43.5304 83.554 43.5304 83.554 43.5304 83.554C43.0931 83.7727 42.6557 83.554 42.4371 83.1166C42.2184 82.6792 42.4371 82.2419 42.8744 82.0232L79.3892 61.029C79.8265 60.8103 80.4824 60.5916 81.5757 61.2477C82.2316 61.6851 82.6689 62.1224 83.1062 62.7785C83.5435 63.2159 83.5435 63.872 83.7622 64.3093C83.7622 64.528 83.7622 64.7467 83.7622 65.1841C83.7622 65.4028 83.7622 65.6215 83.7622 65.8402C83.5435 66.4962 83.3249 66.9336 82.8876 67.1523L46.3728 88.1465C46.1542 87.9278 46.1542 87.9278 45.9355 87.9278Z" fill="#AD181B"/>
<path fill-rule="evenodd" clip-rule="evenodd" d="M84.8557 71.745L58.8362 86.8345L61.46 88.3653L86.1676 74.1506C86.6049 73.9319 86.3862 73.2758 86.1676 72.8384C85.9489 72.1824 85.293 71.5263 84.8557 71.745Z" fill="white"/>
<path fill-rule="evenodd" clip-rule="evenodd" d="M60.5852 86.8346L61.4598 87.272L85.5115 73.2759V73.0572C85.5115 72.8385 85.2928 72.8385 85.2928 72.6198L60.5852 86.8346ZM61.4598 89.2402C61.2412 89.2402 61.2412 89.2402 61.0225 89.0215L58.3987 87.4907C58.1801 87.272 57.9614 87.0533 57.9614 86.8346C57.9614 86.6159 58.1801 86.1785 58.3987 86.1785L84.4182 71.089C85.2928 70.6516 86.3861 71.3077 86.8234 72.4011C87.2607 73.4945 87.042 74.3693 86.3861 74.8067L61.4598 89.2402C61.4598 89.2402 61.6785 89.2402 61.4598 89.2402Z" fill="#AD181B"/>
<path fill-rule="evenodd" clip-rule="evenodd" d="M78.0774 139.976C78.0774 140.195 75.4536 141.288 75.4536 138.664V133.415L78.0774 134.946V139.976Z" fill="white"/>
<path fill-rule="evenodd" clip-rule="evenodd" d="M76.328 134.946V138.664C76.328 138.883 76.328 139.32 76.5466 139.32C76.7653 139.32 76.9839 139.32 77.2026 139.32V135.384L76.328 134.946ZM76.7653 141.288C75.672 141.288 74.3601 140.632 74.3601 138.664V133.415C74.3601 133.197 74.5788 132.759 74.7974 132.759C75.0161 132.541 75.4534 132.541 75.672 132.759L78.2958 134.29C78.5145 134.509 78.7331 134.728 78.7331 134.946V139.976C78.9518 141.07 77.4212 141.288 76.7653 141.288Z" fill="#AD181B"/>
<path fill-rule="evenodd" clip-rule="evenodd" d="M114.592 40.6911L107.158 36.3173C104.316 35.4426 102.129 35.4426 99.0681 35.8799C90.5407 38.0668 83.9812 44.1901 78.7335 50.9695C72.83 58.8423 68.2383 69.7768 68.2383 79.8365C68.2383 83.1168 68.6756 86.6158 70.2061 89.4588C70.8621 90.9896 71.9554 92.5204 73.0486 93.6139L73.7046 94.27L81.1387 98.6437C80.7014 98.2064 80.2641 97.769 79.8268 97.3316C78.5149 95.8008 77.4216 93.8326 76.7657 91.8644C75.2351 86.8345 75.6724 80.7112 76.7657 75.4627C78.9522 66.4964 83.9812 57.3115 90.3221 50.5321C93.3832 47.4705 95.7883 45.2836 99.5054 43.0967C104.316 40.4724 109.126 38.9416 114.592 40.6911Z" fill="#D41E21"/>
<path fill-rule="evenodd" clip-rule="evenodd" d="M102.566 36.536C101.473 36.536 100.38 36.7547 99.068 36.9734C92.0711 38.7229 85.5116 43.5341 79.1707 51.8443C72.8298 60.5918 68.8941 71.0889 68.8941 80.0552C68.8941 82.4608 69.1127 86.1785 70.6433 89.2401C71.2993 90.7709 72.1739 92.0831 73.2671 93.1765L73.9231 93.8326L77.2028 95.5821C76.5469 94.4887 76.1096 93.3952 75.6723 92.3018C73.7044 86.1785 74.7977 79.1804 75.6723 75.4627C77.8588 66.4964 82.8878 57.0928 89.4473 50.0948C92.7271 46.8144 95.3509 44.6275 98.8493 42.4406C101.91 40.6911 105.628 39.1603 109.782 39.1603C109.782 39.1603 109.782 39.1603 110.001 39.1603L106.502 37.1921C105.19 36.7547 103.878 36.536 102.566 36.536ZM81.1386 99.5185C80.9199 99.5185 80.9199 99.5185 80.7013 99.5185L73.2671 95.1447L72.3925 94.4887C71.0806 93.3952 69.9873 91.8644 69.3314 90.1149C67.8008 86.6158 67.3635 82.6794 67.3635 80.0552C67.3635 70.6515 71.2993 59.7171 78.0774 50.7508C84.637 42.2219 91.4152 37.1921 98.8493 35.2239C101.692 34.7865 104.097 34.5678 107.377 35.6613L115.03 40.0351C115.467 40.2537 115.467 40.6911 115.467 41.1285C115.248 41.5659 114.811 41.7846 114.374 41.5659C108.907 39.8164 104.097 41.5659 99.9426 43.9715C96.6628 45.9397 94.039 48.1265 90.9779 51.4069C84.637 57.9676 79.8267 67.1525 77.8588 75.9001C76.9842 79.3991 75.8909 85.9598 77.8588 91.6457C78.5147 93.6139 79.3894 95.3634 80.7013 96.6755C81.1386 97.1129 81.3572 97.5503 82.0132 97.769C82.2318 97.9877 82.4505 98.6437 82.2318 98.8624C81.5759 99.2998 81.3572 99.5185 81.1386 99.5185Z" fill="#AD181B"/>
<path fill-rule="evenodd" clip-rule="evenodd" d="M99.5056 97.9877C112.625 90.3335 123.339 71.9637 123.339 56.8741C123.339 41.7846 112.625 35.6613 99.5056 43.0967C86.3865 50.7508 75.6726 69.1207 75.6726 84.2102C75.6726 99.5185 86.3865 105.642 99.5056 97.9877Z" fill="#FA2327"/>
<path fill-rule="evenodd" clip-rule="evenodd" d="M110.001 40.9098C106.94 40.9098 103.441 42.0033 99.9428 43.9715C87.0423 51.4069 76.5471 69.5581 76.5471 84.429C76.5471 91.427 78.9522 96.6756 83.1066 99.0811C87.261 101.487 92.9459 100.831 99.0681 97.3316C111.969 89.8962 122.464 71.745 122.464 56.8741C122.464 49.8761 120.059 44.6275 115.904 42.222C114.155 41.3472 112.187 40.9098 110.001 40.9098ZM88.7915 102.143C86.3864 102.143 84.1999 101.487 82.232 100.393C77.4217 97.5503 74.7979 91.8644 74.7979 84.2103C74.7979 68.902 85.7304 50.0948 99.0681 42.222C105.628 38.5042 111.969 37.8482 116.779 40.4725C121.589 43.3154 124.213 49.0013 124.213 56.6554C124.213 71.9637 113.28 90.771 99.9428 98.6438C96.007 101.049 92.29 102.143 88.7915 102.143Z" fill="#AD181B"/>
<path fill-rule="evenodd" clip-rule="evenodd" d="M102.567 49.8761V65.1843L115.904 57.5302V64.7469L110.438 67.8086L102.567 72.401V87.928L96.4445 91.427V75.9001L83.1068 83.7729L82.8882 76.5561L96.4445 68.902V53.3751L102.567 49.8761Z" fill="white"/>
<path fill-rule="evenodd" clip-rule="evenodd" d="M96.444 75.0253C96.6627 75.0253 96.6627 75.0253 96.8813 75.2439C97.1 75.4626 97.3186 75.6813 97.3186 75.9V89.8961L101.91 87.2719V72.401C101.91 72.1823 102.129 71.7449 102.348 71.7449L115.248 64.3095V59.0609L103.222 66.059C103.004 66.2777 102.566 66.2777 102.348 66.059C102.129 65.8403 101.91 65.6216 101.91 65.4029V51.4068L97.3186 54.0311V68.902C97.3186 69.1206 97.1 69.558 96.8813 69.558L83.9809 76.9935V82.242L96.0067 75.2439C96.0067 75.2439 96.2254 75.0253 96.444 75.0253ZM96.444 92.3017C96.2254 92.3017 96.2254 92.3017 96.0067 92.083C95.7881 91.8643 95.5694 91.6456 95.5694 91.427V77.4308L83.5436 84.4289C83.3249 84.6476 82.8876 84.6476 82.669 84.4289C82.4503 84.2102 82.2317 83.9915 82.2317 83.7728V76.5561C82.2317 76.3374 82.4503 75.9 82.669 75.9L95.5694 68.4646V53.5937C95.5694 53.375 95.7881 52.9376 96.0067 52.9376L102.129 49.4386C102.348 49.2199 102.785 49.2199 103.004 49.4386C103.222 49.6573 103.441 49.876 103.441 50.0947V64.0908L115.467 57.0927C115.685 56.874 116.123 56.874 116.341 57.0927C116.56 57.3114 116.779 57.5301 116.779 57.7488V64.9656C116.779 65.1842 116.56 65.6216 116.341 65.6216L103.441 73.0571V87.9279C103.441 88.1466 103.222 88.584 103.004 88.584L96.8813 92.083C96.6627 92.3017 96.444 92.3017 96.444 92.3017Z" fill="#AD181B"/>
<defs>
<filter id="filter0_dd_24025_85400" x="3.87451" y="0.476562" width="178.251" height="203.047" filterUnits="userSpaceOnUse" color-interpolation-filters="sRGB">
<feFlood flood-opacity="0" result="BackgroundImageFix"/>
<feColorMatrix in="SourceAlpha" type="matrix" values="0 0 0 0 0 0 0 0 0 0 0 0 0 0 0 0 0 0 127 0" result="hardAlpha"/>
<feOffset dx="-2.24609" dy="-2.24609"/>
<feGaussianBlur stdDeviation="3.36914"/>
<feColorMatrix type="matrix" values="0 0 0 0 1 0 0 0 0 1 0 0 0 0 1 0 0 0 1 0"/>
<feBlend mode="normal" in2="BackgroundImageFix" result="effect1_dropShadow_24025_85400"/>
<feColorMatrix in="SourceAlpha" type="matrix" values="0 0 0 0 0 0 0 0 0 0 0 0 0 0 0 0 0 0 127 0" result="hardAlpha"/>
<feOffset dx="2.24609" dy="2.24609"/>
<feGaussianBlur stdDeviation="3.36914"/>
<feColorMatrix type="matrix" values="0 0 0 0 0.682353 0 0 0 0 0.682353 0 0 0 0 0.752941 0 0 0 0.4 0"/>
<feBlend mode="normal" in2="effect1_dropShadow_24025_85400" result="effect2_dropShadow_24025_85400"/>
<feBlend mode="normal" in="SourceGraphic" in2="effect2_dropShadow_24025_85400" result="shape"/>
</filter>
</defs>
</svg>
