<svg width="186" height="204" viewBox="0 0 186 204" fill="none" xmlns="http://www.w3.org/2000/svg">
<g filter="url(#filter0_dd_24025_85405)">
<path d="M13.9819 56.3789L93 10.7577L172.018 56.3789V147.621L93 193.242L13.9819 147.621V56.3789Z" stroke="#EC2227" stroke-width="2.24609"/>
</g>
<g clip-path="url(#clip0_24025_85405)">
<path fill-rule="evenodd" clip-rule="evenodd" d="M35.8237 69.2651L78.1821 44.7318L80.8654 46.4568V47.9901L88.1487 52.3984L89.6821 51.4401L92.3654 53.1651V54.6984L99.6487 59.1068L101.182 58.1484L103.865 59.6818V61.4068L111.149 65.6234L112.682 64.8568L115.365 66.3901V68.1151L122.649 72.3318L124.182 71.3734L126.865 73.0984V74.8235L134.149 79.0401L135.682 78.0818L138.365 79.8068V81.3401L145.649 85.7484L147.182 84.7901L150.057 86.3235L149.865 133.665L107.699 158.007L104.824 156.473V154.748L97.5404 150.532L96.0071 151.298L93.3237 149.765V148.232L86.0404 143.823L84.5071 144.782L81.8237 143.057V141.523L74.5404 137.307L73.0071 138.073L70.3237 136.54V134.815L63.0404 130.598L61.5071 131.365L58.8237 129.832V128.107L51.5404 123.89L50.0071 124.657L47.3237 123.123V121.398L39.8487 117.182L38.5071 118.14L35.8237 116.415V69.2651Z" fill="#D41E21"/>
<path fill-rule="evenodd" clip-rule="evenodd" d="M105.781 155.898L107.698 157.048L149.098 133.09V86.8985L147.181 85.7485L146.031 86.3235C145.84 86.5151 145.456 86.5151 145.265 86.3235L137.981 82.1068C137.598 81.9151 137.598 81.7235 137.598 81.3401V80.1901L135.681 79.0401L134.723 79.6151C134.34 79.8068 134.148 79.8068 133.765 79.6151L126.481 75.3985C126.29 75.2068 126.098 75.0151 126.098 74.6318V73.4818L124.181 72.3318L123.031 72.9068C122.84 73.0985 122.456 73.0985 122.265 72.9068L114.981 68.6901C114.598 68.4985 114.598 68.3068 114.598 67.9235V66.7735L112.681 65.6235L111.723 66.1985C111.34 66.3901 111.148 66.3901 110.765 66.1985L103.481 61.9818C103.098 61.7901 103.098 61.5985 103.098 61.2151V60.0651L101.181 58.9151L100.223 59.4901C99.8397 59.6818 99.6481 59.6818 99.2647 59.4901L91.9814 55.2735C91.7897 55.0818 91.5981 54.8901 91.5981 54.5068V53.3568L89.6814 52.2068L88.7231 52.7818C88.3397 52.9735 88.1481 52.9735 87.7647 52.7818L80.4814 48.5651C80.2897 48.3735 80.0981 48.1818 80.0981 47.7985V46.8401L78.3731 45.6901L36.7814 69.6485V115.84L38.5064 116.99L39.4647 116.415C39.8481 116.223 40.0397 116.223 40.4231 116.415L47.7064 120.632C47.8981 120.823 48.0897 121.015 48.0897 121.398V122.548L50.0064 123.698L50.9647 123.123C51.1564 122.932 51.5397 122.932 51.9231 123.123L59.2064 127.34C59.5897 127.532 59.5897 127.723 59.5897 128.107V129.257L61.5064 130.407L62.4647 129.832C62.6564 129.64 63.0397 129.64 63.2314 129.832L70.5147 134.048C70.8981 134.24 70.8981 134.432 70.8981 134.815V135.965L72.8147 137.115L73.7731 136.54C74.1564 136.348 74.3481 136.348 74.7314 136.54L82.0147 140.757C82.2064 140.948 82.3981 141.14 82.3981 141.523V142.673L84.3147 143.823L85.2731 143.248C85.4647 143.057 85.8481 143.057 86.0397 143.248L93.3231 147.465C93.7064 147.657 93.7064 147.848 93.7064 148.232V149.382L95.6231 150.532L96.5814 149.957C96.9647 149.765 97.1564 149.765 97.5397 149.957L104.823 154.173C105.015 154.365 105.206 154.557 105.206 154.94L105.781 155.898ZM107.698 158.965C107.506 158.965 107.506 158.965 107.315 158.965C107.123 158.965 107.123 158.965 106.931 158.773L104.248 157.24C103.865 157.048 103.865 156.857 103.865 156.473V155.323L97.3481 151.49L96.3897 152.065C96.0064 152.257 95.8147 152.257 95.4314 152.065L92.7481 150.532C92.3647 150.34 92.3647 150.148 92.3647 149.765V148.615L85.8481 144.782L84.8897 145.357C84.6981 145.548 84.3147 145.548 83.9314 145.357L81.2481 143.823C81.0564 143.632 80.8647 143.44 80.8647 143.057V141.907L74.3481 138.073L73.3897 138.648C73.0064 138.84 72.8147 138.84 72.4314 138.648L69.7481 137.115C69.3647 136.923 69.3647 136.732 69.3647 136.348V135.39L62.8481 131.557L61.8897 132.132C61.5064 132.323 61.3147 132.323 60.9314 132.132L58.2481 130.598C57.8647 130.407 57.8647 130.215 57.8647 129.832V128.682L51.5397 124.848L50.3897 125.423C50.1981 125.615 49.8147 125.615 49.6231 125.423L46.9397 123.89C46.7481 123.698 46.5564 123.507 46.5564 123.123V121.973L40.0397 118.14L39.0814 118.715C38.8897 118.907 38.5064 118.907 38.1231 118.715L35.4397 117.182C35.0564 116.99 35.0564 116.798 35.0564 116.415V69.2651C35.0564 68.8818 35.2481 68.6901 35.4397 68.4985L77.7981 44.1568C78.1814 43.9651 78.3731 43.9651 78.5647 44.1568L81.2481 45.6901C81.6314 45.8818 81.6314 46.0735 81.6314 46.4568V47.6068L88.1481 51.4401L89.1064 50.8651C89.2981 50.6735 89.6814 50.6735 90.0647 50.8651L92.7481 52.3985C93.1314 52.5901 93.1314 52.7818 93.1314 53.1651V54.3151L99.6481 58.1485L100.606 57.5735C100.99 57.3818 101.181 57.3818 101.565 57.5735L104.248 59.1068C104.631 59.2985 104.631 59.4901 104.631 59.8735V61.0235L111.148 64.8568L112.298 64.2818C112.49 64.0901 112.873 64.0901 113.256 64.2818L115.94 65.8151C116.131 66.0068 116.323 66.1985 116.323 66.5818V67.7318L122.648 71.5651L123.798 70.9901C124.181 70.7985 124.373 70.7985 124.756 70.9901L127.44 72.5235C127.823 72.7151 127.823 72.9068 127.823 73.2901V74.4401L134.34 78.2735L135.298 77.6985C135.681 77.5068 135.873 77.5068 136.256 77.6985L138.94 79.2318C139.131 79.4235 139.323 79.6151 139.323 79.9985V81.1485L145.648 84.9818L146.798 84.4068C147.181 84.2151 147.373 84.2151 147.756 84.4068L150.44 85.9401C150.631 86.1318 150.823 86.3235 150.823 86.7068V133.857C150.823 134.24 150.631 134.432 150.44 134.623L108.081 158.965C107.89 158.965 107.698 158.965 107.698 158.965Z" fill="#AD181B"/>
<path fill-rule="evenodd" clip-rule="evenodd" d="M35.8237 69.2651L119.965 117.757L149.865 100.507L150.057 86.3234L147.182 84.7901L145.649 85.7484L138.365 81.3401V79.8068L135.682 78.0818L134.149 79.0401L126.865 74.8234V73.0984L124.182 71.3734L122.649 72.3318L115.365 68.1151V66.3901L112.682 64.8568L111.149 65.6234L103.865 61.4068V59.6818L101.182 58.1484L99.6487 59.1068L92.3654 54.6984V53.1651L89.6821 51.4401L88.1487 52.3984L80.8654 47.9901V46.4568L78.1821 44.7318L35.8237 69.2651Z" fill="#FA2327"/>
<path fill-rule="evenodd" clip-rule="evenodd" d="M37.5481 69.2651L119.965 116.798L149.098 99.9318V86.8985L147.181 85.7485L146.031 86.3235C145.84 86.5151 145.456 86.5151 145.265 86.3235L137.981 82.1068C137.598 81.9151 137.598 81.7235 137.598 81.3401V80.1901L135.681 79.0401L134.723 79.6151C134.34 79.8068 134.148 79.8068 133.765 79.6151L126.481 75.3985C126.29 75.2068 126.098 75.0151 126.098 74.6318V73.4818L124.181 72.3318L123.031 72.9068C122.84 73.0985 122.456 73.0985 122.265 72.9068L114.981 68.6901C114.598 68.4985 114.598 68.3068 114.598 67.9235V66.7735L112.681 65.6235L111.723 66.1985C111.34 66.3901 111.148 66.3901 110.765 66.1985L103.481 61.9818C103.098 61.7901 103.098 61.5985 103.098 61.2151V60.0651L101.181 58.9151L100.223 59.4901C99.8397 59.6818 99.6481 59.6818 99.2647 59.4901L91.9814 55.2735C91.7897 55.0818 91.5981 54.8901 91.5981 54.5068V53.3568L89.6814 52.2068L88.7231 52.7818C88.3397 52.9735 88.1481 52.9735 87.7647 52.7818L80.4814 48.5651C80.2897 48.3735 80.0981 48.1818 80.0981 47.7985V46.8401L78.3731 45.6901L37.5481 69.2651ZM119.965 118.715C119.773 118.715 119.581 118.715 119.581 118.523L35.4397 70.0318C35.0564 69.8401 35.0564 69.6485 35.0564 69.2651C35.0564 68.8818 35.2481 68.6901 35.4397 68.4985L77.7981 44.1568C78.1814 43.9651 78.3731 43.9651 78.5647 44.1568L81.2481 45.6901C81.6314 45.8818 81.6314 46.0735 81.6314 46.4568V47.6068L88.1481 51.4401L89.1064 50.8651C89.2981 50.6735 89.6814 50.6735 90.0647 50.8651L92.7481 52.3985C93.1314 52.5901 93.1314 52.7818 93.1314 53.1651V54.3151L99.6481 58.1485L100.606 57.5735C100.99 57.3818 101.181 57.3818 101.565 57.5735L104.248 59.1068C104.631 59.2985 104.631 59.4901 104.631 59.8735V61.0235L111.148 64.8568L112.298 64.2818C112.49 64.0901 112.873 64.0901 113.256 64.2818L115.94 65.8151C116.131 66.0068 116.323 66.1985 116.323 66.5818V67.7318L122.648 71.5651L123.798 70.9901C124.181 70.7985 124.373 70.7985 124.756 70.9901L127.44 72.5235C127.823 72.7151 127.823 72.9068 127.823 73.2901V74.4401L134.34 78.2735L135.298 77.6985C135.681 77.5068 135.873 77.5068 136.256 77.6985L138.94 79.2318C139.131 79.4235 139.323 79.6151 139.323 79.9985V81.1485L145.648 84.9818L146.798 84.4068C147.181 84.2151 147.373 84.2151 147.756 84.4068L150.44 85.9401C150.631 86.1318 150.823 86.3235 150.823 86.7068V100.89C150.823 101.273 150.631 101.465 150.44 101.657L120.54 118.907C120.348 118.715 120.156 118.715 119.965 118.715Z" fill="#AD181B"/>
<path fill-rule="evenodd" clip-rule="evenodd" d="M107.699 110.857L150.057 86.3238L149.865 133.665L107.699 158.007V110.857Z" fill="#FA2327"/>
<path fill-rule="evenodd" clip-rule="evenodd" d="M108.465 111.239V156.473L149.098 133.089V87.8561L108.465 111.239ZM107.698 158.964C107.506 158.964 107.315 158.964 107.315 158.773C106.931 158.581 106.931 158.389 106.931 158.006V110.856C106.931 110.473 107.123 110.281 107.315 110.089L149.481 85.5561C149.673 85.3644 150.056 85.3644 150.248 85.5561C150.631 85.7477 150.631 85.9394 150.631 86.3227V133.473C150.631 133.856 150.44 134.048 150.248 134.239L107.89 158.581C107.89 158.964 107.698 158.964 107.698 158.964Z" fill="#AD181B"/>
<path fill-rule="evenodd" clip-rule="evenodd" d="M93.3239 102.616L135.682 78.0826L138.366 79.8076L96.1989 104.149L93.3239 102.616Z" fill="#D41E21"/>
<path fill-rule="evenodd" clip-rule="evenodd" d="M95.0473 102.616L96.0056 103.191L136.639 79.8075L135.681 79.2325L95.0473 102.616ZM96.1973 105.108C96.0056 105.108 95.814 105.108 95.814 104.916L93.1306 103.383C92.939 103.191 92.7473 102.999 92.7473 102.616C92.7473 102.233 92.939 102.041 93.1306 101.849L135.489 77.5075C135.872 77.3158 136.064 77.3158 136.447 77.5075L139.131 79.0408C139.322 79.2325 139.514 79.4242 139.514 79.8075C139.514 80.1908 139.322 80.3825 139.131 80.5742L96.7723 104.916C96.389 104.916 96.1973 105.108 96.1973 105.108Z" fill="#AD181B"/>
<path fill-rule="evenodd" clip-rule="evenodd" d="M93.3239 102.616L96.1988 104.149L96.0072 151.299L93.3239 149.766V102.616Z" fill="#D41E21"/>
<path fill-rule="evenodd" clip-rule="evenodd" d="M94.2814 149.189L95.2397 149.764V104.531L94.2814 103.956V149.189ZM96.0064 152.256C95.8147 152.256 95.6231 152.256 95.6231 152.064L92.9397 150.531C92.5564 150.339 92.5564 150.148 92.5564 149.764V102.614C92.5564 102.231 92.7481 102.039 92.9397 101.848C93.3231 101.656 93.5147 101.656 93.8981 101.848L96.5814 103.381C96.7731 103.573 96.9648 103.764 96.9648 104.148V151.298C96.9648 151.681 96.7731 151.873 96.5814 152.064C96.3897 152.256 96.1981 152.256 96.0064 152.256Z" fill="#AD181B"/>
<path fill-rule="evenodd" clip-rule="evenodd" d="M81.8239 95.9076L124.182 71.3743L126.866 73.0993L84.5072 97.4409L81.8239 95.9076Z" fill="#D41E21"/>
<path fill-rule="evenodd" clip-rule="evenodd" d="M83.5481 95.9076L84.5064 96.4826L125.14 73.0992L124.181 72.5242L83.5481 95.9076ZM84.5064 98.3992C84.3147 98.3992 84.1231 98.3992 84.1231 98.2076L81.4397 96.6742C81.0564 96.4826 81.0564 96.2909 81.0564 95.9076C81.0564 95.5242 81.2481 95.3326 81.4397 95.1409L123.798 70.7992C124.181 70.6076 124.373 70.6076 124.756 70.7992L127.44 72.3326C127.823 72.5242 127.823 72.7159 127.823 73.0992C127.823 73.4826 127.631 73.6742 127.44 73.8659L85.0814 98.2076C84.8897 98.3992 84.6981 98.3992 84.5064 98.3992Z" fill="#AD181B"/>
<path fill-rule="evenodd" clip-rule="evenodd" d="M81.8239 95.9071L84.5072 97.4404V144.782L81.8239 143.057V95.9071Z" fill="#D41E21"/>
<path fill-rule="evenodd" clip-rule="evenodd" d="M82.7821 142.673L83.7405 143.248V98.0144L82.7821 97.4394V142.673ZM84.5071 145.548C84.3155 145.548 84.1238 145.548 83.9321 145.356L81.2488 143.823C80.8655 143.631 80.8655 143.439 80.8655 143.056V95.906C80.8655 95.5227 81.0571 95.331 81.2488 95.1394C81.6321 94.9477 81.8238 94.9477 82.2071 95.1394L84.8905 96.6727C85.2738 96.8644 85.2738 97.056 85.2738 97.4394V144.589C85.2738 144.973 85.0821 145.164 84.8905 145.356C84.8905 145.548 84.6988 145.548 84.5071 145.548Z" fill="#AD181B"/>
<path fill-rule="evenodd" clip-rule="evenodd" d="M70.3239 89.1984L112.682 64.8568L115.366 66.3901L73.0072 90.9234L70.3239 89.1984Z" fill="#D41E21"/>
<path fill-rule="evenodd" clip-rule="evenodd" d="M72.0481 89.1992L73.0064 89.7742L113.64 66.3909L112.681 65.8159L72.0481 89.1992ZM73.0064 91.6909C72.8147 91.6909 72.6231 91.6909 72.6231 91.4992L69.9397 89.9659C69.7481 89.7742 69.5564 89.5825 69.5564 89.1992C69.5564 88.8159 69.7481 88.6242 69.9397 88.4325L112.298 64.0909C112.49 63.8992 112.873 63.8992 113.065 64.0909L115.748 65.6242C115.94 65.8159 116.131 66.0075 116.131 66.3909C116.131 66.7742 115.94 66.9659 115.748 67.1575L73.3897 91.4992C73.3897 91.6909 73.1981 91.6909 73.0064 91.6909Z" fill="#AD181B"/>
<path fill-rule="evenodd" clip-rule="evenodd" d="M70.3239 89.1989L73.0072 90.9239V138.074L70.3239 136.541V89.1989Z" fill="#D41E21"/>
<path fill-rule="evenodd" clip-rule="evenodd" d="M71.0897 135.966L72.0481 136.541V91.3072L71.0897 90.7322V135.966ZM73.0064 139.032C72.8147 139.032 72.6231 139.032 72.6231 138.841L69.9397 137.307C69.5564 137.116 69.5564 136.924 69.5564 136.541V89.3905C69.5564 89.0072 69.7481 88.8155 69.9397 88.6239C70.3231 88.4322 70.5147 88.4322 70.8981 88.6239L73.5814 90.1572C73.7731 90.3489 73.9647 90.5405 73.9647 90.9239V138.074C73.9647 138.457 73.7731 138.649 73.5814 138.841C73.1981 138.841 73.1981 139.032 73.0064 139.032Z" fill="#AD181B"/>
<path fill-rule="evenodd" clip-rule="evenodd" d="M58.8239 82.6819L101.182 58.1485L103.866 59.6819L61.5072 84.2152L58.8239 82.6819Z" fill="#D41E21"/>
<path fill-rule="evenodd" clip-rule="evenodd" d="M60.5481 82.6826L61.5064 83.2576L102.14 59.8742L101.181 59.2992L60.5481 82.6826ZM61.5064 84.9826C61.3147 84.9826 61.1231 84.9826 61.1231 84.7909L58.4397 83.2576C58.0564 83.0659 58.0564 82.8742 58.0564 82.4909C58.0564 82.1076 58.2481 81.9159 58.4397 81.7242L100.798 57.3826C101.181 57.1909 101.373 57.1909 101.756 57.3826L104.44 58.9159C104.823 59.1076 104.823 59.2992 104.823 59.6826C104.823 60.0659 104.631 60.2576 104.44 60.4492L62.0814 84.7909C61.8897 84.9826 61.6981 84.9826 61.5064 84.9826Z" fill="#AD181B"/>
<path fill-rule="evenodd" clip-rule="evenodd" d="M58.8239 82.6814L61.5072 84.2147V131.365L58.8239 129.831V82.6814Z" fill="#D41E21"/>
<path fill-rule="evenodd" clip-rule="evenodd" d="M59.5897 129.257L60.5481 129.832V84.5988L59.5897 84.0238V129.257ZM61.5064 132.324C61.3147 132.324 61.1231 132.324 61.1231 132.132L58.4397 130.599C58.0564 130.407 58.0564 130.216 58.0564 129.832V82.6822C58.0564 82.2988 58.2481 82.1072 58.4397 81.9155C58.8231 81.7238 59.0147 81.7238 59.3981 81.9155L62.0814 83.4488C62.2731 83.6405 62.4647 83.8322 62.4647 84.2155V131.366C62.4647 131.749 62.2731 131.941 62.0814 132.132C61.8897 132.324 61.6981 132.324 61.5064 132.324Z" fill="#AD181B"/>
<path fill-rule="evenodd" clip-rule="evenodd" d="M47.3239 75.9734L89.6822 51.4401L92.3655 53.1651L50.0072 77.5068L47.3239 75.9734Z" fill="#D41E21"/>
<path fill-rule="evenodd" clip-rule="evenodd" d="M49.0481 75.9734L50.0064 76.5484L90.6397 53.1651L89.6814 52.5901L49.0481 75.9734ZM50.0064 78.4651C49.8147 78.4651 49.6231 78.4651 49.6231 78.2734L46.9397 76.7401C46.5564 76.5484 46.5564 76.3568 46.5564 75.9734C46.5564 75.5901 46.7481 75.3984 46.9397 75.2068L89.2981 50.8651C89.4897 50.6734 89.8731 50.6734 90.2564 50.8651L92.9397 52.3984C93.3231 52.5901 93.3231 52.7818 93.3231 53.1651C93.3231 53.5484 93.1314 53.7401 92.9397 53.9318L50.5814 78.2734C50.3897 78.2734 50.1981 78.4651 50.0064 78.4651Z" fill="#AD181B"/>
<path fill-rule="evenodd" clip-rule="evenodd" d="M47.3239 75.9731L50.0072 77.5064V124.656L47.3239 123.123V75.9731Z" fill="#D41E21"/>
<path fill-rule="evenodd" clip-rule="evenodd" d="M48.0897 122.74L49.0481 123.315V78.0821L48.0897 77.5071V122.74ZM50.0064 125.615C49.8147 125.615 49.6231 125.615 49.6231 125.424L46.9397 123.89C46.7481 123.699 46.5564 123.507 46.5564 123.124V75.9738C46.5564 75.5905 46.7481 75.3988 46.9397 75.2071C47.3231 75.0155 47.5147 75.0155 47.8981 75.2071L50.5814 76.7405C50.9647 76.9321 50.9647 77.1238 50.9647 77.5071V124.657C50.9647 125.04 50.7731 125.232 50.5814 125.424C50.3897 125.615 50.1981 125.615 50.0064 125.615Z" fill="#AD181B"/>
<path fill-rule="evenodd" clip-rule="evenodd" d="M105.015 109.133L147.181 84.7909L150.056 86.3242L107.698 110.858L105.015 109.133Z" fill="#D41E21"/>
<path fill-rule="evenodd" clip-rule="evenodd" d="M106.739 109.131L107.697 109.706L148.331 86.3231L147.372 85.7481L106.739 109.131ZM107.697 111.623C107.506 111.623 107.314 111.623 107.314 111.431L104.631 109.898C104.247 109.706 104.247 109.515 104.247 109.131C104.247 108.748 104.439 108.556 104.631 108.365L146.989 84.0231C147.372 83.8314 147.564 83.8314 147.947 84.0231L150.631 85.5565C150.822 85.7481 151.014 85.9398 151.014 86.3231C151.014 86.7065 150.822 86.8981 150.631 87.0898L108.272 111.431C107.889 111.623 107.697 111.623 107.697 111.623Z" fill="#AD181B"/>
<path fill-rule="evenodd" clip-rule="evenodd" d="M105.016 109.131L107.699 110.856V158.006L104.824 156.473L105.016 109.131Z" fill="#D41E21"/>
<path fill-rule="evenodd" clip-rule="evenodd" d="M105.781 155.898L106.739 156.473V111.239L105.781 110.664V155.898ZM107.697 158.964C107.506 158.964 107.314 158.964 107.314 158.773L104.631 157.239C104.247 157.048 104.247 156.856 104.247 156.473V109.323C104.247 108.939 104.439 108.748 104.631 108.556C105.014 108.364 105.206 108.364 105.589 108.556L108.272 110.089C108.656 110.281 108.656 110.473 108.656 110.856V158.006C108.656 158.389 108.464 158.581 108.272 158.773C107.889 158.773 107.697 158.964 107.697 158.964Z" fill="#AD181B"/>
<path fill-rule="evenodd" clip-rule="evenodd" d="M35.8237 69.2651L78.1821 44.7318L80.8654 46.4568L38.5071 70.7984L35.8237 69.2651Z" fill="#D41E21"/>
<path fill-rule="evenodd" clip-rule="evenodd" d="M37.5481 69.2651L38.5064 69.8401L79.1397 46.4568L78.1814 45.8818L37.5481 69.2651ZM38.5064 71.7568C38.3147 71.7568 38.1231 71.7568 38.1231 71.5651L35.4397 70.0318C35.0564 69.8401 35.0564 69.6485 35.0564 69.2651C35.0564 68.8818 35.2481 68.6901 35.4397 68.4985L77.7981 44.1568C78.1814 43.9651 78.3731 43.9651 78.5647 44.1568L81.2481 45.6901C81.6314 45.8818 81.6314 46.0735 81.6314 46.4568C81.6314 46.8401 81.4397 47.0318 81.2481 47.2235L38.8897 71.5651C38.8897 71.7568 38.6981 71.7568 38.5064 71.7568Z" fill="#AD181B"/>
<path fill-rule="evenodd" clip-rule="evenodd" d="M35.8237 69.2647L38.5071 70.7981V118.14L35.8237 116.415V69.2647Z" fill="#D41E21"/>
<path fill-rule="evenodd" clip-rule="evenodd" d="M36.5897 116.032L37.5481 116.607V71.3739L36.5897 70.7989V116.032ZM38.5064 118.907C38.3147 118.907 38.1231 118.907 38.1231 118.716L35.4397 117.182C35.0564 116.991 35.0564 116.799 35.0564 116.416V69.2655C35.0564 68.8822 35.2481 68.6905 35.4397 68.4989C35.8231 68.3072 36.0147 68.3072 36.3981 68.4989L39.0814 70.0322C39.4647 70.2239 39.4647 70.4155 39.4647 70.7989V117.949C39.4647 118.332 39.2731 118.524 39.0814 118.716C38.6981 118.907 38.5064 118.907 38.5064 118.907Z" fill="#AD181B"/>
<path fill-rule="evenodd" clip-rule="evenodd" d="M110.956 112.581L146.606 91.8811V131.939L110.956 152.639V112.581Z" fill="#FA2327"/>
<path fill-rule="evenodd" clip-rule="evenodd" d="M111.724 113.157V151.107L145.84 131.365V93.4152L111.724 113.157ZM110.957 153.407C110.765 153.407 110.574 153.407 110.574 153.215C110.19 153.023 110.19 152.832 110.19 152.448V112.582C110.19 112.199 110.382 112.007 110.574 111.815L146.415 91.1152C146.799 90.9235 146.99 90.9235 147.374 91.1152C147.757 91.3069 147.757 91.4985 147.757 91.8819V131.94C147.757 132.324 147.565 132.515 147.374 132.707L111.532 153.407C111.149 153.407 110.957 153.407 110.957 153.407Z" fill="#AD181B"/>
<path fill-rule="evenodd" clip-rule="evenodd" d="M132.231 107.789C131.848 107.789 131.656 107.598 131.465 107.406C131.273 107.023 131.465 106.448 131.848 106.256L142.39 100.123C142.773 99.9311 143.348 99.9311 143.54 100.506C143.731 100.889 143.54 101.464 143.156 101.656L132.615 107.789C132.615 107.789 132.423 107.789 132.231 107.789Z" fill="#AD181B"/>
<path fill-rule="evenodd" clip-rule="evenodd" d="M132.231 135.774C131.848 135.774 131.656 135.582 131.465 135.391C131.273 135.007 131.465 134.432 131.848 134.241L142.39 128.107C142.773 127.916 143.348 127.916 143.54 128.491C143.731 128.874 143.54 129.449 143.156 129.641L132.615 135.774C132.615 135.582 132.423 135.774 132.231 135.774Z" fill="#AD181B"/>
<path fill-rule="evenodd" clip-rule="evenodd" d="M132.231 128.682C131.848 128.682 131.656 128.49 131.465 128.299C131.273 127.915 131.465 127.34 131.848 127.149L142.39 121.015C142.773 120.824 143.348 120.824 143.54 121.399C143.731 121.782 143.54 122.357 143.156 122.549L132.615 128.682C132.615 128.682 132.423 128.682 132.231 128.682Z" fill="#AD181B"/>
<path fill-rule="evenodd" clip-rule="evenodd" d="M132.231 121.783C131.848 121.783 131.656 121.591 131.465 121.399C131.273 121.016 131.465 120.441 131.848 120.249L142.39 114.116C142.773 113.924 143.348 113.924 143.54 114.499C143.731 114.883 143.54 115.458 143.156 115.649L132.615 121.783C132.615 121.783 132.423 121.783 132.231 121.783Z" fill="#AD181B"/>
<path fill-rule="evenodd" clip-rule="evenodd" d="M132.231 114.691C131.848 114.691 131.656 114.499 131.465 114.307C131.273 113.924 131.465 113.349 131.848 113.157L142.39 107.024C142.773 106.832 143.348 106.832 143.54 107.407C143.731 107.791 143.54 108.366 143.156 108.557L132.615 114.691C132.615 114.691 132.423 114.691 132.231 114.691Z" fill="#AD181B"/>
<path fill-rule="evenodd" clip-rule="evenodd" d="M114.598 117.949C114.214 117.949 114.023 117.757 113.831 117.565C113.639 117.182 113.831 116.607 114.214 116.415L125.523 109.899C125.906 109.707 126.481 109.899 126.673 110.282C126.864 110.665 126.864 111.24 126.289 111.432L114.981 117.949C114.789 117.949 114.789 117.949 114.598 117.949Z" fill="#AD181B"/>
<path fill-rule="evenodd" clip-rule="evenodd" d="M114.598 145.741C114.214 145.741 114.023 145.549 113.831 145.357C113.639 144.974 113.831 144.399 114.214 144.207L125.523 137.691C125.906 137.499 126.481 137.499 126.673 138.074C126.864 138.457 126.864 139.032 126.289 139.224L114.981 145.741C114.789 145.741 114.789 145.741 114.598 145.741Z" fill="#AD181B"/>
<path fill-rule="evenodd" clip-rule="evenodd" d="M114.598 124.848C114.214 124.848 114.023 124.656 113.831 124.465C113.639 124.081 113.831 123.506 114.214 123.315L125.523 116.798C125.906 116.606 126.481 116.798 126.673 117.181C126.864 117.565 126.864 118.14 126.289 118.331L114.981 124.848C114.789 124.848 114.789 124.848 114.598 124.848Z" fill="#AD181B"/>
<path fill-rule="evenodd" clip-rule="evenodd" d="M114.598 138.839C114.214 138.839 114.023 138.648 113.831 138.456C113.639 138.073 113.831 137.498 114.214 137.306L125.523 130.789C125.906 130.598 126.481 130.789 126.673 131.173C126.864 131.556 126.864 132.131 126.289 132.323L114.981 138.839C114.789 138.839 114.789 138.839 114.598 138.839Z" fill="#AD181B"/>
<path fill-rule="evenodd" clip-rule="evenodd" d="M114.598 131.94C114.214 131.94 114.023 131.749 113.831 131.557C113.639 131.174 113.831 130.599 114.214 130.407L125.523 123.89C125.906 123.699 126.481 123.699 126.673 124.274C126.864 124.657 126.864 125.232 126.289 125.424L114.981 131.94C114.789 131.749 114.789 131.94 114.598 131.94Z" fill="#AD181B"/>
<path fill-rule="evenodd" clip-rule="evenodd" d="M128.782 143.057C128.207 143.057 127.824 142.673 127.824 142.098V102.232C127.824 101.657 128.207 101.273 128.782 101.273C129.166 101.273 129.741 101.657 129.741 102.232V142.098C129.741 142.673 129.357 143.057 128.782 143.057Z" fill="#AD181B"/>
</g>
<defs>
<filter id="filter0_dd_24025_85405" x="3.87451" y="0.476562" width="178.251" height="203.047" filterUnits="userSpaceOnUse" color-interpolation-filters="sRGB">
<feFlood flood-opacity="0" result="BackgroundImageFix"/>
<feColorMatrix in="SourceAlpha" type="matrix" values="0 0 0 0 0 0 0 0 0 0 0 0 0 0 0 0 0 0 127 0" result="hardAlpha"/>
<feOffset dx="-2.24609" dy="-2.24609"/>
<feGaussianBlur stdDeviation="3.36914"/>
<feColorMatrix type="matrix" values="0 0 0 0 1 0 0 0 0 1 0 0 0 0 1 0 0 0 1 0"/>
<feBlend mode="normal" in2="BackgroundImageFix" result="effect1_dropShadow_24025_85405"/>
<feColorMatrix in="SourceAlpha" type="matrix" values="0 0 0 0 0 0 0 0 0 0 0 0 0 0 0 0 0 0 127 0" result="hardAlpha"/>
<feOffset dx="2.24609" dy="2.24609"/>
<feGaussianBlur stdDeviation="3.36914"/>
<feColorMatrix type="matrix" values="0 0 0 0 0.682353 0 0 0 0 0.682353 0 0 0 0 0.752941 0 0 0 0.4 0"/>
<feBlend mode="normal" in2="effect1_dropShadow_24025_85405" result="effect2_dropShadow_24025_85405"/>
<feBlend mode="normal" in="SourceGraphic" in2="effect2_dropShadow_24025_85405" result="shape"/>
</filter>
<clipPath id="clip0_24025_85405">
<rect width="115.958" height="115" fill="white" transform="translate(35 44)"/>
</clipPath>
</defs>
</svg>
