<svg width="842" height="904" viewBox="0 0 842 904" fill="none" xmlns="http://www.w3.org/2000/svg">
<g filter="url(#filter0_dd_3122_169)">
<path d="M69.1975 248.887L421 45.7735L772.802 248.887V655.113L421 858.227L69.1975 655.113V248.887Z" stroke="#EC2227" stroke-width="10"/>
</g>
<path d="M421.5 475.496H421.508C442.749 475.473 463.114 467.024 478.134 452.005C493.154 436.985 501.602 416.62 501.625 395.379V395.371C501.625 379.524 496.926 364.032 488.122 350.856C479.317 337.68 466.804 327.41 452.163 321.345C437.522 315.281 421.411 313.694 405.869 316.786C390.326 319.877 376.049 327.508 364.843 338.714C353.638 349.92 346.006 364.197 342.915 379.739C339.823 395.282 341.41 411.393 347.474 426.034C353.539 440.674 363.809 453.188 376.985 461.993C390.162 470.797 405.653 475.496 421.5 475.496ZM421.5 713.876C420.726 712.989 419.871 712.006 418.941 710.93C413.985 705.194 406.891 696.824 398.373 686.319C381.331 665.3 358.618 635.772 335.918 601.722C313.206 567.655 290.59 529.183 273.672 490.27C256.722 451.286 245.688 412.303 245.688 377.09C245.688 290.808 323.731 219.559 421.5 219.559C519.27 219.559 597.313 290.808 597.313 377.09C597.313 412.303 586.278 451.286 569.329 490.27C552.41 529.183 529.794 567.655 507.082 601.722C484.383 635.772 461.67 665.3 444.627 686.319C436.109 696.824 429.016 705.194 424.059 710.93C423.129 712.006 422.275 712.989 421.5 713.876Z" fill="#EC2227" stroke="#AD181B" stroke-width="14"/>
<defs>
<filter id="filter0_dd_3122_169" x="24.1975" y="0" width="793.605" height="904" filterUnits="userSpaceOnUse" color-interpolation-filters="sRGB">
<feFlood flood-opacity="0" result="BackgroundImageFix"/>
<feColorMatrix in="SourceAlpha" type="matrix" values="0 0 0 0 0 0 0 0 0 0 0 0 0 0 0 0 0 0 127 0" result="hardAlpha"/>
<feOffset dx="-10" dy="-10"/>
<feGaussianBlur stdDeviation="15"/>
<feColorMatrix type="matrix" values="0 0 0 0 1 0 0 0 0 1 0 0 0 0 1 0 0 0 1 0"/>
<feBlend mode="normal" in2="BackgroundImageFix" result="effect1_dropShadow_3122_169"/>
<feColorMatrix in="SourceAlpha" type="matrix" values="0 0 0 0 0 0 0 0 0 0 0 0 0 0 0 0 0 0 127 0" result="hardAlpha"/>
<feOffset dx="10" dy="10"/>
<feGaussianBlur stdDeviation="15"/>
<feColorMatrix type="matrix" values="0 0 0 0 0.682353 0 0 0 0 0.682353 0 0 0 0 0.752941 0 0 0 0.4 0"/>
<feBlend mode="normal" in2="effect1_dropShadow_3122_169" result="effect2_dropShadow_3122_169"/>
<feBlend mode="normal" in="SourceGraphic" in2="effect2_dropShadow_3122_169" result="shape"/>
</filter>
</defs>
</svg>
