<svg width="186" height="204" viewBox="0 0 186 204" fill="none" xmlns="http://www.w3.org/2000/svg">
<g filter="url(#filter0_dd_24068_83910)">
<path d="M13.9819 56.3789L93 10.7577L172.018 56.3789V147.621L93 193.242L13.9819 147.621V56.3789Z" stroke="#EC2227" stroke-width="2.24609"/>
</g>
<path d="M107.875 127.607H124.945C137.299 127.607 147.406 121.046 147.406 108.829C147.406 96.6128 135.502 90.5304 125.844 90.052C123.847 70.9467 109.896 59.3254 93.5 59.3254C78.002 59.3254 68.0203 69.6103 64.75 79.8098C51.2734 81.0901 39.5938 89.6657 39.5938 103.708C39.5938 117.751 51.7227 127.607 66.5469 127.607H79.125" stroke="#92949C" stroke-width="5.32029" stroke-linecap="round" stroke-linejoin="round"/>
<path d="M107.875 102.468L93.5001 88.0927L79.1251 102.468M93.5001 145.687V91.6865" stroke="#FA2327" stroke-width="5.32029" stroke-linecap="round" stroke-linejoin="round"/>
<defs>
<filter id="filter0_dd_24068_83910" x="3.87439" y="0.476562" width="178.251" height="203.047" filterUnits="userSpaceOnUse" color-interpolation-filters="sRGB">
<feFlood flood-opacity="0" result="BackgroundImageFix"/>
<feColorMatrix in="SourceAlpha" type="matrix" values="0 0 0 0 0 0 0 0 0 0 0 0 0 0 0 0 0 0 127 0" result="hardAlpha"/>
<feOffset dx="-2.24609" dy="-2.24609"/>
<feGaussianBlur stdDeviation="3.36914"/>
<feColorMatrix type="matrix" values="0 0 0 0 1 0 0 0 0 1 0 0 0 0 1 0 0 0 1 0"/>
<feBlend mode="normal" in2="BackgroundImageFix" result="effect1_dropShadow_24068_83910"/>
<feColorMatrix in="SourceAlpha" type="matrix" values="0 0 0 0 0 0 0 0 0 0 0 0 0 0 0 0 0 0 127 0" result="hardAlpha"/>
<feOffset dx="2.24609" dy="2.24609"/>
<feGaussianBlur stdDeviation="3.36914"/>
<feColorMatrix type="matrix" values="0 0 0 0 0.682353 0 0 0 0 0.682353 0 0 0 0 0.752941 0 0 0 0.4 0"/>
<feBlend mode="normal" in2="effect1_dropShadow_24068_83910" result="effect2_dropShadow_24068_83910"/>
<feBlend mode="normal" in="SourceGraphic" in2="effect2_dropShadow_24068_83910" result="shape"/>
</filter>
</defs>
</svg>
