<svg width="186" height="204" viewBox="0 0 186 204" fill="none" xmlns="http://www.w3.org/2000/svg">
<g filter="url(#filter0_dd_35699_65719)">
<path d="M13.9819 56.3789L93 10.7577L172.018 56.3789V147.621L93 193.242L13.9819 147.621V56.3789Z" stroke="#EC2227" stroke-width="2.24609"/>
</g>
<path d="M145.626 102.49C145.626 73.7129 122.278 50.3652 93.501 50.3652C64.7236 50.3652 41.376 73.7129 41.376 102.49C41.376 131.268 64.7236 154.615 93.501 154.615C122.278 154.615 145.626 131.268 145.626 102.49Z" stroke="#92949C" stroke-width="6.4306" stroke-miterlimit="10"/>
<path d="M119.839 75.5545L119.839 75.5544C119.922 75.5211 120.013 75.513 120.101 75.531C120.188 75.5489 120.269 75.5922 120.332 75.6555L121.545 74.4428L120.332 75.6555C120.395 75.7187 120.439 75.7991 120.457 75.8867C120.475 75.9743 120.466 76.0653 120.433 76.1483L120.433 76.1487L107.706 107.967L107.706 107.967C106.918 109.936 105.739 111.725 104.239 113.225C102.739 114.725 100.95 115.905 98.9802 116.692L98.9801 116.692L67.1621 129.42L67.1617 129.42C67.0787 129.453 66.9877 129.461 66.9001 129.443C66.8125 129.425 66.7321 129.382 66.6689 129.319L65.4562 130.531L66.6689 129.319C66.6056 129.255 66.5624 129.175 66.5444 129.087C66.5264 129 66.5346 128.909 66.5678 128.826L66.5679 128.825L79.2951 97.0074L79.2952 97.0073C80.0828 95.0378 81.2624 93.2488 82.7623 91.7489C84.2622 90.2489 86.0512 89.0694 88.0207 88.2817L88.0209 88.2817L119.839 75.5545ZM88.9278 109.331C90.2813 110.235 91.8726 110.718 93.5005 110.718C95.6834 110.718 97.7769 109.85 99.3204 108.307C100.864 106.763 101.731 104.67 101.731 102.487C101.731 100.859 101.248 99.2679 100.344 97.9143C99.4396 96.5608 98.1541 95.5059 96.6502 94.8829C95.1462 94.26 93.4913 94.097 91.8947 94.4146C90.2982 94.7321 88.8316 95.516 87.6805 96.6671C86.5295 97.8182 85.7456 99.2847 85.428 100.881C85.1104 102.478 85.2734 104.133 85.8964 105.637C86.5193 107.141 87.5743 108.426 88.9278 109.331Z" fill="#EC2227" stroke="#EC2227" stroke-width="3.43"/>
<defs>
<filter id="filter0_dd_35699_65719" x="3.87451" y="0.476562" width="178.251" height="203.047" filterUnits="userSpaceOnUse" color-interpolation-filters="sRGB">
<feFlood flood-opacity="0" result="BackgroundImageFix"/>
<feColorMatrix in="SourceAlpha" type="matrix" values="0 0 0 0 0 0 0 0 0 0 0 0 0 0 0 0 0 0 127 0" result="hardAlpha"/>
<feOffset dx="-2.24609" dy="-2.24609"/>
<feGaussianBlur stdDeviation="3.36914"/>
<feColorMatrix type="matrix" values="0 0 0 0 1 0 0 0 0 1 0 0 0 0 1 0 0 0 1 0"/>
<feBlend mode="normal" in2="BackgroundImageFix" result="effect1_dropShadow_35699_65719"/>
<feColorMatrix in="SourceAlpha" type="matrix" values="0 0 0 0 0 0 0 0 0 0 0 0 0 0 0 0 0 0 127 0" result="hardAlpha"/>
<feOffset dx="2.24609" dy="2.24609"/>
<feGaussianBlur stdDeviation="3.36914"/>
<feColorMatrix type="matrix" values="0 0 0 0 0.682353 0 0 0 0 0.682353 0 0 0 0 0.752941 0 0 0 0.4 0"/>
<feBlend mode="normal" in2="effect1_dropShadow_35699_65719" result="effect2_dropShadow_35699_65719"/>
<feBlend mode="normal" in="SourceGraphic" in2="effect2_dropShadow_35699_65719" result="shape"/>
</filter>
</defs>
</svg>
