<svg width="230" height="230" viewBox="0 0 230 230" fill="none" xmlns="http://www.w3.org/2000/svg">
<g filter="url(#filter0_dd_35699_66390)">
<path d="M35.9819 69.3789L115 23.7577L194.018 69.3789V160.621L115 206.242L35.9819 160.621V69.3789Z" stroke="#EC2227" stroke-width="2.24609"/>
</g>
<path d="M167.626 115.49C167.626 86.7129 144.278 63.3652 115.501 63.3652C86.7236 63.3652 63.376 86.7129 63.376 115.49C63.376 144.268 86.7236 167.615 115.501 167.615C144.278 167.615 167.626 144.268 167.626 115.49Z" stroke="#92949C" stroke-width="6.4306" stroke-miterlimit="10"/>
<path d="M110.02 101.283L110.021 101.283L141.839 88.5555L141.202 86.9631L141.839 88.5553C141.922 88.5221 142.013 88.514 142.101 88.5319C142.188 88.5499 142.269 88.5932 142.332 88.6564C142.395 88.7197 142.438 88.8001 142.456 88.8877C142.474 88.9753 142.466 89.0663 142.433 89.1493L142.433 89.1497L129.706 120.968L129.706 120.968C128.918 122.937 127.738 124.726 126.238 126.226C124.738 127.726 122.949 128.906 120.98 129.693L120.98 129.693L89.1619 142.421L89.1615 142.421C89.0785 142.454 88.9875 142.462 88.8999 142.444C88.8123 142.426 88.7319 142.383 88.6686 142.32C88.6054 142.256 88.5621 142.176 88.5441 142.088C88.5262 142.001 88.5343 141.91 88.5675 141.827L88.5677 141.826L101.295 110.008L101.295 110.008C102.083 108.039 103.262 106.25 104.762 104.75C106.262 103.25 108.051 102.07 110.02 101.283ZM110.928 122.332C112.281 123.236 113.872 123.719 115.5 123.719C117.683 123.719 119.777 122.851 121.32 121.308C122.864 119.764 123.731 117.671 123.731 115.488C123.731 113.86 123.248 112.269 122.344 110.915C121.439 109.562 120.154 108.507 118.65 107.884C117.146 107.261 115.491 107.098 113.895 107.416C112.298 107.733 110.831 108.517 109.68 109.668C108.529 110.819 107.745 112.286 107.428 113.882C107.11 115.479 107.273 117.134 107.896 118.638C108.519 120.142 109.574 121.427 110.928 122.332Z" fill="#EC2227" stroke="#EC2227" stroke-width="3.43"/>
<defs>
<filter id="filter0_dd_35699_66390" x="25.8745" y="13.4766" width="178.251" height="203.047" filterUnits="userSpaceOnUse" color-interpolation-filters="sRGB">
<feFlood flood-opacity="0" result="BackgroundImageFix"/>
<feColorMatrix in="SourceAlpha" type="matrix" values="0 0 0 0 0 0 0 0 0 0 0 0 0 0 0 0 0 0 127 0" result="hardAlpha"/>
<feOffset dx="-2.24609" dy="-2.24609"/>
<feGaussianBlur stdDeviation="3.36914"/>
<feColorMatrix type="matrix" values="0 0 0 0 1 0 0 0 0 1 0 0 0 0 1 0 0 0 1 0"/>
<feBlend mode="normal" in2="BackgroundImageFix" result="effect1_dropShadow_35699_66390"/>
<feColorMatrix in="SourceAlpha" type="matrix" values="0 0 0 0 0 0 0 0 0 0 0 0 0 0 0 0 0 0 127 0" result="hardAlpha"/>
<feOffset dx="2.24609" dy="2.24609"/>
<feGaussianBlur stdDeviation="3.36914"/>
<feColorMatrix type="matrix" values="0 0 0 0 0.682353 0 0 0 0 0.682353 0 0 0 0 0.752941 0 0 0 0.4 0"/>
<feBlend mode="normal" in2="effect1_dropShadow_35699_66390" result="effect2_dropShadow_35699_66390"/>
<feBlend mode="normal" in="SourceGraphic" in2="effect2_dropShadow_35699_66390" result="shape"/>
</filter>
</defs>
</svg>
