<svg width="186" height="204" viewBox="0 0 186 204" fill="none" xmlns="http://www.w3.org/2000/svg">
<g filter="url(#filter0_dd_24025_85406)">
<path d="M13.9819 56.3789L93 10.7577L172.018 56.3789V147.621L93 193.242L13.9819 147.621V56.3789Z" stroke="#EC2227" stroke-width="2.24609"/>
</g>
<path fill-rule="evenodd" clip-rule="evenodd" d="M139.202 56.1349V139.144L103.946 132.802V49.7926L139.202 56.1349Z" fill="#FA2327"/>
<path fill-rule="evenodd" clip-rule="evenodd" d="M104.879 132.242L138.642 138.212V56.6945L104.879 50.7253V132.242ZM139.202 139.89L103.759 133.735C103.386 133.735 103.2 133.362 103.2 132.989V49.7926C103.2 49.6061 103.2 49.4196 103.386 49.233C103.573 49.0465 103.759 49.0465 103.946 49.0465L139.202 55.2022C139.575 55.2022 139.948 55.5753 139.948 55.9484V138.958C139.948 139.144 139.761 139.331 139.575 139.517C139.575 139.89 139.388 139.89 139.202 139.89Z" fill="#AD181B"/>
<path fill-rule="evenodd" clip-rule="evenodd" d="M103.946 49.7926V132.802L84.7327 154.067V71.2445L103.946 49.7926Z" fill="#FA2327"/>
<path fill-rule="evenodd" clip-rule="evenodd" d="M85.4789 71.431V152.015L103.2 132.429V51.8446L85.4789 71.431ZM84.7327 155C84.7327 155 84.5462 155 84.3597 155C83.9866 154.813 83.8 154.627 83.8 154.254V71.2445C83.8 71.058 83.8 70.8714 83.9866 70.6849L103.387 49.4196C103.573 49.233 103.946 49.0465 104.319 49.233C104.692 49.4196 104.879 49.6061 104.879 49.9792V132.802C104.879 132.989 104.879 133.175 104.692 133.362L85.2924 154.627C85.1058 154.813 84.9193 155 84.7327 155Z" fill="#AD181B"/>
<path d="M84.7326 71.058H45.7462V154.067H84.7326V71.058Z" fill="#FA2327"/>
<path fill-rule="evenodd" clip-rule="evenodd" d="M46.4923 153.321H83.7999V71.9906H46.4923V153.321V153.321ZM84.7326 155H45.7462C45.3731 155 45 154.627 45 154.254V71.2445C45 70.8714 45.3731 70.4983 45.7462 70.4983H84.7326C85.1056 70.4983 85.4787 70.8714 85.4787 71.2445V154.254C85.4787 154.627 85.1056 155 84.7326 155Z" fill="#AD181B"/>
<path fill-rule="evenodd" clip-rule="evenodd" d="M140.134 50.7253V133.735L139.202 139.144V56.1349L140.134 50.7253Z" fill="white"/>
<path fill-rule="evenodd" clip-rule="evenodd" d="M139.202 139.89C138.642 139.89 138.455 139.517 138.455 139.144V56.1349L139.388 50.5388C139.388 50.1657 139.761 49.7926 140.321 49.7926C140.694 49.7926 141.067 50.1657 141.067 50.5388V133.548L140.134 139.144C139.948 139.704 139.575 139.89 139.202 139.89Z" fill="#AD181B"/>
<path fill-rule="evenodd" clip-rule="evenodd" d="M139.202 56.1349L103.946 49.7926L84.7326 71.2445H45.7462V65.6484H81.5615L101.148 43.8234L140.134 50.7253L139.202 56.1349Z" fill="#FA2327"/>
<path fill-rule="evenodd" clip-rule="evenodd" d="M46.4923 70.3118H84.3595L103.386 49.233C103.573 49.0465 103.759 48.8599 104.133 49.0465L138.642 55.2022L139.388 51.4715L101.521 44.7561L82.121 66.208C81.9345 66.3945 81.748 66.3945 81.5614 66.3945H46.4923V70.3118ZM84.7326 71.9906H45.7462C45.3731 71.9906 45 71.6176 45 71.2445V65.6484C45 65.2753 45.3731 64.9022 45.7462 64.9022H81.1883L100.588 43.2638C100.775 43.0773 100.961 42.8907 101.334 43.0773L140.321 49.9792C140.694 49.9792 141.067 50.5388 140.88 50.9119L139.948 56.3215C139.948 56.508 139.761 56.6945 139.575 56.8811C139.388 57.0676 139.202 57.0676 139.015 57.0676L104.319 50.7253L85.2922 71.6176C85.1056 71.8041 84.9191 71.9906 84.7326 71.9906Z" fill="#AD181B"/>
<path fill-rule="evenodd" clip-rule="evenodd" d="M139.202 116.573V123.102L125.584 120.677V136.719L119.429 135.6V119.558L103.946 116.76V110.417L119.429 113.029V85.0483L103.946 82.2502V75.7214L119.429 78.5195V52.5907L125.584 53.7099V79.6387L139.202 82.0637V88.5925L125.584 86.1675V114.148L139.202 116.573Z" fill="white"/>
<path fill-rule="evenodd" clip-rule="evenodd" d="M120.361 135.04L125.025 135.787V120.677C125.025 120.49 125.025 120.304 125.211 120.117C125.398 119.931 125.584 119.931 125.771 119.931L138.455 122.169V117.319L125.398 115.081C125.025 115.081 124.838 114.708 124.838 114.335V86.1675C124.838 85.981 124.838 85.7944 125.025 85.6079C125.211 85.4214 125.398 85.4214 125.584 85.4214L138.269 87.6598V82.8098L125.211 80.5714C124.838 80.5714 124.652 80.1983 124.652 79.8252V54.2695L119.988 53.5234V78.5195C119.988 78.706 119.802 78.8925 119.615 79.0791C119.429 79.2656 119.242 79.2656 119.056 79.2656L104.506 76.6541V81.5041L119.242 84.1156C119.615 84.1156 119.802 84.4887 119.802 84.8618V112.842C119.802 113.029 119.615 113.216 119.429 113.402C119.242 113.589 119.056 113.589 118.869 113.589L104.319 110.977V115.827L119.056 118.439C119.429 118.439 119.615 118.812 119.615 119.185V135.04H120.361ZM125.584 137.465L119.242 136.346C118.869 136.346 118.496 135.973 118.496 135.6V120.304L103.759 117.692C103.386 117.692 103.2 117.319 103.2 116.946V110.417C103.2 110.231 103.2 110.044 103.386 109.858C103.573 109.671 103.759 109.671 103.946 109.671L118.496 112.283V85.6079L103.759 82.9964C103.386 82.9964 103.2 82.6233 103.2 82.2502V75.7214C103.2 75.5349 103.2 75.3483 103.386 75.1618C103.573 74.9752 103.759 74.9752 103.946 74.9752L118.496 77.5868V52.5907C118.496 52.4042 118.682 52.2176 118.869 52.0311C119.056 51.8445 119.242 51.8445 119.615 51.8445L125.771 52.9638C126.144 52.9638 126.517 53.3368 126.517 53.7099V78.8925L139.575 81.131C139.948 81.131 140.321 81.5041 140.321 81.8771V88.406C140.321 88.5925 140.134 88.779 139.948 88.9656C139.761 89.1521 139.575 89.1521 139.388 89.1521L126.704 86.9137V113.402L139.761 115.641C140.134 115.641 140.507 116.014 140.507 116.387V122.915C140.507 123.102 140.321 123.289 140.134 123.475C139.948 123.662 139.761 123.662 139.575 123.662L126.89 121.423V136.533C126.89 136.719 126.704 136.906 126.517 137.092C125.957 137.465 125.771 137.465 125.584 137.465Z" fill="#AD181B"/>
<path d="M84.7326 131.683H45.7462V138.212H84.7326V131.683Z" fill="white"/>
<path fill-rule="evenodd" clip-rule="evenodd" d="M46.4923 137.279H83.7999V132.429H46.4923V137.279V137.279ZM84.7326 138.958H45.7462C45.3731 138.958 45 138.585 45 138.212V131.683C45 131.31 45.3731 130.937 45.7462 130.937H84.7326C85.1056 130.937 85.4787 131.31 85.4787 131.683V138.212C85.4787 138.585 85.1056 138.958 84.7326 138.958Z" fill="#AD181B"/>
<path fill-rule="evenodd" clip-rule="evenodd" d="M103.946 75.7214V82.2502L84.7327 103.516V96.9867L94.4326 86.354V60.4253L98.723 55.5753V81.5041L103.946 75.7214Z" fill="white"/>
<path fill-rule="evenodd" clip-rule="evenodd" d="M85.4789 97.3598V101.464L103.2 81.8771V77.7733L99.2827 82.0637C99.0962 82.2502 98.7231 82.4368 98.35 82.2502C97.9769 82.0637 97.7904 81.8771 97.7904 81.5041V57.6272L94.9923 60.7984V86.3541C94.9923 86.5406 94.9923 86.7271 94.8058 86.9137L85.4789 97.3598ZM84.7327 104.448C84.7327 104.448 84.5462 104.448 84.3597 104.448C83.9866 104.262 83.8 104.075 83.8 103.702V97.1733C83.8 96.9867 83.8 96.8002 83.9866 96.6136L93.5 86.1675V60.4253C93.5 60.2388 93.5 60.0522 93.6866 59.8657L98.1635 55.0157C98.35 54.8292 98.7231 54.6426 99.0962 54.8292C99.4692 55.0157 99.6558 55.2022 99.6558 55.5753V79.4522L103.573 75.1618C103.76 74.9752 104.133 74.7887 104.506 74.9752C104.879 75.1618 105.065 75.3483 105.065 75.7214V82.2502C105.065 82.4368 105.065 82.6233 104.879 82.8098L85.4789 104.075C85.1058 104.262 84.9193 104.448 84.7327 104.448Z" fill="#AD181B"/>
<path fill-rule="evenodd" clip-rule="evenodd" d="M84.7326 96.9867V103.516H66.4519V118.252H84.7326V123.848H62.5346V103.516H45.7462V96.9867H62.5346V71.2445H66.4519V96.9867H84.7326Z" fill="white"/>
<path fill-rule="evenodd" clip-rule="evenodd" d="M63.2807 122.915H83.7999V118.998H66.4519C66.0788 118.998 65.7057 118.625 65.7057 118.252V103.516C65.7057 103.142 66.0788 102.769 66.4519 102.769H83.7999V97.9194H66.4519C66.0788 97.9194 65.7057 97.5463 65.7057 97.1732V71.9906H63.4673V97.1732C63.4673 97.5463 63.0942 97.9194 62.7211 97.9194H46.6788V102.769H62.7211C63.0942 102.769 63.4673 103.142 63.4673 103.516V122.915H63.2807ZM84.7326 124.594H62.5346C62.1615 124.594 61.7884 124.221 61.7884 123.848V104.448H45.7462C45.3731 104.448 45 104.075 45 103.702V97.1732C45 96.8002 45.3731 96.4271 45.7462 96.4271H61.7884V71.2445C61.7884 70.8714 62.1615 70.4983 62.5346 70.4983H66.4519C66.8249 70.4983 67.198 70.8714 67.198 71.2445V96.4271H84.546C84.9191 96.4271 85.2922 96.8002 85.2922 97.1732V103.702C85.2922 104.075 84.9191 104.448 84.546 104.448H67.198V117.506H84.546C84.9191 117.506 85.2922 117.879 85.2922 118.252V123.848C85.4787 124.221 85.1056 124.594 84.7326 124.594Z" fill="#AD181B"/>
<path fill-rule="evenodd" clip-rule="evenodd" d="M96.6709 105.008C96.6709 109.485 96.6709 113.962 96.6709 118.439L103.946 110.417V116.946L96.6709 124.967V141.01L94.2459 143.621V127.579L84.5459 138.212V131.683L94.2459 121.05V113.215L84.5459 123.848V118.252L96.6709 105.008Z" fill="white"/>
<path fill-rule="evenodd" clip-rule="evenodd" d="M94.4327 126.646H94.6192C94.9923 126.833 95.1789 127.019 95.1789 127.392V141.383L95.925 140.45V124.781C95.925 124.594 95.925 124.408 96.1115 124.221L103.2 116.387V112.283L97.2308 118.812C97.0442 118.998 96.6712 119.185 96.2981 118.998C95.925 118.812 95.7385 118.625 95.7385 118.252V106.873L85.2924 118.439V121.61L93.5 112.469C93.6866 112.283 94.0596 112.096 94.4327 112.283C94.8058 112.469 94.9923 112.656 94.9923 113.029V120.864C94.9923 121.05 94.9923 121.237 94.8058 121.423L85.2924 131.869V135.973L93.5 126.833C93.8731 126.833 94.0596 126.646 94.4327 126.646ZM94.4327 144.367C94.2462 144.367 94.2462 144.367 94.0596 144.367C93.6866 144.181 93.5 143.994 93.5 143.621V129.631L85.2924 138.771C85.1058 138.958 84.7327 139.144 84.3597 138.958C83.9866 138.771 83.8 138.585 83.8 138.212V131.683C83.8 131.496 83.8 131.31 83.9866 131.123L93.5 120.677V115.267L85.2924 124.408C85.1058 124.594 84.7327 124.781 84.3597 124.594C83.9866 124.408 83.8 124.221 83.8 123.848V118.252C83.8 118.066 83.8 117.879 83.9866 117.692L95.925 104.448C96.1115 104.262 96.4846 104.075 96.8577 104.262C97.2308 104.448 97.4173 104.635 97.4173 105.008V116.387L103.387 109.858C103.573 109.671 103.946 109.485 104.319 109.671C104.692 109.858 104.879 110.044 104.879 110.417V116.946C104.879 117.133 104.879 117.319 104.692 117.506L97.6039 125.34V141.01C97.6039 141.196 97.4173 141.383 97.4173 141.569L94.9923 144.181C94.8058 144.181 94.6192 144.367 94.4327 144.367Z" fill="#AD181B"/>
<path fill-rule="evenodd" clip-rule="evenodd" d="M103.946 49.7926L119.429 52.5907V78.5195L103.946 75.7214V49.7926Z" fill="#D41E21"/>
<path fill-rule="evenodd" clip-rule="evenodd" d="M104.879 75.1618L118.682 77.5868V53.3368L104.879 50.9119V75.1618ZM119.429 79.2656L103.759 76.4675C103.386 76.4675 103.2 76.0945 103.2 75.7214V49.7926C103.2 49.6061 103.2 49.4196 103.386 49.233C103.573 49.0465 103.759 49.0465 103.946 49.0465L119.429 51.8445C119.802 51.8445 119.988 52.2176 119.988 52.5907V78.5195C119.988 78.706 119.802 78.8925 119.615 79.0791C119.802 79.2656 119.615 79.2656 119.429 79.2656Z" fill="#AD181B"/>
<path fill-rule="evenodd" clip-rule="evenodd" d="M103.946 82.2502L119.429 85.0483V113.029L103.946 110.417V82.2502Z" fill="#D41E21"/>
<path fill-rule="evenodd" clip-rule="evenodd" d="M104.879 109.671L118.682 112.096V85.6079L104.879 83.1829V109.671ZM119.429 113.775L103.759 110.977C103.386 110.977 103.2 110.604 103.2 110.231V82.2502C103.2 82.0637 103.2 81.8771 103.386 81.6906C103.573 81.5041 103.759 81.5041 103.946 81.5041L119.429 84.3021C119.802 84.3021 119.988 84.6752 119.988 85.0483V113.029C119.988 113.215 119.802 113.402 119.615 113.589C119.802 113.775 119.615 113.775 119.429 113.775Z" fill="#AD181B"/>
<path d="M84.7326 103.516H66.4519V118.252H84.7326V103.516Z" fill="#D41E21"/>
<path fill-rule="evenodd" clip-rule="evenodd" d="M67.198 117.506H83.7999V104.448H67.198V117.506ZM84.7325 118.998H66.4518C66.0788 118.998 65.7057 118.625 65.7057 118.252V103.516C65.7057 103.142 66.0788 102.769 66.4518 102.769H84.7325C85.1056 102.769 85.4787 103.142 85.4787 103.516V118.252C85.4787 118.625 85.1056 118.998 84.7325 118.998Z" fill="#AD181B"/>
<path fill-rule="evenodd" clip-rule="evenodd" d="M98.723 55.5753L103.946 49.7926V75.7214L98.723 81.5041V55.5753Z" fill="#D41E21"/>
<path fill-rule="evenodd" clip-rule="evenodd" d="M99.4691 55.9484V79.4521L103.2 75.3483V51.8445L99.4691 55.9484ZM98.723 82.4367C98.723 82.4367 98.5364 82.4367 98.3499 82.4367C97.9768 82.2502 97.7903 82.0637 97.7903 81.6906V55.5753C97.7903 55.3888 97.7903 55.2022 97.9768 55.0157L103.2 49.233C103.386 49.0465 103.759 48.8599 104.133 49.0465C104.506 49.233 104.692 49.4195 104.692 49.7926V75.7214C104.692 75.9079 104.692 76.0945 104.506 76.281L99.2826 82.0637C99.2826 82.2502 98.9095 82.4367 98.723 82.4367Z" fill="#AD181B"/>
<path fill-rule="evenodd" clip-rule="evenodd" d="M96.6711 90.2713L103.946 82.2502V110.417L96.6711 118.439V105.008L84.7327 118.252V103.516L96.6711 90.2713Z" fill="#D41E21"/>
<path fill-rule="evenodd" clip-rule="evenodd" d="M96.6709 104.262C96.6709 104.262 96.8575 104.262 97.044 104.262C97.4171 104.448 97.6036 104.635 97.6036 105.008V116.387L103.386 110.044V84.3022L97.4171 90.831L85.6652 103.889V116.2L96.2979 104.448C96.2979 104.262 96.4844 104.262 96.6709 104.262ZM96.6709 119.185C96.6709 119.185 96.4844 119.185 96.2979 119.185C95.9248 118.998 95.7382 118.812 95.7382 118.439V107.06L85.1056 118.812C84.919 118.998 84.546 119.185 84.1729 118.998C83.7998 118.812 83.6133 118.625 83.6133 118.252V103.516C83.6133 103.329 83.6133 103.142 83.7998 102.956L103.2 81.6906C103.386 81.5041 103.759 81.3175 104.132 81.5041C104.506 81.6906 104.692 81.8772 104.692 82.2502V110.231C104.692 110.417 104.692 110.604 104.506 110.791L97.2305 118.812C97.2305 118.998 96.8575 119.185 96.6709 119.185Z" fill="#AD181B"/>
<path d="M84.7326 138.212H45.7462V154.254H84.7326V138.212Z" fill="#D41E21"/>
<path fill-rule="evenodd" clip-rule="evenodd" d="M46.4923 153.321H83.7999V138.958H46.4923V153.321V153.321ZM84.7326 155H45.7462C45.3731 155 45 154.627 45 154.254V138.212C45 137.839 45.3731 137.465 45.7462 137.465H84.7326C85.1056 137.465 85.4787 137.839 85.4787 138.212V154.254C85.4787 154.627 85.1056 155 84.7326 155Z" fill="#AD181B"/>
<path d="M62.5346 71.2445H45.7462V97.1732H62.5346V71.2445Z" fill="#D41E21"/>
<path fill-rule="evenodd" clip-rule="evenodd" d="M46.4923 96.2406H61.7884V71.9906H46.4923V96.2406ZM62.5346 97.9194H45.7462C45.3731 97.9194 45 97.5463 45 97.1732V71.2445C45 70.8714 45.3731 70.4983 45.7462 70.4983H62.5346C62.9076 70.4983 63.2807 70.8714 63.2807 71.2445V97.1732C63.2807 97.5463 63.0942 97.9194 62.5346 97.9194Z" fill="#AD181B"/>
<path fill-rule="evenodd" clip-rule="evenodd" d="M94.4326 127.579L84.7327 138.212V154.067L94.4326 143.435V127.579Z" fill="#D41E21"/>
<path fill-rule="evenodd" clip-rule="evenodd" d="M85.4789 138.398V152.015L93.5 143.062V129.444L85.4789 138.398ZM84.7327 155C84.7327 155 84.5462 155 84.3597 155C83.9866 154.813 83.8 154.627 83.8 154.254V138.212C83.8 138.025 83.8 137.838 83.9866 137.652L93.6866 127.019C93.8731 126.833 94.2462 126.646 94.6192 126.833C94.9923 127.019 95.1789 127.206 95.1789 127.579V143.621C95.1789 143.808 95.1789 143.994 94.9923 144.181L85.2924 154.813C85.1058 154.813 84.9193 155 84.7327 155Z" fill="#AD181B"/>
<path fill-rule="evenodd" clip-rule="evenodd" d="M125.584 120.677L139.201 123.102V139.144L125.584 136.719V120.677Z" fill="#D41E21"/>
<path fill-rule="evenodd" clip-rule="evenodd" d="M126.517 135.973L138.642 138.025V123.662L126.517 121.61V135.973ZM139.202 139.89L125.398 137.465C125.025 137.465 124.838 137.092 124.838 136.719V120.677C124.838 120.49 124.838 120.304 125.025 120.117C125.211 119.931 125.398 119.931 125.584 119.931L139.202 122.356C139.575 122.356 139.948 122.729 139.948 123.102V139.144C139.948 139.331 139.761 139.517 139.575 139.704C139.575 139.89 139.388 139.89 139.202 139.89Z" fill="#AD181B"/>
<defs>
<filter id="filter0_dd_24025_85406" x="3.87439" y="0.476562" width="178.251" height="203.047" filterUnits="userSpaceOnUse" color-interpolation-filters="sRGB">
<feFlood flood-opacity="0" result="BackgroundImageFix"/>
<feColorMatrix in="SourceAlpha" type="matrix" values="0 0 0 0 0 0 0 0 0 0 0 0 0 0 0 0 0 0 127 0" result="hardAlpha"/>
<feOffset dx="-2.24609" dy="-2.24609"/>
<feGaussianBlur stdDeviation="3.36914"/>
<feColorMatrix type="matrix" values="0 0 0 0 1 0 0 0 0 1 0 0 0 0 1 0 0 0 1 0"/>
<feBlend mode="normal" in2="BackgroundImageFix" result="effect1_dropShadow_24025_85406"/>
<feColorMatrix in="SourceAlpha" type="matrix" values="0 0 0 0 0 0 0 0 0 0 0 0 0 0 0 0 0 0 127 0" result="hardAlpha"/>
<feOffset dx="2.24609" dy="2.24609"/>
<feGaussianBlur stdDeviation="3.36914"/>
<feColorMatrix type="matrix" values="0 0 0 0 0.682353 0 0 0 0 0.682353 0 0 0 0 0.752941 0 0 0 0.4 0"/>
<feBlend mode="normal" in2="effect1_dropShadow_24025_85406" result="effect2_dropShadow_24025_85406"/>
<feBlend mode="normal" in="SourceGraphic" in2="effect2_dropShadow_24025_85406" result="shape"/>
</filter>
</defs>
</svg>
