<svg width="186" height="204" viewBox="0 0 186 204" fill="none" xmlns="http://www.w3.org/2000/svg">
<g filter="url(#filter0_dd_3976_113)">
<path d="M13.5209 55.9179L92.5391 10.2968L171.557 55.9179V147.16L92.5391 192.781L13.5209 147.16V55.9179Z" stroke="#EC2227" stroke-width="2.24609"/>
</g>
<path fill-rule="evenodd" clip-rule="evenodd" d="M133.159 123.828V112.372C133.159 103.217 121.876 100 114.057 99.2332C113.389 100.569 112.721 101.93 112.028 103.217L111.805 103.638C113.859 108.463 106.658 115.589 99.2106 118.36C93.7506 120.162 87.8158 119.871 82.5583 117.543C76.9167 115.366 73.4774 112.248 74.0217 109.452C70.1123 114.525 64.7182 118.236 60.3633 123.036C56.0085 127.837 52.9403 132.043 52.7671 138.476V147.78C52.7671 151.219 53.2124 152.11 56.9487 154.288C85.8739 170.989 133.159 130.608 133.159 123.828Z" fill="white"/>
<path fill-rule="evenodd" clip-rule="evenodd" d="M73.4279 111.384C71.37 113.717 69.172 115.924 66.8461 117.99C64.8666 119.772 62.8624 121.603 61.0561 123.557C57.2951 127.789 53.8805 132.119 53.6331 138.404V147.682C53.6331 150.825 53.8805 151.493 57.4188 153.522C73.5269 162.825 94.6826 153.522 105.867 146.94C121.43 138.032 132.416 126.576 132.416 123.83V112.373C132.416 102.476 118.511 100.447 114.527 100.002C113.933 101.214 113.339 102.476 112.721 103.565C113.189 105.128 113.038 106.811 112.3 108.266C109.517 113.279 104.978 117.087 99.557 118.955C93.922 120.89 87.7656 120.633 82.3108 118.238C77.3621 116.332 74.2939 113.858 73.4279 111.359V111.384ZM72.8093 159.04C67.1319 159.147 61.5287 157.737 56.5775 154.957C52.6928 152.705 52 151.641 52 147.781V138.478C52.2227 131.574 55.8105 126.997 59.7942 122.543C61.6252 120.514 63.7037 118.658 65.6832 116.852C68.4826 114.461 71.0659 111.828 73.4031 108.984C73.5086 108.846 73.6576 108.748 73.8259 108.706C73.9941 108.664 74.1717 108.68 74.3297 108.751C74.4876 108.823 74.6165 108.946 74.6954 109.101C74.7743 109.255 74.7985 109.432 74.764 109.602C74.3186 111.928 77.4858 114.774 82.8304 116.827C87.7825 119.099 93.4065 119.432 98.592 117.76C103.778 116.088 108.148 112.533 110.84 107.796C111.155 107.203 111.34 106.55 111.382 105.88C111.425 105.21 111.324 104.539 111.087 103.911C111.002 103.705 111.002 103.474 111.087 103.268L111.31 102.847C111.978 101.56 112.671 100.224 113.314 98.8882C113.387 98.7505 113.498 98.6371 113.635 98.5623C113.771 98.4875 113.926 98.4546 114.081 98.4676C123.632 99.2841 133.876 103.416 133.876 112.373V123.83C133.876 127.764 121.653 139.616 106.46 148.375C98.5425 152.879 85.6017 159.04 72.8093 159.04Z" fill="#AD181B"/>
<path fill-rule="evenodd" clip-rule="evenodd" d="M133.159 123.832V112.376C133.159 104.087 123.929 100.598 116.383 99.4844C119.129 102.8 118.313 108.318 116.383 111.856C113.755 116.179 110.033 119.731 105.593 122.156C101.153 124.58 96.1519 125.79 91.0948 125.663C83.9191 125.292 72.8093 121.531 69.172 114.825C66.2275 117.597 63.0604 120.195 60.3633 123.139C56.2559 127.791 52.9403 132.146 52.7671 138.579V147.883C52.7671 151.322 53.2124 152.213 56.9487 154.39C85.8739 170.993 133.159 130.612 133.159 123.832Z" fill="white"/>
<path fill-rule="evenodd" clip-rule="evenodd" d="M68.974 115.915C68.2317 116.608 67.4894 117.3 66.7224 117.968C64.7677 119.75 62.7387 121.606 60.9324 123.56C57.1714 127.792 53.7568 132.122 53.5094 138.407V147.685C53.5094 150.828 53.7568 151.496 57.2951 153.525C73.4031 162.828 94.5588 153.525 105.743 146.943C121.43 138.035 132.416 126.579 132.416 123.833V112.376C132.416 104.434 123.336 101.539 117.991 100.524C118.723 102.414 119.023 104.444 118.869 106.465C118.715 108.486 118.11 110.446 117.1 112.203C114.372 116.629 110.53 120.262 105.958 122.737C101.385 125.212 96.2428 126.443 91.0453 126.307C84.315 125.985 73.3042 122.546 68.974 115.915V115.915ZM72.8093 159.043C67.1319 159.15 61.5287 157.74 56.5775 154.96C52.6928 152.708 52 151.644 52 147.784V138.481C52.2227 131.577 55.8105 127 59.7942 122.546C61.6252 120.517 63.7037 118.661 65.6832 116.83C66.6729 115.964 67.6379 115.073 68.6029 114.183C68.6934 114.087 68.8069 114.016 68.9325 113.977C69.0582 113.938 69.1918 113.932 69.3205 113.96C69.5508 114.021 69.7522 114.161 69.8896 114.356C73.4774 120.938 84.7357 124.476 91.169 124.798C96.1023 124.95 100.988 123.796 105.333 121.454C109.678 119.113 113.327 115.665 115.912 111.461C117.768 108.096 118.387 102.924 115.912 99.9799C115.828 99.8512 115.784 99.7007 115.784 99.5469C115.784 99.3931 115.828 99.2426 115.912 99.1139C115.989 98.9831 116.103 98.8781 116.24 98.812C116.376 98.7459 116.529 98.7218 116.68 98.7427C121.95 99.5098 134 102.355 134 112.376V123.833C134 127.767 121.777 139.619 106.584 148.378C98.5425 152.882 85.6017 159.043 72.8093 159.043Z" fill="#AD181B"/>
<path fill-rule="evenodd" clip-rule="evenodd" d="M74.0465 109.453C74.6156 108.686 76.3724 106.979 76.8425 106.113C77.5668 104.893 77.9434 103.498 77.9312 102.08C85.8987 111.284 104.629 116.703 111.83 103.638C113.859 108.587 106.683 115.59 99.2354 118.361C93.7754 120.163 87.8405 119.872 82.583 117.544C76.9415 115.367 73.5022 112.249 74.0465 109.453Z" fill="white"/>
<path fill-rule="evenodd" clip-rule="evenodd" d="M74.7391 109.776C74.4917 112.053 77.6341 114.725 82.855 116.828C87.8072 119.1 93.4311 119.433 98.6166 117.761C103.802 116.089 108.172 112.533 110.865 107.797C111.16 107.139 111.344 106.437 111.409 105.718C110.12 107.526 108.451 109.03 106.519 110.124C104.587 111.218 102.438 111.877 100.225 112.053C96.23 112.265 92.2346 111.642 88.494 110.223C84.7534 108.804 81.3497 106.621 78.5002 103.813C78.3662 104.776 78.0196 105.697 77.4857 106.51C76.9279 107.331 76.2986 108.101 75.6052 108.811L74.7391 109.776V109.776ZM92.4555 120.342C88.9739 120.287 85.5332 119.582 82.3107 118.263C76.0505 115.789 72.6854 112.498 73.2793 109.306C73.303 109.189 73.3538 109.079 73.4277 108.984C73.6504 108.687 74.0463 108.267 74.467 107.797C75.0762 107.19 75.6464 106.545 76.1743 105.867C76.7745 104.909 77.0998 103.805 77.1145 102.675V102.13C77.1315 101.983 77.1908 101.844 77.2851 101.73C77.3794 101.616 77.5049 101.531 77.6462 101.487C77.7875 101.442 77.9386 101.44 78.0814 101.479C78.2242 101.519 78.3524 101.599 78.4507 101.71C81.1462 104.717 84.4811 107.083 88.2105 108.633C91.9399 110.183 95.9691 110.878 100.002 110.667C102.324 110.49 104.563 109.73 106.513 108.459C108.464 107.187 110.062 105.445 111.162 103.392C111.229 103.263 111.333 103.157 111.461 103.086C111.588 103.016 111.734 102.985 111.879 102.996C112.019 103.009 112.153 103.057 112.27 103.134C112.386 103.212 112.482 103.318 112.547 103.442C112.826 104.237 112.944 105.08 112.893 105.921C112.842 106.763 112.623 107.585 112.25 108.341C109.462 113.35 104.925 117.156 99.5074 119.03C97.2562 119.893 94.8664 120.338 92.4555 120.342V120.342Z" fill="#AD181B"/>
<path fill-rule="evenodd" clip-rule="evenodd" d="M107.4 109.874C110.419 106.979 112.869 101.683 115.219 96.8832C118.436 90.3014 118.288 82.8041 118.288 76.7667L117.199 73.1789C116.878 71.6748 116.729 70.1391 116.754 68.6013C116.99 66.9645 116.611 65.2982 115.69 63.9248C114.056 62.4155 111.483 64.6919 108.464 67.3394C106.426 69.2935 104.186 71.0269 101.784 72.5108C99.6779 73.6317 97.4308 74.464 95.103 74.9852V74.9852C93.2253 75.3266 91.449 76.0879 89.9068 77.2121C87.6304 79.1173 87.7294 80.6762 87.7541 83.3732C87.9428 86.9583 87.4732 90.5476 86.3685 93.9634C86.2057 92.714 85.907 91.486 85.4777 90.3014C85.0951 89.1772 84.4891 88.142 83.6962 87.258C83.0085 86.4633 82.0619 85.9374 81.0239 85.7733C80.4825 85.6994 79.9316 85.7405 79.4071 85.894C78.8827 86.0475 78.3966 86.3099 77.9804 86.6641C77.4762 87.0813 77.049 87.5838 76.7185 88.1487C76.0265 89.4277 75.7253 90.8818 75.8525 92.3304C76.1604 94.8471 77.0041 97.2686 78.3269 99.4318C78.4398 100.327 78.3293 101.237 78.0052 102.079C83.7457 108.612 92.109 113.065 98.765 113.065C101.934 113.076 105 111.942 107.4 109.874V109.874Z" fill="white"/>
<path fill-rule="evenodd" clip-rule="evenodd" d="M78.8466 102.005C84.5129 108.241 92.4803 112.398 98.6414 112.398C101.62 112.382 104.493 111.293 106.733 109.33V109.33C109.734 105.791 112.156 101.799 113.908 97.5021L114.378 96.5371C117.348 90.5245 117.372 83.4973 117.397 77.8311V76.8908L116.333 73.402C116.046 71.869 115.938 70.308 116.011 68.7502C116.011 66.9687 116.011 65.3108 115.17 64.5933C114.329 63.8757 111.607 65.7562 108.984 68.0326C106.895 70.0089 104.616 71.7743 102.18 73.303C100.022 74.4783 97.717 75.3604 95.3258 75.9258V75.9258C93.5403 76.2501 91.8497 76.9686 90.3771 78.029C88.4718 79.6373 88.4966 80.8003 88.5213 83.3241V83.9922C88.6387 87.5128 88.1533 91.0275 87.0862 94.3845C87.0407 94.5564 86.9368 94.7072 86.7924 94.811C86.6479 94.9148 86.4719 94.9652 86.2944 94.9536C86.1184 94.9427 85.952 94.8694 85.8251 94.747C85.6981 94.6246 85.6189 94.461 85.6016 94.2855C85.435 93.098 85.1533 91.9296 84.7603 90.7967C84.3977 89.7698 83.8435 88.821 83.1272 88.0006C82.5428 87.3479 81.7606 86.9047 80.9003 86.7387C80.4589 86.6816 80.0104 86.7182 79.584 86.8461C79.1577 86.974 78.7631 87.1904 78.426 87.481C78.0032 87.8391 77.6435 88.2657 77.362 88.7429C76.734 89.8915 76.4586 91.1997 76.5702 92.504C76.9345 94.914 77.7757 97.2273 79.0446 99.3084C79.3367 100.236 79.284 101.238 78.8961 102.129L78.8466 102.005ZM98.6414 113.932C91.837 113.932 83.251 109.404 77.3125 102.674C77.2299 102.576 77.173 102.459 77.1471 102.334C77.1211 102.208 77.127 102.078 77.1641 101.956C77.428 101.296 77.5543 100.588 77.5352 99.8775C76.1887 97.6087 75.345 95.0774 75.0609 92.4545C74.9162 90.8476 75.2612 89.2345 76.0506 87.8274C76.3951 87.1442 76.8849 86.5446 77.4857 86.0706C77.9842 85.6493 78.5653 85.3369 79.1918 85.1537C79.8182 84.9705 80.4761 84.9204 81.123 85.0067C82.3273 85.2175 83.4255 85.8277 84.2407 86.7387C85.1022 87.7016 85.7589 88.8297 86.1707 90.0544L86.3934 90.6729C86.8978 88.4253 87.0976 86.1199 86.9872 83.819V83.1509C86.7782 81.944 86.8976 80.7031 87.3329 79.5582C87.7682 78.4132 88.5035 77.4065 89.4616 76.6434C91.0709 75.4108 92.9417 74.5642 94.9299 74.169C97.2012 73.6428 99.3904 72.8104 101.437 71.6947C103.784 70.2584 105.988 68.6013 108.019 66.746C111.236 63.8015 114.057 61.3271 116.185 63.3561C116.743 64.0987 117.149 64.9447 117.378 65.8451C117.607 66.7455 117.656 67.6824 117.521 68.6017C117.482 70.0746 117.632 71.5463 117.966 72.9813L119.03 76.5444C119.042 76.6182 119.042 76.6933 119.03 76.7671V77.8558C119.03 83.6458 119.03 90.8709 115.863 97.23L115.393 98.1702C113.582 102.62 111.076 106.754 107.97 110.418V110.418C105.447 112.664 102.192 113.913 98.8146 113.932H98.6414Z" fill="#AD181B"/>
<path fill-rule="evenodd" clip-rule="evenodd" d="M70.6565 60.4395C65.3613 70.1637 68.7017 96.8125 77.8816 102.503C78.0548 102.009 78.6734 100.029 78.3517 99.4353C77.36 97.698 76.5871 95.8446 76.0505 93.9175C74.0711 85.1335 84.5128 81.0261 86.3439 93.9175C87.4159 90.588 87.8852 87.0938 87.7295 83.5994C87.7295 80.9024 87.7295 79.3436 89.8822 77.4383C91.4244 76.3141 93.2006 75.5528 95.0783 75.2114V75.2114C97.4062 74.6902 99.6533 73.8579 101.759 72.737C104.162 71.2531 106.401 69.5197 108.44 67.5656C111.459 64.9181 114.032 62.6169 115.665 64.151C116.586 65.5245 116.965 67.1908 116.729 68.8276C116.704 70.3653 116.853 71.901 117.174 73.4051L118.263 76.9929C118.626 72.0833 118.476 67.1493 117.818 62.2705C116.556 53.5608 112.671 53.2391 101.957 47.5729C99.7852 46.1551 97.2926 45.3043 94.7072 45.0985C86.6408 44.5789 74.6649 53.9072 70.6565 60.4395Z" fill="#FA2327"/>
<path fill-rule="evenodd" clip-rule="evenodd" d="M71.3249 60.8105C66.3762 69.9409 69.2959 94.7586 77.4613 101.365C77.6116 100.885 77.6785 100.383 77.6593 99.8805C76.6321 98.0935 75.8419 96.1805 75.3086 94.1895C74.9093 92.8185 74.8846 91.3656 75.2371 89.9818C75.5895 88.5981 76.3063 87.334 77.3128 86.3211C77.9433 85.7369 78.7226 85.3378 79.565 85.1676C80.4075 84.9973 81.2805 85.0626 82.0883 85.3561C83.1816 85.8571 84.1412 86.6089 84.8893 87.5505C85.6374 88.492 86.1528 89.5967 86.3937 90.7749C86.8981 88.5272 87.0979 86.2219 86.9876 83.921V83.2529C86.7785 82.046 86.8979 80.8051 87.3332 79.6601C87.7685 78.5152 88.5038 77.5085 89.4619 76.7453C91.0712 75.5128 92.9421 74.6662 94.9302 74.271V74.271C97.2015 73.7448 99.3907 72.9124 101.438 71.7966C103.784 70.3604 105.988 68.7033 108.02 66.8479C111.236 63.8045 114.057 61.3301 116.185 63.3591C116.743 64.1017 117.149 64.9477 117.378 65.8481C117.608 66.7485 117.656 67.6855 117.521 68.6047C117.526 69.6881 117.592 70.7702 117.719 71.8461C117.742 68.6024 117.535 65.3612 117.1 62.1467C116.111 55.2927 113.463 53.9071 106.436 50.4925C104.976 49.7749 103.368 48.9584 101.487 48.0181L100.745 47.6222C98.8915 46.4258 96.7611 45.727 94.5591 45.5933C86.8391 45.3211 75.1602 54.6494 71.3249 60.8105ZM77.8819 103.394C77.7313 103.406 77.5817 103.362 77.4613 103.27C67.9598 97.2825 64.4957 70.2131 70.0383 60.1177C74.0714 53.5112 85.9731 44.0097 94.4106 44.0097H94.757C97.1919 44.1484 99.551 44.9064 101.611 46.2118L102.329 46.6077C104.11 47.548 105.694 48.3398 107.129 49.0821C114.23 52.6204 117.496 54.2287 118.61 61.8745C119.259 66.7953 119.417 71.7686 119.08 76.7206C119.07 76.8994 118.997 77.069 118.875 77.2001C118.753 77.3311 118.589 77.4153 118.412 77.4382C118.234 77.4525 118.057 77.4065 117.909 77.3077C117.761 77.209 117.65 77.0631 117.595 76.8938L116.482 73.306C116.153 71.8112 115.995 70.2837 116.012 68.7532C116.012 66.9717 116.012 65.3138 115.17 64.5963C114.329 63.8787 111.607 65.7592 108.985 68.0356C106.895 70.0119 104.616 71.7773 102.18 73.306C100.022 74.4813 97.7173 75.3634 95.3261 75.9288V75.9288C93.5407 76.2531 91.85 76.9716 90.3774 78.032C88.4722 79.6403 88.4969 80.8033 88.5217 83.3271V83.9952C88.639 87.5158 88.1537 91.0305 87.0865 94.3875C87.041 94.5594 86.9371 94.7102 86.7927 94.814C86.6483 94.9178 86.4722 94.9682 86.2947 94.9566C86.1187 94.9457 85.9523 94.8724 85.8254 94.75C85.6984 94.6276 85.6192 94.464 85.6019 94.2885C85.0328 90.3543 83.573 87.6572 81.544 86.8654C80.9955 86.6613 80.4006 86.6157 79.8273 86.7339C79.2541 86.852 78.7257 87.1291 78.3026 87.5335C77.5039 88.356 76.9386 89.3762 76.6646 90.4894C76.3906 91.6026 76.418 92.7687 76.7437 93.8679C77.2626 95.7228 78.0019 97.5088 78.9459 99.1877C79.5398 100.252 78.5748 102.751 78.5253 102.875C78.4841 102.979 78.4207 103.072 78.3395 103.149C78.2583 103.226 78.1613 103.284 78.0552 103.32L77.8819 103.394Z" fill="#AD181B"/>
<path fill-rule="evenodd" clip-rule="evenodd" d="M93.2227 83.8198C97.0579 78.9948 96.7363 76.8916 102.526 73.576C109.059 69.8397 115.566 67.7118 119.005 68.8005C119.154 57.8886 113.834 49.7727 104.159 46.5313C99.62 44.8866 94.7349 44.4324 89.9701 45.212C85.2053 45.9917 80.7198 47.9793 76.9415 50.9851C70.5081 55.9338 63.7532 70.384 68.3555 79.0195C73.4013 82.9005 79.4754 85.2148 85.8244 85.6755C88.4161 85.7666 90.9808 85.1233 93.2227 83.8198V83.8198Z" fill="#D41E21"/>
<path fill-rule="evenodd" clip-rule="evenodd" d="M68.9742 78.4756C73.8731 82.1353 79.7048 84.3394 85.7998 84.8346C88.1786 84.9238 90.5399 84.3952 92.6537 83.3005C93.606 82.0975 94.4899 80.8418 95.3013 79.5395C96.8679 76.6908 99.2563 74.38 102.155 72.9083C108.737 69.1473 114.527 67.3162 118.239 67.9596C118.09 57.7652 112.894 50.2432 103.962 47.175C99.5417 45.5538 94.7798 45.0938 90.1314 45.8389C85.4829 46.584 81.1034 48.5094 77.4117 51.4309C71.0032 56.3796 64.7431 70.2855 68.9742 78.4756V78.4756ZM85.5029 86.3687C79.078 85.8096 72.9474 83.4226 67.836 79.49C67.7732 79.4352 67.7226 79.3678 67.6875 79.2921C63.011 70.5081 69.6423 55.4641 76.4962 50.3174C80.3664 47.2268 84.9658 45.1826 89.8533 44.381C94.7408 43.5794 99.7523 44.0474 104.407 45.7399C114.304 49.1297 119.946 57.5425 119.748 68.8008C119.746 68.9193 119.719 69.036 119.668 69.1428C119.616 69.2497 119.542 69.344 119.451 69.4194C119.342 69.4686 119.224 69.4941 119.105 69.4941C118.985 69.4941 118.867 69.4686 118.758 69.4194C115.739 68.4792 109.653 70.2855 102.898 74.1454C100.207 75.5366 97.9928 77.6991 96.5385 80.3561C95.7064 81.7238 94.7891 83.0378 93.7919 84.2903V84.2903C91.4024 85.7132 88.6534 86.4176 85.874 86.3192L85.5029 86.3687Z" fill="#AD181B"/>
<path fill-rule="evenodd" clip-rule="evenodd" d="M100.547 94.5353L87.9769 87.2855L85.8242 85.6029C86.9113 84.2345 88.0937 82.9447 89.3625 81.7429C92.5659 78.6995 96.0826 76.0039 99.8538 73.7013C103.101 71.7097 106.541 70.0517 110.122 68.7526C112.54 67.8088 115.125 67.3709 117.719 67.4659L130.288 74.7405C127.693 74.6189 125.102 75.0577 122.692 76.0272C118.937 77.3276 115.335 79.037 111.953 81.1243C106.831 84.2375 102.251 88.1656 98.3939 92.7538L100.547 94.5353Z" fill="#D41E21"/>
<path fill-rule="evenodd" clip-rule="evenodd" d="M86.9131 85.4793L88.4472 86.6918L97.9487 92.1848C101.827 87.6054 106.423 83.6861 111.558 80.5801C114.967 78.3843 118.61 76.5752 122.42 75.186C124.076 74.5746 125.793 74.1432 127.542 73.8994L117.496 68.0846C115.058 68.0267 112.634 68.4645 110.37 69.3713C106.836 70.6694 103.444 72.3277 100.25 74.32C96.5183 76.5965 93.0425 79.2676 89.8823 82.2874C88.7441 83.4256 87.7543 84.4648 86.9131 85.4793ZM100.547 95.3767C100.417 95.4139 100.28 95.4139 100.151 95.3767L87.5811 88.1269L85.3542 86.3701C85.2755 86.3125 85.2103 86.2383 85.1633 86.1528C85.1162 86.0673 85.0885 85.9726 85.082 85.8752C85.0598 85.7754 85.0616 85.6717 85.0874 85.5727C85.1132 85.4737 85.1623 85.3824 85.2305 85.3061C86.3254 83.8287 87.5244 82.4312 88.8183 81.1245C92.0596 78.0369 95.6176 75.3 99.4333 72.9591C102.727 70.8952 106.227 69.1787 109.875 67.8372C112.402 66.8502 115.108 66.4035 117.818 66.5258H118.115L130.66 73.7756C130.817 73.8557 130.939 73.9907 131.003 74.155C131.067 74.3193 131.068 74.5013 131.006 74.6664C130.955 74.8364 130.844 74.9823 130.694 75.0776C130.544 75.1729 130.365 75.2114 130.189 75.186C127.704 75.102 125.227 75.5316 122.915 76.4479C119.213 77.8075 115.67 79.5665 112.349 81.6936C107.521 84.633 103.174 88.2965 99.458 92.556L101.017 93.7684C101.164 93.8936 101.261 94.0684 101.288 94.2599C101.315 94.4513 101.272 94.6462 101.165 94.8076C101.113 94.9358 101.028 95.0485 100.92 95.1351C100.812 95.2217 100.683 95.2793 100.547 95.3025V95.3767Z" fill="#AD181B"/>
<path fill-rule="evenodd" clip-rule="evenodd" d="M129.967 77.3119C129.596 77.2866 129.224 77.2866 128.853 77.3119C128.433 77.3119 127.987 77.3119 127.492 77.4356C125.651 77.7821 123.851 78.3211 122.123 79.044V79.044C119.88 79.9511 117.706 81.0178 115.615 82.2359C113.19 83.6134 110.859 85.1509 108.638 86.8382C106.568 88.3897 104.623 90.1023 102.823 91.9601L101.66 93.222C101.265 93.6468 100.893 94.0928 100.547 94.5582L98.394 92.8756L99.6064 91.4157L100.868 90.0548C102.779 88.1263 104.821 86.3322 106.98 84.6855C109.298 82.9215 111.728 81.3098 114.255 79.8605C116.45 78.5732 118.742 77.4565 121.108 76.5201C123.017 75.7163 125.008 75.127 127.047 74.7634C127.612 74.6727 128.182 74.6149 128.754 74.5901C129.264 74.5399 129.778 74.5399 130.288 74.5901L129.967 77.3119Z" fill="#FA2327"/>
<path fill-rule="evenodd" clip-rule="evenodd" d="M99.4585 92.7293L100.399 93.4716L101.067 92.6798L102.279 91.4178C104.113 89.5444 106.081 87.8077 108.168 86.2217C110.416 84.5016 112.781 82.939 115.245 81.5452C117.356 80.321 119.547 79.2382 121.802 78.3038V78.3038C123.574 77.5541 125.425 77.0063 127.32 76.6707L128.78 76.5223H129.25L129.373 75.3098H128.705C128.175 75.3247 127.646 75.3743 127.122 75.4583C125.126 75.8113 123.176 76.3839 121.307 77.1656C118.995 78.1162 116.747 79.2155 114.577 80.4565C112.077 81.8923 109.672 83.4874 107.376 85.232C105.285 86.8666 103.317 88.6529 101.487 90.5766C101.092 90.9725 100.671 91.4179 100.275 91.888L99.5327 92.7293H99.4585ZM100.547 95.2036C100.371 95.2041 100.199 95.1524 100.052 95.0551L97.8996 93.4963C97.7443 93.3701 97.6444 93.1883 97.6213 92.9895C97.5982 92.7907 97.6537 92.5908 97.7759 92.4323C98.1718 91.9375 98.6172 91.4426 99.0626 90.923C99.508 90.4034 99.9039 89.9827 100.325 89.5621C102.22 87.5717 104.263 85.7272 106.436 84.0443C108.801 82.2364 111.281 80.5834 113.859 79.0956C116.082 77.7969 118.398 76.6639 120.787 75.7057C122.763 74.888 124.82 74.2825 126.924 73.8994C127.513 73.7993 128.108 73.7333 128.705 73.7015C129.257 73.6505 129.812 73.6505 130.363 73.7015C130.564 73.7247 130.749 73.8217 130.883 73.9737C130.992 74.1426 131.044 74.3421 131.031 74.5428L130.734 77.2646C130.704 77.4659 130.596 77.6477 130.435 77.7722C130.274 77.8966 130.071 77.9541 129.868 77.9326C129.539 77.8948 129.207 77.8948 128.879 77.9326C128.455 77.9406 128.033 77.982 127.617 78.0564C125.826 78.391 124.076 78.9135 122.396 79.6152V79.6152C120.218 80.513 118.101 81.5545 116.061 82.7329C113.662 84.1056 111.356 85.6347 109.158 87.3104C107.119 88.8088 105.2 90.4634 103.417 92.2591L102.255 93.4716C101.908 93.8675 101.562 94.3128 101.191 94.8077C101.132 94.9365 101.043 95.0489 100.93 95.1352C100.818 95.2215 100.687 95.2789 100.547 95.3026V95.2036Z" fill="#AD181B"/>
<path fill-rule="evenodd" clip-rule="evenodd" d="M121.53 100.596C120.05 100.169 118.546 99.8302 117.026 99.5812C117.348 100.101 117.744 100.695 118.14 101.289C119.183 103.31 119.837 105.509 120.07 107.771C120.676 113.714 120.85 119.693 120.589 125.661C120.572 125.972 120.483 126.275 120.328 126.546C120.174 126.816 119.958 127.047 119.699 127.22L87.0867 146.025C86.6165 146.297 86.2206 146.025 86.2206 145.505C82.5338 127.888 77.6841 125.265 66.8465 116.852C65.7083 117.916 64.5453 118.955 63.4319 120.019C76.15 134.593 76.8428 130.981 76.4964 158.124C97.5779 156.318 120.54 139.468 129.423 129.744C128.309 119.277 126.379 106.831 121.653 100.719L121.53 100.596Z" fill="white"/>
<path fill-rule="evenodd" clip-rule="evenodd" d="M86.8391 145.307L86.2453 145.653L86.9629 145.455C86.9629 145.455 86.9629 145.455 86.8391 145.307V145.307ZM64.372 120.068L66.8464 117.891L68.5042 119.177C77.8325 126.304 82.0884 129.57 85.404 145.43C85.3949 145.677 85.452 145.922 85.5695 146.14C85.687 146.357 85.8605 146.54 86.0721 146.667C86.281 146.794 86.5206 146.861 86.7649 146.861C87.0092 146.861 87.2488 146.794 87.4577 146.667L120.07 127.862C120.432 127.618 120.732 127.291 120.943 126.908C121.154 126.525 121.27 126.097 121.282 125.66C121.282 124.423 121.282 123.186 121.282 121.924C121.452 117.198 121.253 112.466 120.688 107.771C120.488 105.39 119.851 103.066 118.808 100.917L118.659 100.719L121.134 101.337C125.785 107.474 127.666 120.266 128.557 129.545C118.808 139.962 96.9345 155.352 77.2634 157.307C77.5356 134.395 76.917 133.727 68.5289 124.596L64.372 120.068ZM76.4716 158.891C76.2793 158.895 76.093 158.824 75.952 158.693C75.8738 158.621 75.8131 158.533 75.7745 158.434C75.7359 158.335 75.7204 158.229 75.7293 158.124C76.0015 134.988 75.7293 134.642 67.4155 125.611C66.1041 124.176 64.57 122.518 62.8132 120.514C62.681 120.368 62.6078 120.178 62.6078 119.982C62.6078 119.785 62.681 119.595 62.8132 119.45L65.7082 116.777L66.2525 116.307C66.3846 116.187 66.5566 116.121 66.735 116.121C66.9135 116.121 67.0855 116.187 67.2175 116.307L69.4197 117.99C78.6985 125.116 83.375 128.704 86.7402 145.208L119.154 126.526C119.301 126.425 119.424 126.293 119.513 126.139C119.603 125.985 119.658 125.813 119.674 125.635C119.674 124.398 119.674 123.161 119.674 121.874C119.848 117.232 119.666 112.583 119.129 107.969C118.915 105.813 118.303 103.715 117.323 101.783L116.333 100.001C116.26 99.8733 116.221 99.7282 116.221 99.5805C116.221 99.4328 116.26 99.2878 116.333 99.1599C116.423 99.0384 116.544 98.944 116.684 98.8872C116.824 98.8304 116.976 98.8135 117.125 98.8382C118.679 99.0805 120.216 99.4193 121.727 99.8527C121.875 99.906 122.004 100 122.099 100.125L122.222 100.249C127.171 106.756 129.126 120.043 130.116 129.644C130.133 129.75 130.126 129.858 130.096 129.96C130.066 130.063 130.014 130.158 129.942 130.238C120.045 141.075 96.9592 157.134 76.5211 158.891H76.4716Z" fill="#AD181B"/>
<path fill-rule="evenodd" clip-rule="evenodd" d="M121.53 100.596C120.05 100.169 118.546 99.8302 117.026 99.5812C117.348 100.101 117.744 100.695 118.14 101.289C119.183 103.31 119.837 105.509 120.07 107.771C120.676 113.714 120.85 119.693 120.589 125.661C120.572 125.972 120.483 126.275 120.328 126.546C120.174 126.816 119.958 127.047 119.699 127.22L87.0867 146.025C86.6165 146.297 86.2206 146.025 86.2206 145.505C82.5338 127.888 77.6841 125.265 66.8465 116.852C65.7083 117.916 64.5453 118.955 63.4319 120.019C76.15 134.593 76.8428 130.981 76.4964 158.124C97.5779 156.318 120.54 139.468 129.423 129.744C128.309 119.277 126.379 106.831 121.653 100.719L121.53 100.596Z" fill="#D41E21"/>
<path fill-rule="evenodd" clip-rule="evenodd" d="M86.8391 145.307L86.2453 145.653L86.9628 145.455C86.9628 145.455 86.9628 145.455 86.8391 145.307V145.307ZM64.372 120.043L66.8464 117.891L68.5042 119.177C77.8325 126.304 82.0884 129.57 85.404 145.43C85.3949 145.677 85.452 145.922 85.5695 146.14C85.6869 146.357 85.8605 146.54 86.0721 146.667C86.281 146.794 86.5206 146.861 86.7649 146.861C87.0092 146.861 87.2488 146.794 87.4577 146.667L120.07 127.862C120.432 127.618 120.732 127.291 120.943 126.908C121.153 126.525 121.27 126.097 121.282 125.66C121.282 124.423 121.282 123.186 121.282 121.924C121.452 117.198 121.253 112.466 120.688 107.771C120.488 105.39 119.851 103.066 118.808 100.917L118.659 100.719L121.134 101.337C125.785 107.474 127.666 120.266 128.557 129.545C118.808 139.962 96.9345 155.352 77.2634 157.307C77.5356 134.395 76.917 133.727 68.5289 124.596L64.372 120.043ZM76.3974 158.891C76.205 158.895 76.0188 158.824 75.8777 158.693C75.7996 158.621 75.7389 158.533 75.7003 158.434C75.6617 158.335 75.6462 158.229 75.6551 158.124C75.9272 134.988 75.6551 134.642 67.3412 125.611C66.0298 124.176 64.4957 122.518 62.7389 120.514C62.6068 120.368 62.5336 120.178 62.5336 119.982C62.5336 119.785 62.6068 119.595 62.7389 119.45C63.6792 118.534 64.6689 117.643 65.6587 116.753L66.1783 116.282C66.3127 116.167 66.4839 116.104 66.6608 116.104C66.8377 116.104 67.0088 116.167 67.1433 116.282L69.3455 117.965C78.6243 125.091 83.3008 128.679 86.6659 145.183L119.08 126.501C119.227 126.4 119.349 126.268 119.439 126.114C119.529 125.96 119.584 125.788 119.6 125.611C119.6 124.374 119.6 123.136 119.6 121.85C119.774 117.207 119.592 112.558 119.055 107.944C118.841 105.788 118.228 103.69 117.249 101.758L116.333 100.001C116.26 99.8733 116.221 99.7282 116.221 99.5805C116.221 99.4328 116.26 99.2878 116.333 99.1599C116.423 99.0384 116.544 98.944 116.684 98.8872C116.824 98.8304 116.976 98.8135 117.125 98.8382C118.679 99.0778 120.217 99.4167 121.727 99.8527C121.875 99.906 122.004 100 122.099 100.125L122.222 100.249C127.171 106.756 129.126 120.043 130.116 129.644C130.133 129.75 130.126 129.858 130.096 129.96C130.066 130.063 130.014 130.158 129.942 130.238C120.045 141.075 96.9592 157.134 76.5211 158.891H76.3974Z" fill="#AD181B"/>
<defs>
<filter id="filter0_dd_3976_113" x="3.41351" y="0.015625" width="178.251" height="203.047" filterUnits="userSpaceOnUse" color-interpolation-filters="sRGB">
<feFlood flood-opacity="0" result="BackgroundImageFix"/>
<feColorMatrix in="SourceAlpha" type="matrix" values="0 0 0 0 0 0 0 0 0 0 0 0 0 0 0 0 0 0 127 0" result="hardAlpha"/>
<feOffset dx="-2.24609" dy="-2.24609"/>
<feGaussianBlur stdDeviation="3.36914"/>
<feColorMatrix type="matrix" values="0 0 0 0 1 0 0 0 0 1 0 0 0 0 1 0 0 0 1 0"/>
<feBlend mode="normal" in2="BackgroundImageFix" result="effect1_dropShadow_3976_113"/>
<feColorMatrix in="SourceAlpha" type="matrix" values="0 0 0 0 0 0 0 0 0 0 0 0 0 0 0 0 0 0 127 0" result="hardAlpha"/>
<feOffset dx="2.24609" dy="2.24609"/>
<feGaussianBlur stdDeviation="3.36914"/>
<feColorMatrix type="matrix" values="0 0 0 0 0.682353 0 0 0 0 0.682353 0 0 0 0 0.752941 0 0 0 0.4 0"/>
<feBlend mode="normal" in2="effect1_dropShadow_3976_113" result="effect2_dropShadow_3976_113"/>
<feBlend mode="normal" in="SourceGraphic" in2="effect2_dropShadow_3976_113" result="shape"/>
</filter>
</defs>
</svg>
