<svg width="186" height="204" viewBox="0 0 186 204" fill="none" xmlns="http://www.w3.org/2000/svg">
<g filter="url(#filter0_dd_24025_85401)">
<path d="M13.9819 56.3789L93 10.7577L172.018 56.3789V147.621L93 193.242L13.9819 147.621V56.3789Z" stroke="#EC2227" stroke-width="2.24609"/>
</g>
<g clip-path="url(#clip0_24025_85401)">
<path fill-rule="evenodd" clip-rule="evenodd" d="M53.3486 151.437L49.1301 148.944C48.1714 148.369 48.1714 147.602 47.9796 146.643V72.8193C47.9796 71.477 48.3631 70.5182 49.1301 69.176C49.8971 68.0255 50.4724 67.2585 51.6229 66.4915L59.4847 62.0812L64.0867 59.3967L87.2885 45.9742L91.3153 43.6731L99.7523 38.8794C100.711 38.4959 101.286 38.1124 102.245 38.6876L106.464 41.1804C105.505 40.7969 104.738 40.9886 103.971 41.3721L95.5338 46.1659L91.507 48.4669L68.3052 61.8895L63.7032 64.574L55.8414 68.9842C54.6909 69.7512 53.9239 70.5182 53.3486 71.6687C52.7734 72.8193 52.3899 73.778 52.1981 75.312V149.136C52.3899 150.095 52.3899 150.862 53.3486 151.437Z" fill="#FA2327"/>
<path fill-rule="evenodd" clip-rule="evenodd" d="M52.9651 152.204L48.7466 149.711C48.1713 149.328 47.7878 148.944 47.596 148.369C47.4043 147.985 47.4043 147.41 47.4043 146.835V72.8192C47.596 70.1347 49.1301 67.4502 51.4311 65.9162C67.5381 56.9039 83.4534 46.9329 99.5605 38.1124C100.136 37.9206 100.519 37.7289 101.094 37.5371C101.67 37.5371 102.245 37.5371 102.82 37.7289L107.231 40.2216C107.614 40.4134 107.806 40.9886 107.614 41.3721C107.422 41.7556 107.039 41.9474 106.655 41.7556C106.272 41.5639 106.08 41.5639 105.888 41.5639C105.505 41.5639 105.313 41.7556 104.93 41.9474L56.8001 69.7512C54.8826 70.9017 53.7321 73.2027 53.5403 75.312V149.136C53.5403 149.52 53.5403 149.903 53.7321 150.095C53.9238 150.287 53.9238 150.478 54.3073 150.67C54.6908 150.862 54.6908 151.437 54.4991 151.821C53.7321 152.204 53.3486 152.396 52.9651 152.204ZM49.5136 148.369L51.4311 149.52C50.2806 132.454 49.8971 91.8026 51.4311 75.312C51.6228 72.6275 53.1568 69.943 55.4578 68.409L103.971 40.4134L102.053 39.2629C101.67 39.0711 101.478 39.0711 101.286 39.0711C100.903 39.0711 100.711 39.2629 100.327 39.4546L52.1981 67.2585C50.2806 68.409 49.1301 70.71 48.9383 72.8192V146.643C48.9383 147.027 48.9383 147.41 49.1301 147.602C49.1301 147.985 49.3218 148.177 49.5136 148.369Z" fill="#AD181B"/>
<path fill-rule="evenodd" clip-rule="evenodd" d="M103.971 123.441L55.8414 151.245C53.9239 152.396 52.1981 151.437 52.1981 149.136V75.312C52.1981 73.011 53.9239 70.1347 55.8414 68.9842L63.7032 64.574L68.3052 61.8894L91.507 48.4669L95.5338 46.1659L103.971 41.3721C105.888 40.2216 107.614 41.1804 107.614 43.4814V117.305C107.614 119.415 106.08 122.291 103.971 123.441Z" fill="#FA2327"/>
<path fill-rule="evenodd" clip-rule="evenodd" d="M104.354 124.208L56.225 152.012C55.458 152.396 54.8828 152.588 54.1158 152.588C53.5405 152.588 53.157 152.396 52.7735 152.204C52.39 152.012 52.0065 151.629 51.8148 151.245C51.4313 150.67 51.4313 150.095 51.4313 149.328V75.312C51.4313 73.9698 51.8148 72.6275 52.5818 71.2852C53.3488 69.943 54.3075 68.9842 55.458 68.2172L103.587 40.4134C104.354 40.0299 104.93 39.8381 105.697 39.8381C106.272 39.8381 106.655 40.0299 107.039 40.2216C107.422 40.4134 107.806 40.7969 107.998 41.1804C108.381 41.7556 108.573 42.3309 108.573 43.2896V117.114C108.573 118.456 108.189 119.798 107.422 121.14C106.464 122.483 105.505 123.441 104.354 124.208ZM55.458 150.478L103.587 122.674C104.546 122.099 105.313 121.332 105.888 120.373C106.464 119.415 106.847 118.264 106.847 117.114V43.2896C106.847 42.7144 106.655 42.3309 106.655 42.1391C106.464 41.9474 106.464 41.7556 106.272 41.7556C106.08 41.7556 105.888 41.5639 105.697 41.5639C105.313 41.5639 104.93 41.7556 104.546 41.9474L56.4168 69.7512C55.458 70.3265 54.691 71.0935 54.1158 72.244C53.5405 73.2028 53.157 74.3533 53.157 75.5038V149.328C53.157 149.903 53.157 150.287 53.3488 150.478C53.5405 150.67 53.5405 150.862 53.7323 150.862C53.924 150.862 54.1158 151.054 54.3075 151.054C54.691 150.862 55.0745 150.862 55.458 150.478Z" fill="#AD181B"/>
<path fill-rule="evenodd" clip-rule="evenodd" d="M58.9093 74.1615V144.534L102.628 119.223V49.0422C88.0554 57.2875 73.4824 65.7245 58.9093 74.1615Z" fill="white"/>
<path fill-rule="evenodd" clip-rule="evenodd" d="M59.6765 74.7367V143.192L101.862 118.839V50.3844L59.6765 74.7367ZM58.1425 144.534V74.1615C58.1425 73.9697 58.3342 73.5862 58.526 73.3945L102.245 48.0834C102.437 48.0834 102.437 47.8916 102.629 47.8916C103.012 47.8916 103.396 48.2751 103.396 48.6586V119.031C103.396 119.223 103.204 119.606 103.012 119.798L59.4847 145.109C59.293 145.109 59.1012 145.301 59.1012 145.301C58.526 145.301 58.1425 144.917 58.1425 144.534Z" fill="#AD181B"/>
<path fill-rule="evenodd" clip-rule="evenodd" d="M65.6206 87.5841C64.8536 88.1593 64.0865 89.3098 64.0865 90.2686C64.0865 91.2273 64.8536 91.6108 65.6206 91.2273C66.3876 90.6521 67.1546 89.5016 67.1546 88.5428C67.3463 87.5841 66.5793 87.0088 65.6206 87.5841Z" fill="#FA2327"/>
<path fill-rule="evenodd" clip-rule="evenodd" d="M66.196 88.351C65.8125 88.5428 65.6207 88.9263 65.429 89.3098C65.2372 89.6933 65.0455 90.0768 65.0455 90.4603C65.0455 90.652 65.0455 90.652 65.0455 90.8438C65.0455 90.8438 65.2372 90.8438 65.429 90.652C65.8125 90.4603 66.0042 90.0768 66.196 89.6933C66.3877 89.3098 66.5795 88.9263 66.5795 88.5428C66.5795 88.351 66.5795 88.351 66.5795 88.1593C66.3877 88.1593 66.196 88.1593 66.196 88.351ZM63.895 88.351C64.2785 87.7758 64.662 87.2005 65.2372 86.817C65.6207 86.6253 66.0042 86.4335 66.3877 86.4335C66.7712 86.4335 66.963 86.4335 67.1547 86.6253C67.3465 86.817 67.5382 87.0088 67.73 87.2005C67.9217 87.584 67.9217 87.9675 67.9217 88.351C67.9217 88.9263 67.73 89.6933 67.3465 90.2685C66.963 90.8438 66.5795 91.419 66.0042 91.8025C65.6207 91.9943 65.2372 92.186 64.8537 92.186C64.4702 92.186 64.2785 92.186 64.0867 91.9943C63.895 91.8025 63.7032 91.6108 63.5115 91.419C63.3197 91.0355 63.3197 90.652 63.3197 90.2685C63.3197 89.6933 63.5115 88.9263 63.895 88.351Z" fill="#AD181B"/>
<path fill-rule="evenodd" clip-rule="evenodd" d="M65.6206 97.1716C64.8536 97.7468 64.0865 98.8973 64.0865 99.8561C64.0865 100.815 64.8536 101.198 65.6206 100.815C66.3876 100.24 67.1546 99.0891 67.1546 98.1303C67.3463 97.1716 66.5793 96.7881 65.6206 97.1716Z" fill="#FA2327"/>
<path fill-rule="evenodd" clip-rule="evenodd" d="M66.196 97.9386C65.8125 98.1303 65.6207 98.5138 65.429 98.8973C65.2372 99.2808 65.0455 99.6643 65.0455 100.048C65.0455 100.24 65.0455 100.24 65.0455 100.431C65.0455 100.431 65.2372 100.431 65.429 100.24C65.8125 100.048 66.0042 99.6643 66.196 99.2808C66.3877 98.8973 66.5795 98.5138 66.5795 98.1303C66.5795 97.9386 66.5795 97.9386 66.5795 97.7468C66.3877 97.9386 66.196 97.9386 66.196 97.9386ZM63.895 97.9386C64.2785 97.3633 64.662 96.7881 65.2372 96.4046C65.6207 96.2128 66.0042 96.0211 66.3877 96.0211C66.7712 96.0211 66.963 96.0211 67.1547 96.2128C67.3465 96.4046 67.5382 96.5963 67.73 96.7881C67.9217 97.1716 67.9217 97.5551 67.9217 97.9386C67.9217 98.5138 67.73 99.2808 67.3465 99.8561C66.963 100.431 66.5795 101.007 66.0042 101.39C65.6207 101.582 65.2372 101.774 64.8537 101.774C64.662 101.774 64.2785 101.774 64.0867 101.582C63.895 101.39 63.7032 101.198 63.5115 101.007C63.3197 100.623 63.3197 100.24 63.3197 99.8561C63.3197 99.2808 63.5115 98.7056 63.895 97.9386Z" fill="#AD181B"/>
<path fill-rule="evenodd" clip-rule="evenodd" d="M65.6206 107.526C64.8536 108.101 64.0865 109.252 64.0865 110.211C64.0865 111.169 64.8536 111.553 65.6206 111.169C66.3876 110.594 67.1546 109.444 67.1546 108.485C67.3463 107.526 66.5793 107.143 65.6206 107.526Z" fill="#FA2327"/>
<path fill-rule="evenodd" clip-rule="evenodd" d="M66.196 108.293C65.8125 108.485 65.6207 108.868 65.429 109.252C65.2372 109.635 65.0455 110.019 65.0455 110.402C65.0455 110.594 65.0455 110.594 65.0455 110.786C65.0455 110.786 65.2372 110.786 65.429 110.594C65.8125 110.402 66.0042 110.019 66.196 109.635C66.3877 109.252 66.5795 108.868 66.5795 108.485C66.5795 108.293 66.5795 108.293 66.5795 108.101C66.3877 108.101 66.196 108.101 66.196 108.293ZM63.895 108.293C64.2785 107.718 64.662 107.143 65.2372 106.759C65.6207 106.567 66.0042 106.376 66.3877 106.376C66.7712 106.376 66.963 106.376 67.1547 106.567C67.3465 106.759 67.5382 106.951 67.73 107.143C67.9217 107.526 67.9217 107.91 67.9217 108.293C67.9217 108.868 67.73 109.635 67.3465 110.211C66.963 110.786 66.5795 111.361 66.0042 111.745C65.6207 111.936 65.2372 112.128 64.8537 112.128C64.662 112.128 64.2785 112.128 64.0867 111.936C63.895 111.745 63.7032 111.553 63.5115 111.361C63.3197 110.978 63.3197 110.594 63.3197 110.211C63.3197 109.635 63.5115 108.868 63.895 108.293Z" fill="#AD181B"/>
<path fill-rule="evenodd" clip-rule="evenodd" d="M53.3486 151.437L49.1301 148.944C48.7466 148.753 48.5549 148.369 48.3631 148.177C47.9796 147.41 47.9796 146.26 47.9796 145.301V132.07V111.169V89.5016V74.7368C47.9796 73.3945 47.9796 72.244 48.3631 70.9018C48.5549 70.3265 48.7466 69.7512 49.1301 69.176L53.3486 71.6688C52.9651 72.4358 52.5816 73.011 52.3899 73.778C52.1981 74.7368 52.1981 75.6955 52.1981 76.6543V89.8851V110.978V132.07V147.602C52.1981 148.369 52.1981 149.136 52.3899 149.903C52.5816 150.67 52.7734 151.054 53.3486 151.437Z" fill="#D41E21"/>
<path fill-rule="evenodd" clip-rule="evenodd" d="M52.9651 152.204L48.7466 149.711C48.5548 149.519 48.3631 149.328 48.1713 149.136C47.9795 148.944 47.7878 148.752 47.7878 148.561C47.4043 147.794 47.4043 146.643 47.4043 145.684C47.596 121.907 47.596 97.9386 47.4043 74.1615C47.4043 72.4357 47.4043 71.0935 48.1713 69.7512C48.3631 69.3677 48.5548 69.176 48.5548 68.7925C48.7466 68.409 49.3218 68.2172 49.7053 68.6007L53.9238 71.0935C54.3073 71.2852 54.4991 71.8605 54.1156 72.244C53.9238 72.4357 53.7321 72.8192 53.7321 73.2027C53.3486 74.3532 53.1568 75.312 53.1568 76.4625C53.1568 100.24 53.3486 124.4 53.1568 148.177C53.1568 148.752 53.1568 149.328 53.1568 149.903C53.1568 150.095 53.3486 150.286 53.3486 150.478C53.3486 150.67 53.5403 150.862 53.7321 150.862C54.1156 151.053 54.1156 151.629 53.9238 152.012C53.7321 152.396 53.3486 152.396 52.9651 152.204ZM49.5136 148.369L51.4311 149.519C51.4311 149.136 51.4311 148.561 51.4311 148.177C51.6228 124.208 51.2393 100.431 51.4311 76.4625C51.4311 74.9285 51.4311 73.778 52.0063 72.4357L52.1981 72.0522L49.3218 70.3265C49.1301 70.5182 49.1301 70.9017 48.9383 71.0935C48.5548 72.0522 48.5548 73.011 48.5548 74.1615C48.7466 97.9386 48.7466 121.907 48.5548 145.684C48.5548 146.451 48.5548 147.218 48.7466 147.794L48.9383 147.985C49.3218 148.177 49.3218 148.177 49.5136 148.369Z" fill="#AD181B"/>
<path fill-rule="evenodd" clip-rule="evenodd" d="M72.1402 87.0088C71.7567 87.2005 71.1814 87.0088 70.9897 86.6253C70.7979 86.2418 70.9897 85.6665 71.3732 85.4748L96.6842 70.9017C97.0677 70.71 97.643 70.9017 97.8347 71.2852C98.0265 71.6687 97.8348 72.244 97.4512 72.4357L72.1402 87.0088Z" fill="#AD181B"/>
<path fill-rule="evenodd" clip-rule="evenodd" d="M72.1402 97.3633C71.7567 97.5551 71.1814 97.3633 70.9897 96.9798C70.7979 96.5963 70.9897 96.0211 71.3732 95.8293L96.6842 81.2563C97.0677 81.0645 97.643 81.2563 97.8347 81.6398C98.0265 82.0233 97.8348 82.5985 97.4512 82.7903L72.1402 97.3633Z" fill="#AD181B"/>
<path fill-rule="evenodd" clip-rule="evenodd" d="M72.1402 107.143C71.7567 107.334 71.1814 107.143 70.9897 106.759C70.7979 106.376 70.9897 105.8 71.3732 105.609L89.3977 95.2541C89.7812 95.0623 90.3565 95.2541 90.5482 95.6376C90.74 96.0211 90.5482 96.5963 90.1647 96.7881L72.1402 107.143Z" fill="#AD181B"/>
<path fill-rule="evenodd" clip-rule="evenodd" d="M105.697 136.672L99.3689 133.029C106.847 137.247 116.243 130.153 121.037 124.784C127.748 117.114 133.501 104.266 131.008 94.1035C130.241 91.0355 128.707 88.5428 126.022 87.0088L132.734 90.8438C139.445 95.0623 138.486 105.992 136.377 112.512C133.309 122.291 124.872 134.371 114.709 137.439C111.641 138.206 108.573 138.206 105.697 136.672Z" fill="#D41E21"/>
<path fill-rule="evenodd" clip-rule="evenodd" d="M105.313 137.439C104.354 136.864 99.369 134.179 98.9855 133.796C98.602 133.604 98.4102 133.029 98.602 132.645C98.7937 132.262 99.369 132.07 99.7525 132.262C102.629 133.988 105.888 133.604 109.148 132.454C113.559 130.728 117.777 127.085 120.462 124.208C123.913 120.182 127.365 114.621 129.282 108.677C130.816 103.691 131.583 98.7056 130.433 94.1036C130.049 92.5696 129.474 91.2273 128.707 90.0768C127.94 89.1181 126.981 88.1593 125.831 87.3923C125.447 87.2005 125.255 86.6253 125.639 86.2418C125.831 85.8583 126.406 85.6665 126.789 86.05C129.09 87.3923 131.391 88.5428 133.501 89.8851C136.569 91.8026 138.103 95.0623 138.678 98.7056C139.445 103.308 138.486 108.677 137.336 112.512C135.61 117.881 132.35 124.017 128.132 128.81C124.488 133.029 120.078 136.48 115.093 137.823C113.367 138.398 111.641 138.59 110.107 138.398C108.381 138.59 106.847 138.206 105.313 137.439ZM104.546 135.138L106.08 136.097C107.231 136.864 108.573 137.056 109.915 137.247C111.449 137.439 112.983 137.056 114.326 136.672C118.928 135.33 123.146 132.07 126.598 128.043C130.624 123.25 133.884 117.497 135.418 112.32C136.569 108.677 137.336 103.499 136.76 99.0891C136.185 95.8293 134.843 93.1448 132.158 91.4191L130.241 90.2686C130.816 91.4191 131.2 92.5696 131.583 93.7201C132.734 98.5138 132.158 103.883 130.433 109.06C128.515 115.196 125.064 120.949 121.42 124.975C118.544 128.235 114.326 131.878 109.532 133.796C107.998 134.755 106.272 135.138 104.546 135.138Z" fill="#AD181B"/>
<path fill-rule="evenodd" clip-rule="evenodd" d="M117.01 91.0355C106.655 96.9798 98.4102 111.361 98.4102 123.25C98.4102 135.138 106.655 139.932 117.01 133.988C127.365 128.043 135.61 113.662 135.61 101.774C135.61 89.885 127.365 85.0912 117.01 91.0355Z" fill="white"/>
<path fill-rule="evenodd" clip-rule="evenodd" d="M117.393 91.6108C112.408 94.4871 107.806 99.4726 104.546 105.225C101.286 110.978 99.1769 117.305 99.1769 123.058C99.1769 126.318 99.7522 129.002 101.094 131.111C101.861 132.454 103.012 133.604 104.354 134.371C105.696 135.138 107.23 135.522 108.764 135.522C111.065 135.522 113.75 134.755 116.626 133.029C121.612 130.153 126.214 125.167 129.474 119.415C132.733 113.662 134.843 107.334 134.843 101.39C134.843 98.1303 134.267 95.4458 132.925 93.3366C132.158 91.9943 131.008 90.8438 129.665 90.0768C128.323 89.3098 126.789 88.9263 125.255 88.9263C122.954 89.3098 120.27 90.0768 117.393 91.6108ZM103.204 104.458C106.655 98.5138 111.449 93.3366 116.626 90.2686C119.694 88.5428 122.762 87.584 125.255 87.584C127.173 87.584 128.898 87.9675 130.432 88.9263C131.966 89.8851 133.309 91.0356 134.267 92.7613C135.61 95.0623 136.377 98.1303 136.377 101.582C136.377 107.718 134.267 114.429 130.816 120.373C127.364 126.318 122.571 131.495 117.393 134.563C114.325 136.289 111.257 137.247 108.764 137.247C106.847 137.247 105.121 136.864 103.587 135.905C102.053 134.946 100.711 133.796 99.7522 132.07C98.4099 129.769 97.6429 126.701 97.6429 123.25C97.6429 117.114 99.7522 110.402 103.204 104.458Z" fill="#AD181B"/>
<path fill-rule="evenodd" clip-rule="evenodd" d="M112.791 83.3655C117.393 80.681 123.529 78.7635 128.707 81.448L135.035 85.0912C125.639 80.4892 114.517 89.118 108.573 95.8293C100.711 104.842 94.1916 119.798 96.4926 131.878C97.2596 135.713 98.9854 139.165 102.437 141.466C100.903 140.507 96.4926 138.206 95.3421 137.247C88.0556 131.687 89.2061 119.415 91.5071 111.745C94.7669 100.623 102.629 89.3098 112.791 83.3655Z" fill="#D41E21"/>
<path fill-rule="evenodd" clip-rule="evenodd" d="M112.216 82.5985C114.9 81.0645 117.968 79.7223 121.228 79.5305C123.913 79.147 126.405 79.5305 128.898 80.8728L135.226 84.5161C135.609 84.7078 135.801 85.2831 135.609 85.6666C135.418 86.0501 134.842 86.2418 134.459 86.0501C130.624 84.1326 126.597 84.5161 122.762 86.2418C117.393 88.3511 112.408 92.9531 109.148 96.7881C105.121 101.582 101.286 108.101 98.9851 114.813C97.0676 120.565 96.3006 126.701 97.2594 132.07C97.6429 133.988 98.2181 135.713 99.1769 137.248C100.136 138.782 101.286 140.124 102.82 141.083C103.204 141.274 103.204 141.85 103.012 142.233C102.82 142.617 102.245 142.617 101.861 142.425L100.519 141.658C98.6016 140.507 95.7254 138.973 94.7666 138.206C91.5068 135.713 89.7811 131.878 89.2058 127.66C88.4388 122.291 89.3976 116.155 90.7398 111.745C92.4656 105.992 95.5336 100.048 99.3686 94.8706C102.82 89.8851 107.23 85.6666 112.216 82.5985ZM121.42 81.0645C118.544 81.448 115.476 82.5985 112.983 83.9408C108.189 86.8171 103.971 90.8438 100.519 95.4458C96.6841 100.431 93.9996 106.184 92.2738 111.936C90.9316 116.155 89.9728 122.099 90.7398 127.085C91.3151 130.92 92.8491 134.371 95.7254 136.48C96.1089 136.864 96.8759 137.247 98.0264 137.823L97.8346 137.439C96.8759 135.713 96.1089 133.796 95.7254 131.687C94.5748 125.934 95.5336 119.606 97.4511 113.662C99.7521 106.759 103.779 100.048 107.997 95.0623C111.449 91.0356 116.626 86.4336 122.187 84.1326C124.68 83.1738 127.172 82.5985 129.665 82.5985L128.131 81.8315C126.022 81.0645 123.721 80.8728 121.42 81.0645Z" fill="#AD181B"/>
<path fill-rule="evenodd" clip-rule="evenodd" d="M105.505 136.48L98.9851 132.837H99.1769L99.3686 133.029L105.696 136.672L105.505 136.48Z" fill="#D41E21"/>
<path fill-rule="evenodd" clip-rule="evenodd" d="M98.6015 133.604C98.218 133.412 98.0263 132.837 98.218 132.454C98.4098 132.07 98.9851 131.878 99.3686 132.07C101.67 133.412 103.779 134.563 106.08 135.905C106.463 136.097 106.655 136.672 106.463 137.056C106.272 137.439 105.696 137.631 105.313 137.439C103.204 136.097 100.903 134.946 98.6015 133.604Z" fill="#AD181B"/>
<path fill-rule="evenodd" clip-rule="evenodd" d="M132.35 90.4603L126.022 86.8171H125.83L125.639 86.6253L132.158 90.2686L132.35 90.4603Z" fill="#D41E21"/>
<path fill-rule="evenodd" clip-rule="evenodd" d="M126.406 86.2418L132.734 89.8851C133.117 90.0768 133.309 90.6521 133.117 91.0356C132.925 91.4191 132.35 91.6108 131.967 91.4191C129.665 90.0768 127.556 88.9263 125.255 87.5841C124.872 87.3923 124.68 86.8171 124.872 86.4336C125.063 86.05 125.639 85.8583 126.022 86.05L126.406 86.2418Z" fill="#AD181B"/>
<path fill-rule="evenodd" clip-rule="evenodd" d="M132.35 84.1325C134.076 84.8995 136.568 86.4335 137.719 87.9675L139.253 85.6665C140.595 83.5572 135.226 80.1057 134.076 81.448L132.35 84.1325Z" fill="#FA2327"/>
<path fill-rule="evenodd" clip-rule="evenodd" d="M133.5 83.9407C134.267 84.3242 135.034 84.8995 135.801 85.283C136.376 85.6665 136.952 86.2418 137.527 86.6253L138.486 85.0912C138.677 84.7077 138.486 84.3242 138.102 83.749C137.91 83.3655 137.527 83.1737 137.143 82.7902C136.76 82.5985 136.376 82.215 135.993 82.0232C135.418 81.8315 134.842 81.6397 134.651 81.6397L133.5 83.9407ZM135.034 86.6253C134.075 85.8583 132.925 85.283 132.158 84.8995H131.966C131.583 84.7077 131.391 84.1325 131.774 83.749L133.692 80.8727C134.267 80.1057 135.609 80.1057 136.952 80.681C137.527 80.8727 137.91 81.2562 138.486 81.6397C138.869 82.0232 139.444 82.4067 139.636 82.7902C140.403 83.749 140.787 85.0912 140.211 86.05L138.677 88.351L138.486 88.5428C138.102 88.7345 137.719 88.7345 137.335 88.351C136.568 87.9675 135.801 87.2005 135.034 86.6253Z" fill="#AD181B"/>
<path fill-rule="evenodd" clip-rule="evenodd" d="M121.229 81.8315V83.9408C121.229 84.1325 121.037 84.3243 121.037 84.3243C120.653 84.7078 120.078 85.0913 119.695 85.2831C118.544 85.6666 117.01 85.6666 115.859 85.0913C115.668 84.8995 115.284 84.7078 115.092 84.516C114.901 84.3243 114.709 84.1325 114.709 83.9408V81.8315V82.0233C114.901 82.5985 115.476 82.982 115.859 83.1738C117.202 83.749 118.928 83.749 120.078 83.1738C120.462 82.982 120.653 82.7903 120.845 82.5985C120.845 82.4068 121.037 82.4068 121.037 82.215C121.229 82.0233 121.229 82.0233 121.229 81.8315Z" fill="#D41E21"/>
<path fill-rule="evenodd" clip-rule="evenodd" d="M121.995 81.8315V83.9408V84.1325C121.995 84.3243 121.995 84.3243 121.803 84.516C121.803 84.7078 121.612 84.7078 121.612 84.8995C121.42 85.0913 121.228 85.4748 120.845 85.6665C120.461 85.8583 120.078 86.05 119.886 86.2418C119.119 86.4335 118.352 86.6253 117.585 86.6253C116.818 86.6253 116.051 86.4335 115.476 86.05C115.284 86.05 115.092 85.8583 114.9 85.8583C114.709 85.6665 114.517 85.6665 114.517 85.4748C114.325 85.283 114.325 85.283 114.133 85.0913C113.942 84.8995 113.942 84.7078 113.942 84.516C113.942 84.3243 113.942 84.3243 113.942 84.1325V82.0233C113.942 81.6398 114.325 81.2563 114.709 81.2563C115.092 81.2563 115.476 81.6398 115.476 82.0233L115.667 82.215C115.859 82.4068 116.051 82.4068 116.243 82.5985C116.818 82.7903 117.393 82.982 118.16 82.982C118.735 82.982 119.502 82.7903 119.886 82.5985C120.078 82.5985 120.078 82.4068 120.269 82.4068L120.461 82.215C120.461 82.0233 120.653 82.0233 120.653 82.0233C120.653 81.6398 121.228 81.2563 121.612 81.448C121.803 81.0645 121.995 81.448 121.995 81.8315ZM120.269 83.9408C119.694 84.1325 118.735 84.3243 117.968 84.3243C117.01 84.3243 116.243 84.1325 115.476 83.749C115.476 83.749 115.476 83.9408 115.667 83.9408L115.859 84.1325L116.051 84.3243C116.434 84.516 117.01 84.7078 117.585 84.7078C118.16 84.7078 118.735 84.7078 119.311 84.516C119.502 84.516 119.694 84.3243 119.886 84.1325C120.078 84.1325 120.269 83.9408 120.269 83.9408Z" fill="#AD181B"/>
<path fill-rule="evenodd" clip-rule="evenodd" d="M125.063 78.1882V80.1057C124.872 81.2563 124.105 81.8315 123.338 82.4068C121.804 83.3655 120.27 83.749 118.352 83.749C116.435 83.749 114.901 83.5573 113.175 82.5985C112.408 82.215 111.833 81.8315 111.257 81.0645C111.066 80.681 110.874 80.2975 110.682 79.914V77.9965C110.874 78.38 110.874 78.7635 111.257 79.147C111.833 79.914 112.408 80.2975 113.175 80.681C114.901 81.448 116.435 81.8315 118.352 81.8315C120.078 81.8315 121.804 81.448 123.338 80.4892C124.105 79.914 124.872 79.3387 125.063 78.1882Z" fill="#FA2327"/>
<path fill-rule="evenodd" clip-rule="evenodd" d="M125.83 78.1883V80.1058V80.2975C125.638 80.8728 125.447 81.448 125.063 82.0233C124.68 82.4068 124.296 82.7903 123.721 83.1738C122.954 83.749 121.995 83.9408 121.228 84.3243C120.269 84.516 119.502 84.7078 118.544 84.7078C117.585 84.7078 116.626 84.7078 115.859 84.516C114.9 84.3243 114.133 84.1325 113.175 83.5573C112.791 83.3655 112.408 83.1738 112.024 82.7903C111.641 82.5985 111.449 82.215 111.065 81.8315C110.874 81.6398 110.874 81.448 110.682 81.0645C110.49 80.8728 110.49 80.681 110.49 80.2975V80.1058V78.1883C110.49 77.8048 110.874 77.4213 111.257 77.4213C111.641 77.4213 112.024 77.8048 112.024 78.1883C112.024 78.38 112.024 78.5718 112.216 78.5718C112.216 78.7635 112.408 78.7635 112.408 78.9553C112.599 79.147 112.791 79.5305 112.983 79.7223C113.175 79.914 113.558 80.1058 113.942 80.2975C114.709 80.681 115.476 80.8728 116.243 81.0645C117.01 81.2563 117.777 81.2563 118.735 81.2563C119.502 81.2563 120.461 81.0645 121.228 80.8728C121.995 80.681 122.762 80.4893 123.337 79.914C123.721 79.7223 124.104 79.3388 124.296 79.147C124.488 78.9553 124.68 78.5718 124.871 78.1883C124.871 77.8048 125.447 77.4213 125.83 77.613C125.638 77.4213 125.83 77.8048 125.83 78.1883ZM122.762 81.6398C122.187 81.8315 121.612 82.0233 121.036 82.215C120.078 82.4068 119.311 82.5985 118.352 82.5985C117.393 82.5985 116.434 82.5985 115.476 82.4068C114.709 82.215 113.942 82.0233 113.175 81.6398L113.558 81.8315C114.325 82.215 115.092 82.4068 115.859 82.5985C116.626 82.7903 117.393 82.7903 118.352 82.7903C119.119 82.7903 120.078 82.5985 120.653 82.4068C121.42 82.4068 121.995 82.215 122.762 81.6398Z" fill="#AD181B"/>
<path fill-rule="evenodd" clip-rule="evenodd" d="M112.791 74.9285C115.668 73.3945 120.078 73.3945 122.954 74.9285C125.83 76.4625 125.83 79.147 122.954 80.681C120.078 82.215 115.668 82.215 112.791 80.681C110.107 79.147 110.107 76.4625 112.791 74.9285Z" fill="#D41E21"/>
<path fill-rule="evenodd" clip-rule="evenodd" d="M112.408 74.1615C113.942 73.2027 115.859 72.8192 117.777 72.8192C119.694 72.8192 121.612 73.2027 123.146 74.1615C124.104 74.7367 124.68 75.312 125.063 76.079C125.447 76.6542 125.447 77.2295 125.447 77.8047C125.447 78.38 125.255 78.9552 125.063 79.5305C124.68 80.2975 123.913 80.8727 123.146 81.448C121.612 82.4067 119.694 82.7903 117.777 82.7903C115.859 82.7903 113.75 82.4067 112.408 81.448C111.449 80.8727 110.874 80.2975 110.49 79.5305C110.107 78.9552 110.107 78.38 110.107 77.8047C110.107 77.2295 110.298 76.6542 110.49 76.079C110.874 75.312 111.449 74.7367 112.408 74.1615ZM117.968 74.545C116.243 74.545 114.517 74.9285 113.366 75.6955C112.599 76.079 112.216 76.4625 112.024 77.0377C111.832 77.4212 111.832 77.613 111.832 77.9965C111.832 78.38 111.832 78.5717 112.024 78.9552C112.216 79.3387 112.791 79.914 113.366 80.2975C114.709 81.0645 116.243 81.448 117.968 81.448C119.694 81.448 121.42 81.0645 122.57 80.2975C123.146 79.914 123.721 79.5305 123.913 78.9552C124.104 78.5717 124.104 78.38 124.104 77.9965C124.104 77.613 124.104 77.4212 123.913 77.0377C123.721 76.6542 123.146 76.079 122.57 75.6955C121.228 74.9285 119.694 74.545 117.968 74.545Z" fill="#AD181B"/>
<path fill-rule="evenodd" clip-rule="evenodd" d="M102.82 104.266C107.039 96.9798 112.791 90.6521 119.119 87.0088C125.447 83.3655 131.199 82.982 135.418 85.4748C139.636 87.9676 142.129 92.9531 142.129 100.431C142.129 107.718 139.636 115.963 135.418 123.058C131.199 130.344 125.447 136.672 119.119 140.315C112.791 143.959 107.039 144.342 102.82 141.85C98.6015 139.357 96.1088 134.371 96.1088 126.893C96.1088 119.606 98.6015 111.361 102.82 104.266ZM132.35 90.4603C130.624 89.5016 128.515 89.1181 126.214 89.3098C123.913 89.5016 121.612 90.2686 118.927 91.8026C116.434 93.3366 113.942 95.2541 111.641 97.5551C109.34 100.048 107.23 102.732 105.505 105.8C103.779 108.868 102.437 111.936 101.478 115.196C100.519 118.264 100.136 121.332 100.136 124.4C100.136 127.276 100.711 129.961 101.478 131.878C102.437 133.988 103.779 135.522 105.505 136.672C107.23 137.631 109.34 138.014 111.641 137.823C113.942 137.631 116.243 136.864 118.927 135.33C121.42 133.796 123.913 131.878 126.214 129.577C128.515 127.085 130.624 124.4 132.35 121.332C134.075 118.264 135.418 115.196 136.376 111.936C137.335 108.868 137.719 105.8 137.719 102.732C137.719 99.8561 137.143 97.1716 136.376 95.2541C135.609 93.1448 134.075 91.6108 132.35 90.4603Z" fill="#FA2327"/>
<path fill-rule="evenodd" clip-rule="evenodd" d="M102.053 103.883C104.162 100.24 106.847 96.5963 109.723 93.72C112.408 90.8438 115.476 88.351 118.736 86.4335C121.995 84.516 125.063 83.5573 127.94 83.1738C131.008 82.7903 133.692 83.3655 135.993 84.7078C138.294 86.05 140.02 88.1593 141.362 90.8438C142.513 93.3365 143.088 96.5963 143.088 100.431C143.088 104.075 142.513 107.91 141.362 111.745C140.212 115.771 138.486 119.798 136.377 123.441C134.267 127.085 131.583 130.728 128.707 133.604C126.022 136.48 122.954 138.973 119.694 140.891C116.434 142.808 113.366 143.767 110.49 144.15C107.422 144.534 104.738 143.959 102.437 142.616C100.136 141.274 98.4099 139.165 97.0677 136.48C95.9172 133.988 95.3419 130.728 95.3419 126.893C95.3419 123.25 95.9172 119.415 97.0677 115.58C98.2182 111.553 99.9439 107.526 102.053 103.883ZM110.874 94.6788C108.189 97.5551 105.696 101.007 103.587 104.65C101.478 108.293 99.7522 112.128 98.6017 115.963C97.4512 119.606 96.8759 123.441 96.8759 126.893C96.8759 130.344 97.4512 133.412 98.6017 135.713C99.7522 138.206 101.286 139.932 103.204 141.082C105.121 142.233 107.614 142.616 110.107 142.425C112.791 142.233 115.667 141.274 118.544 139.548C121.612 137.823 124.488 135.33 127.173 132.645C129.857 129.769 132.542 126.318 134.459 122.674C136.568 119.031 138.294 115.196 139.445 111.361C140.595 107.718 141.17 103.883 141.17 100.431C141.17 96.9798 140.595 93.9118 139.445 91.6108C138.294 89.118 136.76 87.3923 134.843 86.2418C132.925 85.0913 130.432 84.7078 127.94 84.8995C125.255 85.0913 122.379 86.05 119.503 87.7758C116.434 89.5015 113.558 91.8025 110.874 94.6788ZM131.966 91.2273C131.199 90.8438 130.241 90.4603 129.474 90.2685C128.515 90.0768 127.556 90.0768 126.406 90.0768C125.255 90.2685 124.296 90.4603 123.146 90.8438C121.995 91.2273 120.845 91.8025 119.694 92.5695C118.544 93.3365 117.201 94.1036 116.051 95.0623C114.9 96.0211 113.75 97.1716 112.599 98.3221C111.449 99.4726 110.49 100.815 109.34 102.157C108.381 103.499 107.422 105.033 106.463 106.376C105.696 107.91 104.929 109.444 104.162 110.978C103.587 112.512 103.012 114.046 102.437 115.58C102.053 117.114 101.67 118.648 101.478 120.182C101.286 121.716 101.094 123.058 101.094 124.592C101.094 125.934 101.286 127.276 101.478 128.427C101.67 129.577 102.053 130.728 102.437 131.687C102.82 132.645 103.395 133.604 103.971 134.179C104.546 134.946 105.313 135.522 106.08 135.905C106.847 136.289 107.806 136.672 108.573 136.864C109.531 137.056 110.49 137.056 111.641 137.056C112.791 136.864 113.75 136.672 114.9 136.289C116.051 135.905 117.201 135.33 118.352 134.563C119.503 133.796 120.653 133.029 121.804 132.07C122.954 131.111 124.105 129.961 125.255 128.81C126.406 127.66 127.364 126.318 128.515 124.975C129.474 123.633 130.432 122.099 131.391 120.757C132.158 119.223 132.925 117.689 133.692 116.155C134.267 114.621 134.843 113.087 135.418 111.553C135.801 110.019 136.185 108.485 136.377 106.951C136.568 105.417 136.76 104.075 136.76 102.541C136.76 101.198 136.568 99.8561 136.377 98.7056C136.185 97.5551 135.801 96.4046 135.418 95.4458C135.034 94.4871 134.459 93.5283 133.884 92.953C133.5 92.3778 132.733 91.6108 131.966 91.2273ZM129.665 88.7345C128.515 88.5428 127.364 88.5428 126.214 88.5428C125.063 88.7345 123.721 88.9263 122.571 89.3098C121.42 89.6933 120.078 90.2685 118.736 91.0355C117.393 91.8025 116.243 92.5695 114.9 93.72C113.558 94.6788 112.408 95.8293 111.257 96.9798C110.107 98.1303 108.956 99.4726 107.997 101.007C107.039 102.349 105.888 103.883 105.121 105.417C104.162 106.951 103.395 108.485 102.82 110.211C102.053 111.745 101.478 113.47 101.094 115.004C100.711 116.538 100.327 118.264 99.9439 119.798C99.7522 121.332 99.5604 122.866 99.5604 124.4C99.5604 125.934 99.7522 127.276 99.9439 128.619C100.136 129.961 100.519 131.111 101.094 132.262C101.67 133.412 102.245 134.371 103.012 135.138C103.779 135.905 104.546 136.672 105.505 137.247C106.463 137.823 107.422 138.206 108.573 138.398C109.723 138.59 110.874 138.59 112.024 138.59C113.175 138.398 114.517 138.206 115.667 137.823C116.818 137.439 118.16 136.864 119.503 136.097C120.845 135.33 121.995 134.563 123.338 133.604C124.68 132.645 125.83 131.495 126.981 130.344C128.131 129.194 129.282 127.852 130.241 126.318C131.199 124.975 132.35 123.441 133.117 121.907C134.076 120.373 134.843 118.839 135.418 117.114C136.185 115.58 136.76 113.854 137.144 112.32C137.527 110.786 137.911 109.06 138.294 107.526C138.486 105.992 138.678 104.458 138.678 102.924C138.678 101.39 138.486 100.048 138.294 98.7056C138.102 97.3633 137.719 96.2128 137.144 95.0623C136.568 93.9118 135.993 92.953 135.226 92.186C134.459 91.419 133.692 90.652 132.733 90.0768C131.775 89.3098 130.816 88.9263 129.665 88.7345Z" fill="#AD181B"/>
<path fill-rule="evenodd" clip-rule="evenodd" d="M129.09 94.1036C129.282 93.7201 129.857 93.5283 130.24 93.7201C130.624 93.9118 130.816 94.4871 130.624 94.8706L117.968 116.73C117.777 117.114 117.201 117.305 116.818 117.114C116.434 116.922 116.243 116.347 116.434 115.963L129.09 94.1036Z" fill="#AD181B"/>
<path fill-rule="evenodd" clip-rule="evenodd" d="M117.585 127.276C117.585 126.893 117.969 126.509 118.352 126.509C118.736 126.509 119.119 126.893 119.119 127.276V131.111C119.119 131.495 118.736 131.878 118.352 131.878C117.969 131.878 117.585 131.495 117.585 131.111V127.276Z" fill="#AD181B"/>
<path fill-rule="evenodd" clip-rule="evenodd" d="M131.007 106.951C130.624 107.143 130.049 106.951 129.857 106.567C129.665 106.184 129.857 105.609 130.24 105.417L133.692 103.499C134.075 103.308 134.651 103.499 134.842 103.883C135.034 104.266 134.842 104.842 134.459 105.033L131.007 106.951Z" fill="#AD181B"/>
<path fill-rule="evenodd" clip-rule="evenodd" d="M119.119 99.2809C119.119 99.6644 118.736 100.048 118.352 100.048C117.969 100.048 117.585 99.6644 117.585 99.2809V95.4458C117.585 95.0623 117.969 94.6788 118.352 94.6788C118.736 94.6788 119.119 95.0623 119.119 95.4458V99.2809Z" fill="#AD181B"/>
<path fill-rule="evenodd" clip-rule="evenodd" d="M105.888 119.606C106.272 119.415 106.847 119.606 107.039 119.99C107.23 120.373 107.039 120.949 106.655 121.14L103.204 123.058C102.82 123.25 102.245 123.058 102.053 122.674C101.861 122.291 102.053 121.716 102.437 121.524L105.888 119.606Z" fill="#AD181B"/>
<path fill-rule="evenodd" clip-rule="evenodd" d="M117.969 112.895C118.352 112.32 118.736 111.936 119.119 111.553C119.503 111.361 120.078 111.169 120.27 111.361C120.653 111.553 120.845 111.936 120.845 112.512C120.845 113.087 120.653 113.662 120.27 114.237C119.886 114.813 119.503 115.196 119.119 115.58C118.736 115.771 118.16 115.963 117.969 115.771C117.585 115.58 117.393 115.196 117.393 114.621C117.393 114.046 117.585 113.47 117.969 112.895Z" fill="#FA2327"/>
<path fill-rule="evenodd" clip-rule="evenodd" d="M117.202 112.512C117.393 112.128 117.585 111.936 117.969 111.553C118.16 111.361 118.544 110.978 118.736 110.786C119.119 110.594 119.311 110.402 119.694 110.402C120.078 110.402 120.461 110.402 120.653 110.594C121.037 110.786 121.228 110.978 121.42 111.361C121.612 111.745 121.612 111.936 121.612 112.32C121.612 112.703 121.612 113.087 121.42 113.47C121.228 113.854 121.228 114.237 121.037 114.429C120.845 114.813 120.653 115.004 120.27 115.388C120.078 115.58 119.694 115.963 119.503 116.155C119.119 116.347 118.927 116.538 118.544 116.538C118.16 116.538 117.777 116.538 117.585 116.347C117.202 116.155 117.01 115.963 116.818 115.58C116.626 115.388 116.626 115.004 116.626 114.621C116.626 114.237 116.626 113.854 116.818 113.47C116.818 113.087 117.01 112.895 117.202 112.512ZM118.927 112.703C118.736 112.895 118.544 113.087 118.544 113.279C118.352 113.47 118.352 113.662 118.16 113.854C118.16 114.046 118.16 114.237 118.16 114.429C118.16 114.621 118.16 114.621 118.16 114.813C118.16 114.813 118.352 114.813 118.544 114.621C118.736 114.621 118.927 114.429 118.927 114.237C119.119 114.046 119.311 113.854 119.311 113.662C119.503 113.47 119.503 113.279 119.694 112.895C119.694 112.703 119.694 112.512 119.694 112.32C119.694 112.128 119.694 112.128 119.694 111.936C119.694 111.936 119.503 111.936 119.311 112.128C119.311 112.512 119.119 112.512 118.927 112.703Z" fill="#AD181B"/>
<path fill-rule="evenodd" clip-rule="evenodd" d="M92.6574 60.1637V48.2752L71.7566 60.3555V72.244L92.6574 60.1637ZM74.2494 68.6008C74.2494 65.9162 74.2494 63.9987 74.2494 61.3142C79.6184 58.2462 84.9874 55.1782 90.3564 52.1102C90.3564 54.7947 90.3564 56.7122 90.3564 59.3967C84.9874 62.4647 79.6184 65.5327 74.2494 68.6008Z" fill="white"/>
<path fill-rule="evenodd" clip-rule="evenodd" d="M91.8902 59.7802V49.8091L72.7152 60.9307V70.9017L91.8902 59.7802ZM93.4242 48.2751V60.1637C93.4242 60.3554 93.2325 60.7389 93.0407 60.9307L72.3317 73.011C72.1399 73.011 72.1399 73.2027 71.9482 73.2027C71.5647 73.2027 71.1812 72.8192 71.1812 72.4357V60.3554C71.1812 60.1637 71.3729 59.7802 71.5647 59.5884L92.2737 47.5081C92.4655 47.5081 92.4655 47.3164 92.6572 47.3164C93.2325 47.5081 93.4242 47.8916 93.4242 48.2751ZM73.4822 68.6007V61.3142C73.4822 60.9307 73.6739 60.7389 73.8657 60.5472L89.9727 51.3431C90.3562 51.1514 90.9315 51.3431 91.1232 51.7266C91.1232 51.9184 91.315 51.9184 91.315 52.1101V59.3967C91.315 59.7802 91.1232 59.9719 90.9315 60.1637L74.8244 69.3677C74.4409 69.5595 73.8657 69.3677 73.6739 68.9842C73.4822 68.7924 73.4822 68.7925 73.4822 68.6007ZM75.0162 61.8894L89.3975 53.4524V58.8214L75.0162 67.2584V61.8894V61.8894Z" fill="#AD181B"/>
<path fill-rule="evenodd" clip-rule="evenodd" d="M71.9482 60.3555L92.6573 48.2752L89.781 46.7412L88.0553 45.7824L67.3462 57.671L71.9482 60.3555Z" fill="white"/>
<path fill-rule="evenodd" clip-rule="evenodd" d="M71.9485 59.3967L91.1236 48.2752L88.2473 46.5494L69.0722 57.6709L71.9485 59.3967ZM93.0411 49.0422L72.1402 61.1225C71.9485 61.3142 71.565 61.3142 71.3732 61.1225L66.7712 58.4379C66.5795 58.4379 66.5795 58.2462 66.3877 58.0544C66.196 57.6709 66.3877 57.0957 66.7712 56.9039L87.6721 44.8237C87.8638 44.6319 88.2473 44.6319 88.4391 44.8237L93.0411 47.5082C93.2328 47.5082 93.2328 47.6999 93.4246 47.8917C93.6163 48.2752 93.4246 48.8504 93.0411 49.0422Z" fill="#AD181B"/>
<path fill-rule="evenodd" clip-rule="evenodd" d="M67.3462 60.1637L69.2637 61.3142V70.9017L71.9482 72.244V60.3554L67.3462 57.6709V60.1637Z" fill="#FA2327"/>
<path fill-rule="evenodd" clip-rule="evenodd" d="M68.1134 59.5884L69.6474 60.5472C69.8391 60.7389 70.0309 60.9307 70.0309 61.3142V70.3264L70.9896 70.9017V60.9307L68.1134 59.2049V59.5884ZM68.4969 61.6977L66.9628 60.7389C66.7711 60.5472 66.5793 60.3554 66.5793 59.9719V57.6709C66.5793 57.4792 66.5793 57.4792 66.7711 57.2874C66.9628 56.9039 67.5381 56.7121 67.9216 56.9039L72.3319 59.5884C72.5236 59.7802 72.7154 59.9719 72.7154 60.3554V72.244C72.7154 72.4357 72.7154 72.4357 72.5236 72.6275C72.3319 73.011 71.7566 73.2027 71.3731 73.011L68.8804 71.6687C68.6886 71.477 68.4969 71.2852 68.4969 70.9017V61.6977Z" fill="#AD181B"/>
<path fill-rule="evenodd" clip-rule="evenodd" d="M87.8639 53.4524V57.4792L90.3566 59.2049V52.1102L87.8639 53.4524Z" fill="white"/>
<path fill-rule="evenodd" clip-rule="evenodd" d="M88.6309 54.0277V57.0957L89.5897 57.6709V53.4524L88.6309 54.0277ZM86.9052 57.4792V53.4524C86.9052 53.2607 87.0969 52.8772 87.2887 52.6854L89.7814 51.3431C89.9732 51.3431 89.9732 51.1514 90.1649 51.1514C90.5484 51.1514 90.9319 51.5349 90.9319 51.9184V59.2049C90.9319 59.3967 90.9319 59.5884 90.7402 59.5884C90.5484 59.9719 89.9732 59.9719 89.5897 59.7802L87.0969 58.0544C87.0969 58.0544 86.9052 57.8627 86.9052 57.4792Z" fill="#AD181B"/>
<path fill-rule="evenodd" clip-rule="evenodd" d="M74.2494 65.341L87.8637 57.4792L90.3564 59.2049L74.2494 68.6007V65.341Z" fill="white"/>
<path fill-rule="evenodd" clip-rule="evenodd" d="M73.866 64.574L87.2885 56.7122C87.4803 56.5204 87.8638 56.5204 88.0555 56.7122L90.5483 58.4379C90.9318 58.6297 90.9318 59.2049 90.74 59.5884C90.74 59.7802 90.5483 59.7802 90.3565 59.7802L74.2495 68.9842C73.866 69.176 73.2907 68.9842 73.099 68.6007C73.099 68.409 72.9072 68.409 72.9072 68.2172V64.9575C73.4825 65.1492 73.6742 64.7657 73.866 64.574ZM87.672 58.4379L75.0165 65.7245V67.0667L88.8225 59.2049L87.672 58.4379Z" fill="#AD181B"/>
</g>
<defs>
<filter id="filter0_dd_24025_85401" x="3.87451" y="0.476562" width="178.251" height="203.047" filterUnits="userSpaceOnUse" color-interpolation-filters="sRGB">
<feFlood flood-opacity="0" result="BackgroundImageFix"/>
<feColorMatrix in="SourceAlpha" type="matrix" values="0 0 0 0 0 0 0 0 0 0 0 0 0 0 0 0 0 0 127 0" result="hardAlpha"/>
<feOffset dx="-2.24609" dy="-2.24609"/>
<feGaussianBlur stdDeviation="3.36914"/>
<feColorMatrix type="matrix" values="0 0 0 0 1 0 0 0 0 1 0 0 0 0 1 0 0 0 1 0"/>
<feBlend mode="normal" in2="BackgroundImageFix" result="effect1_dropShadow_24025_85401"/>
<feColorMatrix in="SourceAlpha" type="matrix" values="0 0 0 0 0 0 0 0 0 0 0 0 0 0 0 0 0 0 127 0" result="hardAlpha"/>
<feOffset dx="2.24609" dy="2.24609"/>
<feGaussianBlur stdDeviation="3.36914"/>
<feColorMatrix type="matrix" values="0 0 0 0 0.682353 0 0 0 0 0.682353 0 0 0 0 0.752941 0 0 0 0.4 0"/>
<feBlend mode="normal" in2="effect1_dropShadow_24025_85401" result="effect2_dropShadow_24025_85401"/>
<feBlend mode="normal" in="SourceGraphic" in2="effect2_dropShadow_24025_85401" result="shape"/>
</filter>
<clipPath id="clip0_24025_85401">
<rect width="95.6836" height="115.05" fill="white" transform="translate(47.4043 37.5371)"/>
</clipPath>
</defs>
</svg>
