<svg width="186" height="204" viewBox="0 0 186 204" fill="none" xmlns="http://www.w3.org/2000/svg">
<g filter="url(#filter0_dd_24025_85404)">
<path d="M13.9819 56.3789L93 10.7577L172.018 56.3789V147.621L93 193.242L13.9819 147.621V56.3789Z" stroke="#EC2227" stroke-width="2.24609"/>
</g>
<g clip-path="url(#clip0_24025_85404)">
<path fill-rule="evenodd" clip-rule="evenodd" d="M128.656 94.4374L91.6992 73.0947L54.4495 94.5973L91.4061 115.94L128.656 94.4374Z" fill="#D41E21"/>
<path fill-rule="evenodd" clip-rule="evenodd" d="M56.1015 94.5973L91.4061 115.007L127.004 94.4374L91.6992 73.974L56.1015 94.5973ZM91.4061 116.766C91.274 116.79 91.1386 116.79 91.0065 116.766L54.0231 95.2901C53.9077 95.2089 53.8135 95.1012 53.7484 94.976C53.6834 94.8508 53.6494 94.7117 53.6494 94.5706C53.6494 94.4295 53.6834 94.2905 53.7484 94.1653C53.8135 94.0401 53.9077 93.9323 54.0231 93.8512L91.3262 72.3487C91.454 72.2832 91.5956 72.2491 91.7392 72.2491C91.8828 72.2491 92.0244 72.2832 92.1522 72.3487L129.136 93.6647C129.257 93.7349 129.358 93.8359 129.428 93.9575C129.498 94.0791 129.535 94.2171 129.535 94.3575C129.532 94.5009 129.494 94.6414 129.425 94.7668C129.355 94.8922 129.256 94.9987 129.136 95.0769L91.8325 116.606C91.7043 116.691 91.5585 116.746 91.4061 116.766Z" fill="#AD181B"/>
<path fill-rule="evenodd" clip-rule="evenodd" d="M91.4061 115.94L54.4495 94.5973V134.858L91.4061 156.201V115.94Z" fill="#D41E21"/>
<path fill-rule="evenodd" clip-rule="evenodd" d="M55.3286 134.378L90.6599 154.762V116.42L55.3286 96.0095V134.378ZM91.4593 157H91.0596L54.0763 135.684C53.9578 135.612 53.8606 135.51 53.795 135.389C53.7294 135.267 53.6977 135.13 53.7033 134.991V94.5973C53.7009 94.4559 53.7337 94.3161 53.7988 94.1905C53.864 94.0649 53.9593 93.9575 54.0763 93.8779C54.2088 93.8122 54.3547 93.778 54.5026 93.778C54.6505 93.778 54.7964 93.8122 54.9289 93.8779L91.8856 115.194C92.0125 115.267 92.1183 115.372 92.193 115.498C92.2677 115.624 92.3086 115.767 92.3119 115.913V156.201C92.3123 156.344 92.2726 156.485 92.1973 156.608C92.122 156.73 92.0141 156.829 91.8856 156.893C91.7432 156.984 91.5734 157.022 91.406 157H91.4593Z" fill="#AD181B"/>
<path fill-rule="evenodd" clip-rule="evenodd" d="M128.656 134.698V94.4374L91.4065 115.94V156.201L128.656 134.698Z" fill="white"/>
<path fill-rule="evenodd" clip-rule="evenodd" d="M92.2589 116.42V154.762L127.857 134.219V95.8763L92.2589 116.42ZM91.4063 157H91.0066C90.8864 156.922 90.7871 156.815 90.7174 156.69C90.6477 156.565 90.6098 156.424 90.6069 156.281V115.94C90.6068 115.8 90.6437 115.662 90.7139 115.54C90.7841 115.418 90.885 115.317 91.0066 115.247L128.31 93.718C128.442 93.6523 128.588 93.6181 128.736 93.6181C128.884 93.6181 129.03 93.6523 129.162 93.718C129.283 93.7963 129.382 93.9027 129.452 94.0281C129.521 94.1535 129.559 94.294 129.562 94.4375V134.698C129.559 134.842 129.521 134.982 129.452 135.107C129.382 135.233 129.283 135.339 129.162 135.418L91.8593 156.92C91.7148 156.976 91.561 157.003 91.4063 157V157Z" fill="#AD181B"/>
<path fill-rule="evenodd" clip-rule="evenodd" d="M128.656 94.4374L91.6996 73.0947L91.4065 115.94L128.656 94.4374Z" fill="#D41E21"/>
<path fill-rule="evenodd" clip-rule="evenodd" d="M92.632 74.507L92.3922 114.475L127.031 94.4108L92.632 74.507ZM91.5396 116.766C91.4074 116.79 91.2721 116.79 91.1399 116.766C91.0197 116.688 90.9204 116.581 90.8507 116.456C90.781 116.331 90.7431 116.19 90.7402 116.047L90.98 73.2014C90.9857 73.0571 91.0279 72.9167 91.1026 72.7933C91.1773 72.6698 91.2822 72.5673 91.4073 72.4954C91.5324 72.4235 91.6738 72.3846 91.8181 72.3822C91.9624 72.3799 92.1049 72.4142 92.2324 72.4819L129.216 93.798C129.337 93.8682 129.438 93.9692 129.508 94.0908C129.579 94.2124 129.615 94.3503 129.615 94.4907C129.612 94.6342 129.575 94.7747 129.505 94.9001C129.435 95.0255 129.336 95.1319 129.216 95.2102L91.8327 116.606C91.7046 116.691 91.5588 116.746 91.4064 116.766H91.5396Z" fill="#AD181B"/>
<path fill-rule="evenodd" clip-rule="evenodd" d="M122.661 54.763C123.513 53.564 124.926 52.0985 126.578 52.5249H126.817L110.138 43.0126C108.619 42.2399 106.887 43.9185 105.954 45.1442C105.828 45.3095 105.721 45.4882 105.635 45.6771L102.304 51.5923C102.037 51.9653 101.664 52.3916 101.211 52.2051L96.3887 49.5406L91.7258 79.7561L108.352 89.375L113.015 59.0529L117.838 61.7174C118.318 61.9039 118.717 61.451 118.93 61.1046L122.341 55.3226L122.661 54.763Z" fill="#FA2327"/>
<path fill-rule="evenodd" clip-rule="evenodd" d="M92.6321 79.3031L107.713 88.0426L112.216 58.9196C112.237 58.7886 112.289 58.6645 112.368 58.5578C112.447 58.4512 112.55 58.365 112.669 58.3068C112.789 58.2479 112.922 58.2173 113.055 58.2173C113.189 58.2173 113.322 58.2479 113.442 58.3068L118.051 60.9713C118.13 60.8952 118.193 60.8048 118.238 60.7048L121.942 54.3367C122.518 53.4456 123.282 52.6909 124.18 52.1251L109.765 43.7053C108.566 43.1724 107.1 45.0375 106.701 45.6504L106.434 46.0767L102.997 52.0185C102.198 53.2442 101.345 53.1376 100.919 52.9778L97.0285 50.7662L92.6321 79.3031ZM108.353 90.1742C108.209 90.1707 108.07 90.1243 107.953 90.041L91.2998 80.4488C91.1657 80.3592 91.0579 80.2354 90.9877 80.0901C90.9174 79.9449 90.8872 79.7836 90.9001 79.6228L95.5897 49.3274C95.6112 49.1966 95.6604 49.072 95.7339 48.9617C95.8074 48.8514 95.9036 48.7581 96.016 48.6879C96.1363 48.6291 96.2684 48.5985 96.4023 48.5985C96.5363 48.5985 96.6684 48.6291 96.7887 48.6879L101.425 51.3524L101.611 51.086L105.235 44.7977C106.994 42.3197 108.859 41.4405 110.564 42.1332L127.271 51.912C127.366 51.9598 127.451 52.0263 127.52 52.1076C127.59 52.1888 127.642 52.2832 127.675 52.385C127.707 52.4869 127.718 52.5942 127.708 52.7005C127.699 52.8069 127.668 52.9102 127.617 53.0044C127.52 53.1903 127.356 53.3322 127.158 53.4015C126.96 53.4708 126.743 53.4622 126.551 53.3774H126.311C125.219 53.0577 124.047 54.4432 123.407 55.3225L123.114 55.8288L119.73 61.6907C118.931 62.8897 118.158 62.9164 117.652 62.7032L113.735 60.4384L109.152 89.4815C109.136 89.6106 109.089 89.7339 109.015 89.8407C108.94 89.9475 108.841 90.0346 108.726 90.0943C108.61 90.1542 108.483 90.1904 108.353 90.2009V90.1742Z" fill="#AD181B"/>
<path fill-rule="evenodd" clip-rule="evenodd" d="M65.2411 72.9616C65.028 73.308 64.6549 73.7876 64.1753 73.6277L60.6582 71.576C58.873 70.7767 57.1144 72.7751 56.2884 74.2405L52.6647 80.2623C52.1701 81.0295 51.7676 81.8523 51.4657 82.7137C51.1463 83.312 51.0384 84.0006 51.1593 84.668C51.2802 85.3354 51.6228 85.9424 52.1318 86.3907L55.6223 88.4157C55.9953 88.7354 55.8088 89.295 55.6223 89.6947L50.8262 97.9546L67.4527 107.573L72.2488 99.2602C72.4619 98.8872 72.6485 98.3276 72.2488 98.0079L68.6517 96.0095C67.053 94.8638 67.9056 92.3325 68.6517 90.9736L72.835 83.6995C73.6343 82.4206 75.4995 80.3422 77.1781 81.1949L80.6953 83.1933C81.1749 83.3798 81.5479 82.9535 81.7877 82.5804L86.5838 74.2405L70.0639 64.6483L65.2411 72.9616Z" fill="#FA2327"/>
<path fill-rule="evenodd" clip-rule="evenodd" d="M51.9183 97.6882L67.1593 106.454L71.5557 98.8872C71.5557 98.754 71.5557 98.6741 71.5557 98.6208L68.2784 96.7023C66.3066 95.3434 66.8129 92.6256 67.9586 90.574L72.1419 83.3265C73.3942 81.2748 75.4725 79.463 77.4709 80.4222L80.8815 82.3939L81.068 82.1275L85.4644 74.5336L70.3567 65.7674L65.9869 73.3879C65.1875 74.5869 64.3349 74.4804 63.9086 74.3205L60.3115 72.2422C58.8727 71.6027 57.2207 74.1873 57.0341 74.4804L53.3038 80.9551C52.9017 81.573 52.571 82.2344 52.318 82.9268C51.9982 83.8594 51.7851 85.1117 52.6377 85.5913L56.0749 87.5631C56.4124 87.8486 56.6318 88.2492 56.6909 88.6873C56.75 89.1253 56.6444 89.5698 56.3947 89.9345L51.9183 97.6882V97.6882ZM67.4524 108.346C67.322 108.385 67.183 108.385 67.0527 108.346L50.3995 98.7007C50.2985 98.655 50.2077 98.5894 50.1326 98.5078C50.0574 98.4263 49.9995 98.3304 49.9622 98.226C49.9249 98.1215 49.909 98.0107 49.9155 97.9C49.9219 97.7893 49.9506 97.681 49.9999 97.5816L54.796 89.2684C54.796 89.2684 54.796 89.0552 54.796 89.0019L51.7318 87.1101C51.0556 86.5713 50.5877 85.8144 50.4078 84.9687C50.228 84.123 50.3475 83.2412 50.7459 82.4739C51.0183 81.6612 51.385 80.8832 51.8384 80.1557L55.5953 73.7076C56.8476 71.656 58.9259 69.8708 60.9243 70.83L64.2816 72.7751C64.3564 72.7161 64.4196 72.6439 64.4681 72.5619L69.2642 64.222C69.383 64.0412 69.5626 63.9089 69.7705 63.849C69.9761 63.7687 70.2043 63.7687 70.41 63.849L87.0365 73.4678C87.1311 73.5202 87.2141 73.5913 87.2804 73.6767C87.3468 73.7621 87.3952 73.86 87.4226 73.9646C87.45 74.0693 87.4558 74.1784 87.4399 74.2853C87.4239 74.3923 87.3864 74.4949 87.3296 74.5869L82.5068 82.9268C81.7075 84.1259 80.8815 84.0459 80.4285 83.9127L76.8847 81.9676C75.739 81.4614 74.2202 83.14 73.634 84.2324L69.4507 91.3467C68.8645 92.4658 68.1185 94.5707 69.2376 95.3434L72.6748 97.3152C73.0211 97.5887 73.2479 97.9858 73.3076 98.423C73.3672 98.8603 73.255 99.3037 72.9945 99.6599L68.1718 108C68.0548 108.182 67.8745 108.315 67.6655 108.373L67.4524 108.346Z" fill="#AD181B"/>
<path fill-rule="evenodd" clip-rule="evenodd" d="M80.8018 83.1932L77.3113 81.1948C76.9601 81.0371 76.5737 80.9738 76.1905 81.0112C75.8073 81.0486 75.4405 81.1853 75.1264 81.408C74.2138 81.972 73.4615 82.7611 72.9415 83.6995L68.6517 90.9736C68.0907 91.8803 67.7783 92.9187 67.7457 93.9845C67.7022 94.3721 67.7633 94.7644 67.9226 95.1205C68.0819 95.4766 68.3336 95.7836 68.6517 96.0095L72.2487 97.9546C72.5418 98.1144 72.5418 98.674 72.2487 99.2069L67.4526 107.52L91.4332 99.0737L86.6904 74.2405L81.9742 82.5804C81.6012 83.1133 81.1215 83.3797 80.8018 83.1932Z" fill="white"/>
<path fill-rule="evenodd" clip-rule="evenodd" d="M76.6448 81.8077C76.294 81.827 75.9542 81.9371 75.6589 82.1274C74.8688 82.6221 74.2178 83.3099 73.7671 84.1258L69.4506 91.3466C68.9734 92.1559 68.7077 93.0722 68.6779 94.0111C68.6458 94.2513 68.6727 94.4958 68.7563 94.7232C68.8398 94.9507 68.9775 95.1544 69.1575 95.3167L72.6747 97.3418C72.8508 97.4773 72.9983 97.6465 73.1086 97.8396C73.2188 98.0326 73.2896 98.2456 73.3169 98.4662C73.3442 98.6868 73.3273 98.9107 73.2674 99.1247C73.2075 99.3388 73.1056 99.5388 72.9677 99.7132L69.2907 106.108L90.4469 98.6474L86.3169 76.6386L82.5866 83.06C82.0537 83.9926 81.1211 84.3923 80.4017 83.966L76.9112 81.9676C76.7809 81.9283 76.6419 81.9283 76.5115 81.9676L76.6448 81.8077ZM67.5854 108.453C67.3471 108.444 67.1199 108.35 66.946 108.186C66.8562 108.042 66.8086 107.876 66.8086 107.707C66.8086 107.537 66.8562 107.371 66.946 107.227L71.7421 98.9405C71.7421 98.8072 71.7421 98.7273 71.7421 98.674L68.4647 96.7822C68.0306 96.4918 67.6796 96.0934 67.446 95.6263C67.2124 95.1591 67.1044 94.6392 67.1325 94.1177C67.1735 92.9047 67.5219 91.722 68.145 90.6805L72.3283 83.4597C72.9136 82.3663 73.7777 81.447 74.8329 80.7952C75.2642 80.4922 75.7698 80.3123 76.2955 80.2748C76.8212 80.2372 77.3472 80.3434 77.8171 80.582L81.1211 82.5005C81.2006 82.4415 81.2572 82.3567 81.281 82.2607L85.9972 73.9741C86.0771 73.8307 86.1993 73.7154 86.3471 73.6439C86.4949 73.5724 86.6611 73.5481 86.8232 73.5744C86.9937 73.5993 87.1522 73.6769 87.2764 73.7963C87.4006 73.9158 87.4844 74.0711 87.5159 74.2405L92.1788 99.1536C92.2158 99.3471 92.1824 99.5474 92.0847 99.7184C91.9869 99.8894 91.8313 100.02 91.6459 100.086L67.6654 108.479C67.5889 108.47 67.5158 108.443 67.4522 108.399L67.5854 108.453Z" fill="#AD181B"/>
<path fill-rule="evenodd" clip-rule="evenodd" d="M118.93 61.2111C118.637 61.7174 118.131 61.9838 117.838 61.824L113.015 59.1594L108.352 89.3749L132.333 70.1639L127.537 67.4993C127.244 67.3395 127.244 66.7533 127.537 66.247L131.027 60.1986C131.593 59.2743 131.905 58.2176 131.933 57.1344C131.975 56.7508 131.912 56.363 131.753 56.0115C131.594 55.6601 131.343 55.3577 131.027 55.136L126.817 52.6581C126.461 52.4963 126.068 52.4333 125.679 52.4754C125.29 52.5176 124.919 52.6635 124.606 52.8979C123.699 53.4691 122.948 54.2565 122.421 55.1893L118.93 61.2111Z" fill="white"/>
<path fill-rule="evenodd" clip-rule="evenodd" d="M113.601 60.3584L109.471 87.2966L130.788 70.1638L127.084 68.1121C126.907 67.9742 126.759 67.8026 126.648 67.6073C126.538 67.412 126.467 67.1967 126.439 66.974C126.412 66.7512 126.429 66.5252 126.489 66.309C126.55 66.0928 126.652 65.8906 126.791 65.7141L130.255 59.6657C130.747 58.8614 131.022 57.9434 131.054 57.0011C131.085 56.7586 131.055 56.512 130.967 56.284C130.878 56.0559 130.734 55.8536 130.548 55.6955L126.391 53.2975C126.163 53.2204 125.918 53.202 125.681 53.2439C125.444 53.2858 125.22 53.3867 125.032 53.5373C124.234 54.0303 123.574 54.7179 123.114 55.5357L119.65 61.5575C119.09 62.5167 118.131 62.9163 117.438 62.5167L113.655 60.3318L113.601 60.3584ZM108.272 90.2009C108.129 90.1973 107.99 90.1509 107.873 90.0676C107.732 89.9835 107.617 89.8616 107.542 89.7156C107.466 89.5696 107.433 89.4054 107.446 89.2416L112.216 58.9196C112.237 58.7886 112.289 58.6645 112.367 58.5578C112.446 58.4511 112.55 58.365 112.669 58.3068C112.789 58.2479 112.921 58.2173 113.055 58.2173C113.189 58.2173 113.321 58.2479 113.442 58.3068L118.051 60.9713C118.117 60.9104 118.171 60.8382 118.211 60.7581L121.702 54.7097C122.299 53.6332 123.149 52.7186 124.18 52.0452C124.634 51.7454 125.162 51.5747 125.707 51.5512C126.251 51.5278 126.791 51.6524 127.27 51.9119L131.454 54.31C131.878 54.6067 132.219 55.0078 132.443 55.4745C132.667 55.9413 132.766 56.4579 132.733 56.9745C132.705 58.1944 132.366 59.3869 131.747 60.4384L128.203 66.5401C128.174 66.6266 128.174 66.72 128.203 66.8065L132.786 69.471C132.903 69.5351 133.004 69.6268 133.078 69.7382C133.152 69.8496 133.198 69.9773 133.212 70.1105C133.229 70.2443 133.208 70.3803 133.152 70.5028C133.095 70.6253 133.005 70.7294 132.892 70.8033L108.885 89.9611C108.736 90.093 108.55 90.1766 108.352 90.2009H108.272Z" fill="#AD181B"/>
<path fill-rule="evenodd" clip-rule="evenodd" d="M76.6449 81.5679C76.5069 81.6167 76.3565 81.6167 76.2185 81.5679L63.7753 74.3205C63.6709 74.2737 63.5774 74.2057 63.5006 74.1208C63.4239 74.0359 63.3657 73.936 63.3296 73.8275C63.2934 73.7189 63.2803 73.604 63.2909 73.4901C63.3016 73.3762 63.3357 73.2657 63.3913 73.1657C63.4469 73.0657 63.5226 72.9783 63.6137 72.9091C63.7048 72.8399 63.8093 72.7904 63.9206 72.7637C64.0318 72.737 64.1474 72.7337 64.26 72.754C64.3726 72.7743 64.4797 72.8178 64.5747 72.8817L76.938 80.0225C77.1236 80.1335 77.2583 80.3129 77.3131 80.5222C77.3679 80.7315 77.3385 80.9539 77.231 81.1416C77.1722 81.2526 77.0888 81.3486 76.9872 81.4225C76.8856 81.4964 76.7685 81.5461 76.6449 81.5679V81.5679Z" fill="#AD181B"/>
<path fill-rule="evenodd" clip-rule="evenodd" d="M96.3887 49.4339L91.7258 79.756L108.352 89.3748L113.015 59.0528L96.3887 49.4339Z" fill="#D41E21"/>
<path fill-rule="evenodd" clip-rule="evenodd" d="M92.6321 79.3031L107.713 88.0427L112.11 59.4792L97.0285 50.7663L92.6321 79.3031ZM108.353 90.1743C108.209 90.1707 108.07 90.1243 107.953 90.041L91.2998 80.4488C91.1657 80.3592 91.0579 80.2354 90.9877 80.0902C90.9174 79.945 90.8872 79.7836 90.9001 79.6228L95.5897 49.3274C95.6112 49.1967 95.6604 49.072 95.7339 48.9617C95.8074 48.8515 95.9036 48.7581 96.016 48.6879C96.1363 48.6291 96.2684 48.5985 96.4023 48.5985C96.5363 48.5985 96.6684 48.6291 96.7887 48.6879L113.442 58.2802C113.578 58.3677 113.687 58.4911 113.758 58.6369C113.829 58.7826 113.857 58.945 113.842 59.1062L109.152 89.4815C109.136 89.6106 109.089 89.7339 109.015 89.8407C108.94 89.9475 108.841 90.0346 108.726 90.0943C108.61 90.1542 108.483 90.1904 108.353 90.2009V90.1743Z" fill="#AD181B"/>
</g>
<defs>
<filter id="filter0_dd_24025_85404" x="3.87451" y="0.476562" width="178.251" height="203.047" filterUnits="userSpaceOnUse" color-interpolation-filters="sRGB">
<feFlood flood-opacity="0" result="BackgroundImageFix"/>
<feColorMatrix in="SourceAlpha" type="matrix" values="0 0 0 0 0 0 0 0 0 0 0 0 0 0 0 0 0 0 127 0" result="hardAlpha"/>
<feOffset dx="-2.24609" dy="-2.24609"/>
<feGaussianBlur stdDeviation="3.36914"/>
<feColorMatrix type="matrix" values="0 0 0 0 1 0 0 0 0 1 0 0 0 0 1 0 0 0 1 0"/>
<feBlend mode="normal" in2="BackgroundImageFix" result="effect1_dropShadow_24025_85404"/>
<feColorMatrix in="SourceAlpha" type="matrix" values="0 0 0 0 0 0 0 0 0 0 0 0 0 0 0 0 0 0 127 0" result="hardAlpha"/>
<feOffset dx="2.24609" dy="2.24609"/>
<feGaussianBlur stdDeviation="3.36914"/>
<feColorMatrix type="matrix" values="0 0 0 0 0.682353 0 0 0 0 0.682353 0 0 0 0 0.752941 0 0 0 0.4 0"/>
<feBlend mode="normal" in2="effect1_dropShadow_24025_85404" result="effect2_dropShadow_24025_85404"/>
<feBlend mode="normal" in="SourceGraphic" in2="effect2_dropShadow_24025_85404" result="shape"/>
</filter>
<clipPath id="clip0_24025_85404">
<rect width="83.1059" height="115" fill="white" transform="translate(50 42)"/>
</clipPath>
</defs>
</svg>
