<svg width="186" height="204" viewBox="0 0 186 204" fill="none" xmlns="http://www.w3.org/2000/svg">
<g filter="url(#filter0_dd_45675_143028)">
<path d="M13.521 55.918L92.5392 10.2969L171.557 55.918V147.16L92.5392 192.781L13.521 147.16V55.918Z" stroke="#EC2227" stroke-width="2.24609"/>
</g>
<path fill-rule="evenodd" clip-rule="evenodd" d="M72.0231 114.868C70.2198 111.179 64.4822 105.147 60.2472 107.663L53.6626 111.551C58.444 108.949 64.0177 115.468 66.1215 119.814C67.9521 123.56 69.5914 130.507 65.5751 133.166C66.8319 132.394 72.0231 129.421 72.8154 128.649C76.0395 125.475 74.0449 118.585 72.0231 114.868Z" fill="#D41E21"/>
<path fill-rule="evenodd" clip-rule="evenodd" d="M57.5155 110.262L58.0893 110.434C61.9501 112.245 65.0756 115.424 66.9143 119.412C68.6511 122.765 69.2301 126.643 68.5537 130.391C69.8374 129.685 71.0702 128.883 72.2422 127.989C74.9744 125.13 73.2531 118.84 71.3405 115.294C69.68 112.142 67.038 109.68 63.8543 108.318C63.3279 108.08 62.7608 107.958 62.1876 107.958C61.6144 107.958 61.0473 108.08 60.521 108.318L57.5155 110.262ZM65.7122 134.051C65.5676 134.054 65.425 134.015 65.2998 133.94C65.1746 133.864 65.0715 133.754 65.0018 133.622C64.943 133.527 64.9034 133.421 64.8853 133.309C64.8672 133.198 64.8711 133.084 64.8967 132.974C64.9223 132.864 64.969 132.761 65.0341 132.671C65.0991 132.581 65.1811 132.505 65.275 132.449C68.6903 130.162 67.2695 123.872 65.4936 120.241C63.8477 116.623 61.0172 113.742 57.5155 112.121C56.9506 111.902 56.3486 111.806 55.747 111.841C55.1454 111.875 54.557 112.039 54.0183 112.321C53.9234 112.376 53.8189 112.411 53.711 112.424C53.6031 112.436 53.4938 112.426 53.3896 112.394C53.2854 112.363 53.1882 112.309 53.1039 112.238C53.0195 112.166 52.9495 112.078 52.8981 111.978C52.7902 111.773 52.7641 111.532 52.8256 111.307C52.887 111.082 53.0309 110.891 53.2259 110.777L59.674 106.888C60.3814 106.493 61.1595 106.256 61.9591 106.192C62.7586 106.128 63.5621 106.239 64.3187 106.517C67.9435 108.022 70.9369 110.83 72.7613 114.437C74.6465 117.896 77.1875 125.444 73.3897 129.276C71.4055 130.744 69.3237 132.063 67.1602 133.221L66.0127 133.908C65.9215 133.974 65.8197 134.022 65.7122 134.051Z" fill="#AD181B"/>
<path fill-rule="evenodd" clip-rule="evenodd" d="M65.7135 118.753C64.2969 116.065 62.2464 113.801 59.7572 112.177C58.9095 111.523 57.9093 111.119 56.8614 111.009C55.8135 110.898 54.7565 111.084 53.801 111.548V111.548C52.9377 112.183 52.2521 113.048 51.8151 114.053C51.378 115.058 51.2052 116.168 51.3147 117.266C51.4419 120.298 52.297 123.248 53.801 125.843C55.2244 128.526 57.2734 130.789 59.7572 132.42C60.6086 133.065 61.6082 133.464 62.6543 133.574C63.7005 133.685 64.7559 133.503 65.7135 133.049C66.5696 132.408 67.2482 131.541 67.6802 130.537C68.1121 129.532 68.282 128.426 68.1724 127.33C68.0559 124.3 67.2101 121.35 65.7135 118.753V118.753Z" fill="#D41E21"/>
<path fill-rule="evenodd" clip-rule="evenodd" d="M55.876 111.836C55.2443 111.827 54.6218 111.995 54.0728 112.322C53.3502 112.888 52.7829 113.643 52.4279 114.511C52.073 115.38 51.943 116.331 52.0509 117.268C52.1584 120.168 52.9669 122.991 54.4006 125.474C55.7227 128.047 57.6625 130.215 60.029 131.764C60.7514 132.333 61.6049 132.69 62.5024 132.801C63.4 132.911 64.3095 132.771 65.1382 132.393C65.8729 131.836 66.4525 131.084 66.8174 130.215C67.1824 129.345 67.3195 128.39 67.2147 127.447C67.1081 124.526 66.2899 121.681 64.8377 119.184L65.5754 118.755L64.8377 119.184C63.493 116.636 61.5575 114.483 59.2093 112.922C58.2043 112.27 57.0572 111.896 55.876 111.836V111.836ZM63.3896 134.709C61.9072 134.656 60.4647 134.192 59.2093 133.365C56.5768 131.69 54.4175 129.312 52.9525 126.475C51.3055 123.732 50.3643 120.59 50.2203 117.354C50.1032 116.1 50.3103 114.836 50.8197 113.694C51.3292 112.552 52.1224 111.575 53.1165 110.864C54.1973 110.328 55.395 110.104 56.5861 110.215C57.7772 110.326 58.9185 110.767 59.8924 111.493C62.5149 113.191 64.6783 115.563 66.1765 118.383C66.1765 118.383 66.1765 118.383 66.1765 118.383C67.7401 121.11 68.6058 124.211 68.6901 127.39C68.8616 128.65 68.7031 129.935 68.2315 131.108C67.76 132.281 66.9931 133.299 66.0125 134.052C65.2029 134.484 64.2971 134.682 63.3896 134.623V134.709Z" fill="#AD181B"/>
<path fill-rule="evenodd" clip-rule="evenodd" d="M62.9807 120.383C63.8129 121.827 64.2741 123.472 64.3195 125.158C64.3888 125.764 64.3012 126.378 64.0656 126.937C63.8301 127.495 63.4553 127.977 62.9807 128.332C62.4545 128.585 61.8732 128.687 61.2967 128.627C60.7203 128.567 60.1697 128.346 59.702 127.989C58.3214 127.103 57.1901 125.85 56.4234 124.357V124.357C55.6267 122.92 55.1766 121.3 55.1119 119.64C55.0497 119.04 55.1439 118.433 55.3844 117.884C55.6249 117.336 56.0028 116.865 56.478 116.523V116.523C57.0054 116.275 57.5858 116.177 58.1611 116.237C58.7364 116.297 59.2865 116.514 59.7567 116.866C61.0918 117.743 62.1994 118.951 62.9807 120.383V120.383Z" fill="#FA2327"/>
<path fill-rule="evenodd" clip-rule="evenodd" d="M57.516 116.897C57.2479 116.886 56.9822 116.955 56.7509 117.098C56.4042 117.368 56.1328 117.731 55.9647 118.148C55.7966 118.565 55.7379 119.022 55.7947 119.471C55.8385 120.975 56.2526 122.443 56.9968 123.731C57.7184 125.105 58.7502 126.273 60.0023 127.133C60.3595 127.385 60.7684 127.544 61.1958 127.599C61.6231 127.654 62.0567 127.602 62.4613 127.448C62.7988 127.17 63.0617 126.805 63.2245 126.389C63.3873 125.973 63.4444 125.52 63.3902 125.075C63.3239 123.543 62.9019 122.051 62.1607 120.729V120.729C61.4463 119.38 60.4111 118.247 59.1553 117.441C58.6671 117.105 58.0998 116.917 57.516 116.897ZM61.6962 129.421C60.8083 129.398 59.9416 129.131 59.1826 128.649C57.7062 127.646 56.4782 126.292 55.5995 124.696C54.7208 123.101 54.2165 121.31 54.128 119.471C54.061 118.715 54.1908 117.955 54.5035 117.27C54.8161 116.585 55.3001 116.002 55.9039 115.582C56.5517 115.241 57.2763 115.093 57.999 115.154C58.7216 115.214 59.4145 115.481 60.0023 115.925C61.5094 116.881 62.7524 118.231 63.6088 119.842V119.842C64.5189 121.426 65.0268 123.227 65.0842 125.075C65.1483 125.833 65.0144 126.595 64.6968 127.28C64.3792 127.965 63.8898 128.547 63.2809 128.963C62.82 129.292 62.2808 129.48 61.7236 129.506L61.6962 129.421Z" fill="#AD181B"/>
<path fill-rule="evenodd" clip-rule="evenodd" d="M116.341 141.685C114.538 137.997 108.827 131.964 104.456 134.48L98.0078 138.368C102.762 135.738 108.336 142.257 110.467 146.631C112.297 150.377 113.937 157.296 109.92 159.955C112.405 158.578 114.822 157.071 117.161 155.438C120.357 152.178 118.363 145.488 116.341 141.685Z" fill="#D41E21"/>
<path fill-rule="evenodd" clip-rule="evenodd" d="M101.833 137.083L102.379 137.255C106.251 139.049 109.381 142.233 111.204 146.233C112.97 149.576 113.55 153.464 112.844 157.212C114.133 156.5 115.374 155.698 116.56 154.81C119.292 151.951 117.57 145.661 115.603 142.115C113.987 138.922 111.36 136.415 108.172 135.025C107.634 134.826 107.062 134.746 106.493 134.791C105.924 134.835 105.37 135.002 104.866 135.282L101.833 137.112V137.083ZM110.03 160.843C109.884 160.849 109.741 160.813 109.615 160.737C109.489 160.661 109.386 160.549 109.319 160.414C109.189 160.237 109.128 160.014 109.149 159.791C109.169 159.569 109.269 159.362 109.428 159.213C112.871 156.955 111.45 150.636 109.674 147.005C108.045 143.431 105.271 140.568 101.833 138.913C101.271 138.699 100.672 138.609 100.075 138.648C99.478 138.688 98.8952 138.856 98.363 139.142C98.2681 139.197 98.1636 139.232 98.0557 139.245C97.9478 139.257 97.8385 139.247 97.7343 139.216C97.6301 139.184 97.533 139.13 97.4486 139.059C97.3642 138.987 97.2943 138.899 97.2428 138.799C97.1349 138.594 97.1089 138.353 97.1703 138.128C97.2317 137.903 97.3756 137.712 97.5707 137.598L103.964 133.71C104.67 133.31 105.447 133.068 106.246 132.999C107.046 132.93 107.85 133.036 108.609 133.309C112.23 134.834 115.221 137.65 117.051 141.258C118.937 144.717 121.45 152.266 117.68 156.068C115.692 157.555 113.601 158.883 111.423 160.042L110.303 160.729C110.185 160.795 110.054 160.834 109.92 160.843H110.03Z" fill="#AD181B"/>
<path fill-rule="evenodd" clip-rule="evenodd" d="M109.921 145.49C108.482 142.834 106.435 140.594 103.965 138.971C103.112 138.327 102.111 137.932 101.064 137.826C100.018 137.721 98.9631 137.909 98.0086 138.37C97.1432 139.003 96.456 139.868 96.0187 140.874C95.5814 141.88 95.4099 142.99 95.5223 144.089C95.6412 147.122 96.4969 150.074 98.0086 152.666C99.412 155.394 101.463 157.699 103.965 159.357C104.818 160 105.819 160.395 106.865 160.501C107.912 160.606 108.967 160.419 109.921 159.957C110.779 159.318 111.46 158.452 111.892 157.447C112.324 156.442 112.492 155.334 112.38 154.239C112.258 151.209 111.412 148.261 109.921 145.661V145.49Z" fill="#D41E21"/>
<path fill-rule="evenodd" clip-rule="evenodd" d="M100.191 138.656C99.5685 138.651 98.9557 138.819 98.4151 139.142C97.6812 139.699 97.1037 140.452 96.7432 141.322C96.3827 142.192 96.2524 143.148 96.366 144.089C96.5236 146.992 97.33 149.816 98.7204 152.333C100.111 154.851 102.046 156.992 104.371 158.585C105.096 159.148 105.951 159.501 106.849 159.606C107.746 159.712 108.654 159.566 109.481 159.185C110.21 158.631 110.785 157.883 111.145 157.018C111.506 156.154 111.638 155.204 111.53 154.267C111.431 151.349 110.623 148.504 109.18 146.004L109.918 145.547L109.18 146.004C107.832 143.467 105.897 141.324 103.552 139.771C102.538 139.115 101.381 138.741 100.191 138.685V138.656ZM107.732 161.53C106.25 161.476 104.807 161.013 103.552 160.186C100.923 158.496 98.7578 156.122 97.2676 153.295C95.6916 150.53 94.8082 147.392 94.6993 144.174C94.5822 142.92 94.7893 141.656 95.2987 140.515C95.8082 139.373 96.6014 138.395 97.5955 137.684C98.6763 137.149 99.874 136.925 101.065 137.035C102.256 137.146 103.398 137.587 104.371 138.313C106.994 140.011 109.157 142.383 110.655 145.204C110.655 145.204 110.655 145.204 110.655 145.204C112.24 147.932 113.116 151.047 113.196 154.239C113.309 155.485 113.102 156.74 112.598 157.876C112.094 159.011 111.31 159.986 110.328 160.7C109.535 161.171 108.643 161.426 107.732 161.444V161.53Z" fill="#AD181B"/>
<path fill-rule="evenodd" clip-rule="evenodd" d="M107.24 147.205C108.072 148.649 108.533 150.294 108.579 151.98C108.643 152.581 108.553 153.19 108.318 153.743C108.082 154.295 107.71 154.773 107.24 155.125C106.713 155.373 106.132 155.471 105.557 155.411C104.982 155.351 104.431 155.134 103.961 154.782C102.593 153.905 101.464 152.674 100.683 151.208V151.208C99.8712 149.787 99.4198 148.173 99.3712 146.519C99.3099 145.915 99.4042 145.304 99.6445 144.751C99.8847 144.198 100.262 143.723 100.737 143.374V143.374C101.263 143.12 101.845 143.018 102.421 143.078C102.998 143.139 103.548 143.359 104.016 143.717C105.347 144.586 106.454 145.784 107.24 147.205V147.205Z" fill="#FA2327"/>
<path fill-rule="evenodd" clip-rule="evenodd" d="M101.887 143.799C101.611 143.787 101.336 143.856 101.095 143.999C100.762 144.281 100.502 144.646 100.339 145.061C100.177 145.476 100.117 145.927 100.166 146.373C100.21 147.877 100.624 149.345 101.368 150.633C102.067 152.031 103.103 153.214 104.374 154.064C104.687 154.393 105.096 154.605 105.537 154.667C105.977 154.729 106.425 154.638 106.811 154.406C107.196 154.175 107.498 153.818 107.67 153.389C107.842 152.96 107.874 152.484 107.762 152.034C107.7 150.501 107.277 149.009 106.532 147.688C105.803 146.343 104.771 145.205 103.527 144.371C103.03 144.059 102.466 143.882 101.887 143.857V143.799ZM106.013 156.322C105.13 156.298 104.27 156.021 103.527 155.522C102.02 154.562 100.785 153.2 99.9475 151.576C99.0525 149.998 98.5543 148.207 98.4994 146.373C98.3791 145.611 98.4829 144.83 98.797 144.132C99.1111 143.434 99.6207 142.852 100.258 142.464C100.895 142.077 101.631 141.901 102.366 141.961C103.101 142.02 103.801 142.313 104.374 142.799C105.861 143.788 107.097 145.14 107.978 146.738C108.858 148.336 109.355 150.134 109.428 151.977C109.495 152.732 109.365 153.493 109.053 154.177C108.74 154.862 108.256 155.445 107.652 155.865C107.158 156.176 106.59 156.335 106.013 156.322V156.322Z" fill="#AD181B"/>
<path fill-rule="evenodd" clip-rule="evenodd" d="M44.9487 98.9971L90.6041 126.588V141.913L68.0359 128.332V127.56C67.9193 124.53 67.0735 121.58 65.5769 118.983V118.983C64.1604 116.295 62.1099 114.031 59.6207 112.407C58.773 111.753 57.7728 111.349 56.7249 111.238C55.677 111.128 54.62 111.314 53.6645 111.778V111.778C52.8012 112.413 52.1156 113.278 51.6786 114.283C51.2415 115.288 51.0687 116.397 51.1782 117.496C51.1782 117.753 51.1782 118.011 51.1782 118.268L48.9924 116.924C47.7939 116.151 46.8058 115.068 46.1236 113.779C45.3814 112.511 44.9672 111.062 44.9214 109.576L44.9487 98.9971Z" fill="#FA2327"/>
<path fill-rule="evenodd" clip-rule="evenodd" d="M68.8813 127.705L89.7828 140.371V127.104L45.7941 100.542V109.349C45.8537 110.669 46.2194 111.955 46.8596 113.094C47.472 114.258 48.3554 115.242 49.4279 115.953L50.3842 116.525C50.3674 115.397 50.6212 114.282 51.1224 113.284C51.6236 112.285 52.3561 111.433 53.253 110.807C54.3338 110.271 55.5315 110.048 56.7226 110.158C57.9137 110.269 59.0551 110.71 60.0289 111.436C62.6514 113.134 64.8148 115.506 66.313 118.326C67.9024 121.096 68.7866 124.246 68.8813 127.476V127.733V127.705ZM90.739 142.801C90.5836 142.776 90.4348 142.717 90.3019 142.629L67.7065 128.905C67.5687 128.831 67.4557 128.715 67.3826 128.572C67.3094 128.429 67.2794 128.266 67.2966 128.105C67.2966 127.876 67.2966 127.619 67.2966 127.39C67.19 124.469 66.3718 121.624 64.9196 119.127C63.5749 116.579 61.6394 114.426 59.2912 112.865C58.5586 112.307 57.6996 111.958 56.799 111.853C55.8983 111.748 54.987 111.89 54.1547 112.265C53.4084 112.826 52.8196 113.586 52.4496 114.466C52.0795 115.346 51.9418 116.314 52.0509 117.269C52.0372 117.507 52.0372 117.745 52.0509 117.983C52.0477 118.141 52.0089 118.296 51.9377 118.435C51.8665 118.574 51.7648 118.694 51.641 118.784C51.5072 118.862 51.3568 118.902 51.2039 118.902C51.0509 118.902 50.9005 118.862 50.7667 118.784L48.5536 117.44C47.2559 116.592 46.177 115.424 45.4116 114.038C44.6078 112.634 44.1567 111.041 44.1001 109.406V98.9985C44.0997 98.8443 44.1404 98.693 44.2176 98.5617C44.2949 98.4304 44.4055 98.3242 44.5373 98.2551C44.6586 98.1703 44.8012 98.125 44.9471 98.125C45.093 98.125 45.2356 98.1703 45.3569 98.2551L91.0396 125.817C91.1629 125.901 91.2647 126.016 91.3361 126.15C91.4076 126.285 91.4465 126.436 91.4494 126.589V141.915C91.4465 142.069 91.4076 142.219 91.3361 142.354C91.2647 142.488 91.1629 142.603 91.0396 142.687C90.9005 142.748 90.753 142.787 90.6024 142.801H90.739Z" fill="#AD181B"/>
<path fill-rule="evenodd" clip-rule="evenodd" d="M44.9482 98.9986L76.3961 80.0137L122.215 107.719L90.7948 126.704L44.9482 98.9986Z" fill="#D41E21"/>
<path fill-rule="evenodd" clip-rule="evenodd" d="M46.586 98.9985L90.7387 125.675L120.465 107.719L76.3945 81.0429L46.586 98.9985ZM90.7387 127.59C90.5938 127.613 90.4464 127.613 90.3015 127.59L44.5369 99.7419C44.403 99.668 44.2913 99.5568 44.2141 99.4205C44.137 99.2842 44.0974 99.1283 44.0997 98.9699C44.0993 98.8157 44.14 98.6645 44.2172 98.5332C44.2945 98.4018 44.4052 98.2957 44.5369 98.2265L75.9574 79.2417C76.0841 79.1578 76.2309 79.1133 76.3809 79.1133C76.5308 79.1133 76.6776 79.1578 76.8043 79.2417L122.651 106.918C122.774 107.002 122.876 107.117 122.947 107.251C123.019 107.386 123.058 107.536 123.061 107.69C123.061 107.841 123.023 107.989 122.951 108.12C122.879 108.25 122.776 108.358 122.651 108.434L91.2305 127.476C91.0913 127.538 90.9438 127.576 90.7933 127.59H90.7387Z" fill="#AD181B"/>
<path fill-rule="evenodd" clip-rule="evenodd" d="M71.8052 94.024C74.9709 92.3392 78.4722 91.4609 82.0237 91.4609C85.5753 91.4609 89.0766 92.3392 92.2422 94.024C97.8979 97.4264 97.8979 102.973 92.2422 106.376C89.0785 108.067 85.5765 108.949 82.0237 108.949C78.471 108.949 74.9689 108.067 71.8052 106.376C66.1222 102.916 66.1496 97.3692 71.8052 94.024Z" fill="#D41E21"/>
<path fill-rule="evenodd" clip-rule="evenodd" d="M82.1066 92.2772C78.689 92.1974 75.3099 93.0445 72.2979 94.736C71.2545 95.1968 70.3474 95.9404 69.6702 96.8903C68.993 97.8402 68.5703 98.962 68.4455 100.14C68.5816 101.292 69.0004 102.387 69.6612 103.319C70.322 104.251 71.2021 104.988 72.2159 105.458C75.2524 107.066 78.6078 107.904 82.0109 107.904C85.4141 107.904 88.7695 107.066 91.8059 105.458C92.8463 104.988 93.7488 104.238 94.4209 103.283C95.093 102.329 95.5106 101.204 95.631 100.026C95.5088 98.8507 95.0901 97.731 94.4179 96.7814C93.7457 95.8318 92.8442 95.0864 91.8059 94.6217C88.8179 92.9841 85.4782 92.1768 82.1066 92.2772V92.2772ZM82.1066 109.747C78.3966 109.821 74.7295 108.906 71.4509 107.088C70.1544 106.469 69.0397 105.499 68.2229 104.277C67.4061 103.055 66.9169 101.626 66.8062 100.14C66.9169 98.6532 67.4061 97.2248 68.2229 96.003C69.0397 94.7812 70.1544 93.8106 71.4509 93.1921C74.7544 91.4434 78.4045 90.5322 82.1066 90.5322C85.8086 90.5322 89.4588 91.4434 92.7622 93.1921C94.0554 93.8155 95.1669 94.7874 95.9831 96.0082C96.7992 97.229 97.2906 98.6549 97.407 100.14C97.2906 101.625 96.7992 103.051 95.9831 104.272C95.1669 105.492 94.0554 106.464 92.7622 107.088C89.4836 108.906 85.8166 109.821 82.1066 109.747V109.747Z" fill="#AD181B"/>
<path fill-rule="evenodd" clip-rule="evenodd" d="M39.2666 63.2308L72.0258 43.4453L73.8291 44.5604V45.7041L78.6924 48.649L79.6487 48.0772L81.4793 49.1922V50.3359L86.3153 53.3094L87.2716 52.709L89.1022 53.7955V54.9678L93.9382 57.9413L94.9218 57.3123L96.7251 58.4274V59.5996L101.561 62.5446L102.572 61.9441L104.348 63.0592V64.2029L109.211 67.1478L110.195 66.5474L111.998 67.6625V68.8061L116.862 71.7797L117.845 71.1792L119.648 72.2943L119.594 105.06L86.8345 124.846L85.0312 123.731V122.587L80.1678 119.614L79.1842 120.214L77.381 119.099V117.984L72.545 115.01L71.534 115.611L69.7581 114.496L69.7308 113.352L64.8947 110.407L63.9112 110.979L62.1079 109.892V108.749L57.2445 105.775L56.2609 106.376L54.4577 105.261L54.485 104.088L49.6217 101.143L48.6381 101.744L46.8348 100.629L46.8621 99.485L41.9988 96.5115L41.0152 97.1119L39.2119 95.9968L39.2666 63.2308Z" fill="#FA2327"/>
<path fill-rule="evenodd" clip-rule="evenodd" d="M85.8759 123.215L86.8595 123.816L118.772 104.545V72.7795L117.815 72.179L117.242 72.5221C117.115 72.606 116.968 72.6505 116.818 72.6505C116.668 72.6505 116.521 72.606 116.395 72.5221L111.559 69.663C111.425 69.5891 111.313 69.4778 111.236 69.3416C111.159 69.2053 111.119 69.0494 111.122 68.891V68.2906L110.165 67.7187L109.592 68.0618C109.46 68.1321 109.315 68.1687 109.168 68.1687C109.021 68.1687 108.876 68.1321 108.745 68.0618L103.963 64.9739C103.836 64.894 103.732 64.7806 103.66 64.6452C103.588 64.5097 103.551 64.3569 103.553 64.202V63.5444L102.57 62.9439L102.023 63.287C101.897 63.3709 101.75 63.4154 101.6 63.4154C101.45 63.4154 101.303 63.3709 101.176 63.287L96.3403 60.4279C96.1889 60.3794 96.0541 60.2862 95.9523 60.1593C95.8505 60.0325 95.786 59.8775 95.7665 59.7131V58.9411L94.8102 58.3407L94.2365 58.6838C94.1098 58.7676 93.9629 58.8121 93.813 58.8121C93.663 58.8121 93.5162 58.7676 93.3895 58.6838L88.5535 55.8246C88.4234 55.7461 88.3148 55.6338 88.2382 55.4986C88.1617 55.3633 88.1197 55.2098 88.1163 55.0526V54.3092L87.16 53.7374L86.7502 53.9947C86.6182 54.0779 86.4671 54.1219 86.313 54.1219C86.159 54.1219 86.0078 54.0779 85.8759 53.9947L81.0399 51.1356C80.9098 51.057 80.8012 50.9447 80.7246 50.8095C80.6481 50.6743 80.6061 50.5207 80.6027 50.3636V49.6774L79.6464 49.077L79.1 49.4201C78.9733 49.5039 78.8264 49.5484 78.6765 49.5484C78.5266 49.5484 78.3797 49.5039 78.253 49.4201L73.417 46.5609C73.2869 46.4824 73.1783 46.3701 73.1017 46.2348C73.0252 46.0996 72.9832 45.9461 72.9798 45.7889V45.0455L72.0235 44.4737L40.0839 63.7445V95.4813L41.0129 96.0817L41.5866 95.7386C41.7103 95.6604 41.852 95.6191 41.9965 95.6191C42.141 95.6191 42.2827 95.6604 42.4063 95.7386L47.2697 98.5978C47.3998 98.6763 47.5083 98.7886 47.5849 98.9238C47.6615 99.059 47.7034 99.2126 47.7068 99.3697V99.9988L48.6358 100.599L49.3188 100.399C49.4455 100.315 49.5924 100.271 49.7423 100.271C49.8922 100.271 50.0391 100.315 50.1658 100.399L55.0292 103.258C55.1525 103.342 55.2543 103.456 55.3257 103.591C55.3971 103.725 55.436 103.876 55.439 104.03V104.688L56.3679 105.26L56.9417 104.917C57.0705 104.839 57.2165 104.798 57.3652 104.798C57.5139 104.798 57.6599 104.839 57.7887 104.917L62.652 107.776C62.7767 107.851 62.8802 107.959 62.9522 108.09C63.0241 108.22 63.062 108.368 63.0619 108.519V109.177L64.0181 109.777L64.5646 109.434C64.6913 109.35 64.8382 109.306 64.9881 109.306C65.138 109.306 65.2849 109.35 65.4116 109.434L70.2749 112.293C70.3982 112.377 70.5 112.491 70.5715 112.626C70.6429 112.76 70.6818 112.911 70.6848 113.065V114.037L71.6684 114.638L72.2148 114.295C72.3436 114.217 72.4896 114.176 72.6383 114.176C72.787 114.176 72.933 114.217 73.0618 114.295L77.9251 117.154C78.0467 117.23 78.1463 117.34 78.2136 117.471C78.2809 117.601 78.3134 117.749 78.3076 117.897V118.555L79.2639 119.127L79.8377 118.812C79.959 118.727 80.1016 118.682 80.2475 118.682C80.3934 118.682 80.536 118.727 80.6574 118.812L85.548 121.671C85.6611 121.757 85.7542 121.869 85.8204 121.997C85.8866 122.126 85.9243 122.269 85.9305 122.415V123.072L85.8759 123.215ZM86.8322 125.731H86.5316L86.313 125.474L84.5917 124.416C84.4705 124.337 84.3698 124.227 84.2984 124.098C84.2269 123.968 84.1869 123.822 84.1819 123.673V123.044L80.1656 120.585L79.6191 120.928C79.488 120.998 79.3429 121.035 79.1956 121.035C79.0483 121.035 78.9032 120.998 78.7721 120.928L76.9415 119.756C76.8264 119.665 76.7322 119.549 76.666 119.415C76.5997 119.282 76.5632 119.134 76.559 118.984V118.355L72.5427 116.039L71.9689 116.353C71.8422 116.437 71.6953 116.482 71.5454 116.482C71.3955 116.482 71.2486 116.437 71.1219 116.353L69.3186 115.238C69.194 115.163 69.0904 115.054 69.0185 114.924C68.9466 114.793 68.9087 114.645 68.9088 114.495V113.866L64.8925 111.407L64.346 111.75C64.2141 111.833 64.0629 111.877 63.9089 111.877C63.7548 111.877 63.6037 111.833 63.4717 111.75L61.6958 110.635C61.5691 110.562 61.464 110.454 61.3918 110.323C61.3195 110.192 61.2829 110.043 61.2859 109.891V109.262L57.2423 106.804L56.6958 107.147C56.567 107.224 56.421 107.265 56.2723 107.265C56.1236 107.265 55.9776 107.224 55.8488 107.147L54.0456 106.06C53.9223 105.976 53.8204 105.862 53.749 105.727C53.6776 105.593 53.6387 105.442 53.6357 105.288V104.602L49.6194 102.172L49.0729 102.486C48.9462 102.57 48.7994 102.615 48.6494 102.615C48.4995 102.615 48.3527 102.57 48.2259 102.486L46.4227 101.371C46.298 101.296 46.1945 101.187 46.1225 101.057C46.0506 100.926 46.0127 100.778 46.0128 100.628V99.9702L41.9965 97.5399L41.45 97.883C41.3213 97.9608 41.1752 98.0017 41.0265 98.0017C40.8779 98.0017 40.7318 97.9608 40.6031 97.883L38.7998 96.8823C38.6528 96.7965 38.5346 96.6653 38.4612 96.5068C38.3879 96.3482 38.363 96.1698 38.39 95.9959V63.2299C38.4123 63.0934 38.463 62.9637 38.5385 62.8501C38.6141 62.7364 38.7126 62.6416 38.8271 62.5722L71.6137 42.5581C71.7448 42.4878 71.8899 42.4512 72.0372 42.4512C72.1845 42.4512 72.3296 42.4878 72.4607 42.5581L74.264 43.6731C74.3908 43.7531 74.4954 43.8665 74.5673 44.0019C74.6392 44.1374 74.6759 44.2902 74.6738 44.4451V45.1885L78.6902 47.6474L79.3732 47.3043C79.4994 47.2342 79.6401 47.1975 79.783 47.1975C79.9259 47.1975 80.0667 47.2342 80.1929 47.3043L81.9961 48.4194C82.123 48.4993 82.2276 48.6127 82.2995 48.7481C82.3714 48.8836 82.4081 49.0364 82.406 49.1913V49.8489L86.4223 52.2792L86.9961 51.9361C87.1223 51.866 87.263 51.8294 87.4059 51.8294C87.5488 51.8294 87.6895 51.866 87.8158 51.9361L89.619 53.0512C89.7437 53.1265 89.8472 53.2349 89.9192 53.3654C89.9911 53.4959 90.0289 53.6439 90.0288 53.7946V54.4522L93.9359 56.8539L94.5097 56.5108C94.6364 56.427 94.7833 56.3824 94.9332 56.3824C95.0831 56.3824 95.23 56.427 95.3567 56.5108L97.1599 57.5973C97.2832 57.6812 97.3851 57.7954 97.4565 57.93C97.5279 58.0646 97.5668 58.2154 97.5698 58.3693V59.0269L101.586 61.4572L102.16 61.1141C102.291 61.0438 102.436 61.0072 102.583 61.0072C102.731 61.0072 102.876 61.0438 103.007 61.1141L104.783 62.2291C104.919 62.3004 105.032 62.411 105.11 62.5479C105.187 62.6848 105.226 62.8421 105.22 63.0011V63.6301L109.209 66.0604L109.783 65.7173C109.914 65.6471 110.059 65.6104 110.206 65.6104C110.354 65.6104 110.499 65.6471 110.63 65.7173L112.433 66.8324C112.556 66.9163 112.658 67.0306 112.73 67.1651C112.801 67.2997 112.84 67.4505 112.843 67.6044V68.2906L116.859 70.7209L117.433 70.3778C117.564 70.3075 117.709 70.2709 117.856 70.2709C118.004 70.2709 118.149 70.3075 118.28 70.3778L120.083 71.4928C120.208 71.5749 120.311 71.6887 120.383 71.8237C120.455 71.9586 120.493 72.1104 120.493 72.2648V105.059C120.488 105.212 120.445 105.361 120.368 105.491C120.291 105.622 120.184 105.729 120.056 105.803L87.2693 125.617C87.1356 125.694 86.9849 125.734 86.8322 125.731V125.731Z" fill="#AD181B"/>
<path fill-rule="evenodd" clip-rule="evenodd" d="M89.7579 123.101L86.8345 124.845L85.0312 123.73V122.587L80.1678 119.613L79.1842 120.213L77.381 119.098V117.983L72.545 115.01L71.534 115.61L69.7581 114.495L69.7308 113.351L64.8948 110.406L63.9112 110.978L62.1079 109.892V108.748L57.2445 105.775L56.2609 106.375L54.4577 105.26L54.485 104.088L49.6217 101.143L48.6381 101.743L46.8348 100.628L46.8621 99.4845L41.9988 96.5109L41.0152 97.1113L39.2119 95.9963L39.2666 63.2588L41.0698 64.3739V65.5175L45.9058 68.4911L46.8894 67.8906L48.6927 69.0057V70.1494L53.5287 73.1229L54.5123 72.5225L56.3156 73.6376V74.7812L61.1516 77.7262L62.1625 77.1258L63.9658 78.2408V79.4131L68.7745 82.358L69.8127 81.7576L71.5887 82.8727V84.0164L76.4247 86.9613L77.4356 86.3609L79.2389 87.4759V88.6196L84.0749 91.5931L85.0858 90.9927L86.8891 92.0792L89.7579 123.101Z" fill="#D41E21"/>
<path fill-rule="evenodd" clip-rule="evenodd" d="M85.8759 123.215L86.8595 123.815L88.854 122.615L86.1218 92.6219L85.1382 91.9928L84.5644 92.3645C84.4357 92.4423 84.2896 92.4833 84.1409 92.4833C83.9923 92.4833 83.8462 92.4423 83.7174 92.3645L78.8541 89.5054C78.7224 89.4362 78.6117 89.3301 78.5345 89.1987C78.4572 89.0674 78.4165 88.9162 78.4169 88.762V88.0758L77.488 87.5039L76.9142 87.847C76.7823 87.9303 76.6311 87.9742 76.4771 87.9742C76.323 87.9742 76.1719 87.9303 76.0399 87.847L71.2039 84.9879C71.0806 84.9039 70.9788 84.7897 70.9073 84.6552C70.8359 84.5206 70.797 84.3698 70.794 84.2159V83.5583L69.8378 82.9579L69.264 83.3296C69.1353 83.4074 68.9892 83.4483 68.8405 83.4483C68.6918 83.4483 68.5458 83.4074 68.417 83.3296L63.581 80.4704C63.4563 80.3951 63.3528 80.2867 63.2808 80.1562C63.2089 80.0257 63.1711 79.8777 63.1712 79.727V79.0694L62.2149 78.469L61.6411 78.8121C61.5144 78.8959 61.3676 78.9404 61.2176 78.9404C61.0677 78.9404 60.9209 78.8959 60.7941 78.8121L55.9581 75.9529C55.8242 75.879 55.7125 75.7678 55.6354 75.6315C55.5582 75.4953 55.5186 75.3393 55.521 75.1809V74.5519L54.5647 73.9515L53.9636 74.0087C53.8369 74.0925 53.69 74.137 53.5401 74.137C53.3902 74.137 53.2433 74.0925 53.1166 74.0087L48.2806 71.1495C48.1505 71.071 48.0419 70.9587 47.9654 70.8234C47.8888 70.6882 47.8468 70.5347 47.8434 70.3775V69.4912L46.8871 68.9194L46.3134 69.2339C46.1921 69.3187 46.0495 69.364 45.9036 69.364C45.7577 69.364 45.615 69.3187 45.4937 69.2339L40.6304 66.2889C40.495 66.1973 40.3856 66.0694 40.3136 65.9186C40.2415 65.7677 40.2094 65.5994 40.2205 65.4312V64.8593H40.0839V95.481L41.0129 96.0814L41.5866 95.7383C41.7103 95.6602 41.852 95.6188 41.9965 95.6188C42.141 95.6188 42.2827 95.6602 42.4063 95.7383L47.2697 98.5975C47.3998 98.6761 47.5083 98.7884 47.5849 98.9236C47.6615 99.0588 47.7034 99.2124 47.7068 99.3695V99.9985L48.6358 100.599L49.3188 100.399C49.4455 100.315 49.5924 100.27 49.7423 100.27C49.8922 100.27 50.0391 100.315 50.1658 100.399L55.0292 103.258C55.1525 103.342 55.2543 103.456 55.3257 103.591C55.3971 103.725 55.436 103.876 55.439 104.03V104.688L56.3679 105.259L56.9417 104.916C57.0705 104.838 57.2165 104.798 57.3652 104.798C57.5139 104.798 57.6599 104.838 57.7887 104.916L62.652 107.775C62.7767 107.851 62.8802 107.959 62.9522 108.09C63.0241 108.22 63.062 108.368 63.0619 108.519V109.176L64.0182 109.777L64.5646 109.434C64.6913 109.35 64.8382 109.305 64.9881 109.305C65.138 109.305 65.2849 109.35 65.4116 109.434L70.2749 112.293C70.3982 112.377 70.5 112.491 70.5715 112.626C70.6429 112.76 70.6818 112.911 70.6848 113.065V114.037L71.6684 114.637L72.2148 114.294C72.3436 114.217 72.4896 114.176 72.6383 114.176C72.787 114.176 72.933 114.217 73.0618 114.294L77.9251 117.154C78.0467 117.23 78.1463 117.34 78.2136 117.47C78.2809 117.601 78.3134 117.748 78.3076 117.897V118.555L79.2639 119.126L79.8377 118.812C79.959 118.727 80.1016 118.682 80.2475 118.682C80.3934 118.682 80.536 118.727 80.6574 118.812L85.548 121.671C85.6611 121.757 85.7542 121.868 85.8204 121.997C85.8866 122.126 85.9243 122.268 85.9305 122.414V123.072L85.8759 123.215ZM86.8322 125.731H86.5316L86.313 125.474L84.5917 124.416C84.4706 124.336 84.3698 124.227 84.2984 124.098C84.2269 123.968 84.1869 123.822 84.1819 123.672V123.043L80.1656 120.585L79.6191 120.928C79.488 120.998 79.3429 121.035 79.1956 121.035C79.0484 121.035 78.9032 120.998 78.7721 120.928L76.9415 119.755C76.8264 119.665 76.7322 119.549 76.666 119.415C76.5997 119.281 76.5632 119.134 76.559 118.983V118.354L72.5427 116.038L71.9689 116.353C71.8422 116.437 71.6953 116.481 71.5454 116.481C71.3955 116.481 71.2486 116.437 71.1219 116.353L69.3187 115.238C69.194 115.163 69.0904 115.054 69.0185 114.924C68.9466 114.793 68.9087 114.645 68.9088 114.494V113.865L64.8925 111.407L64.346 111.75C64.2141 111.833 64.0629 111.877 63.9089 111.877C63.7548 111.877 63.6037 111.833 63.4717 111.75L61.6958 110.635C61.5692 110.562 61.464 110.454 61.3918 110.323C61.3196 110.192 61.2829 110.042 61.2859 109.891V109.262L57.2423 106.803L56.6958 107.146C56.5671 107.224 56.421 107.265 56.2723 107.265C56.1236 107.265 55.9776 107.224 55.8488 107.146L54.0456 106.06C53.9223 105.976 53.8204 105.862 53.749 105.727C53.6776 105.593 53.6387 105.442 53.6357 105.288V104.602L49.6194 102.171L49.0729 102.486C48.9462 102.57 48.7994 102.614 48.6494 102.614C48.4995 102.614 48.3527 102.57 48.2259 102.486L46.4227 101.371C46.298 101.296 46.1945 101.187 46.1225 101.057C46.0506 100.926 46.0127 100.778 46.0128 100.628V99.9699L41.9965 97.5396L41.45 97.8827C41.3213 97.9605 41.1752 98.0015 41.0265 98.0015C40.8779 98.0015 40.7318 97.9605 40.6031 97.8827L38.7998 96.882C38.6528 96.7962 38.5346 96.6651 38.4612 96.5065C38.3879 96.3479 38.363 96.1696 38.39 95.9957V63.2582C38.3897 63.0627 38.4511 62.8726 38.5648 62.7175C38.6784 62.5624 38.8379 62.4509 39.0184 62.4004C39.1374 62.3798 39.2592 62.3843 39.3765 62.4137C39.4938 62.4432 39.6043 62.497 39.7014 62.572L41.5047 63.6871C41.6235 63.7759 41.7218 63.8912 41.7927 64.0247C41.8636 64.1583 41.9052 64.3066 41.9145 64.459V65.1167L45.9036 67.5469L46.5866 67.1181C46.7225 67.0475 46.8721 67.0108 47.0238 67.0108C47.1754 67.0108 47.325 67.0475 47.4609 67.1181L49.1276 68.2903C49.2509 68.3743 49.3527 68.4885 49.4241 68.623C49.4956 68.7576 49.5344 68.9084 49.5374 69.0623V69.7199L53.5264 72.1502L54.0729 71.8071C54.2067 71.7295 54.3571 71.6888 54.51 71.6888C54.663 71.6888 54.8134 71.7295 54.9472 71.8071L56.7505 72.8936C56.8704 72.979 56.9682 73.0942 57.035 73.229C57.1017 73.3638 57.1354 73.5138 57.133 73.6656V74.3232L61.1493 76.8678L61.7231 76.5247C61.855 76.4415 62.0062 76.3976 62.1602 76.3976C62.3143 76.3976 62.4654 76.4415 62.5974 76.5247L64.4007 77.6398C64.5185 77.7207 64.6151 77.831 64.6819 77.9608C64.7487 78.0906 64.7835 78.2358 64.7832 78.3832V79.0408L68.7722 81.4711L69.3733 81.128C69.5021 81.0502 69.6481 81.0093 69.7968 81.0093C69.9455 81.0093 70.0915 81.0502 70.2203 81.128L72.0235 82.2431C72.1486 82.3251 72.2517 82.4389 72.3234 82.5739C72.395 82.7089 72.4329 82.8606 72.4334 83.015V83.6727L76.4224 86.103L77.0235 85.7313C77.1471 85.6531 77.2889 85.6117 77.4333 85.6117C77.5778 85.6117 77.7195 85.6531 77.8432 85.7313L79.6464 86.8177C79.7733 86.8977 79.8779 87.0111 79.9498 87.1465C80.0217 87.282 80.0584 87.4348 80.0563 87.5897V88.2473L84.0726 90.6776L84.6464 90.3345C84.7775 90.2643 84.9226 90.2276 85.0699 90.2276C85.2171 90.2276 85.3623 90.2643 85.4934 90.3345L87.2966 91.4496C87.4093 91.525 87.5045 91.6257 87.5754 91.7444C87.6463 91.8631 87.6911 91.9968 87.7065 92.1358L90.5753 122.986C90.5955 123.152 90.5703 123.321 90.5026 123.473C90.4349 123.625 90.3275 123.753 90.1928 123.844L87.2693 125.617C87.1356 125.694 86.9849 125.734 86.8322 125.731V125.731Z" fill="#AD181B"/>
<path fill-rule="evenodd" clip-rule="evenodd" d="M86.8881 92.0804L119.647 72.2949L119.593 105.061L86.8335 124.846L86.8881 92.0804Z" fill="#D41E21"/>
<path fill-rule="evenodd" clip-rule="evenodd" d="M87.7066 92.5938V123.33L118.799 104.545V73.809L87.7066 92.5938ZM86.8323 125.732C86.6987 125.774 86.5562 125.774 86.4225 125.732C86.2957 125.649 86.1898 125.536 86.1137 125.401C86.0376 125.267 85.9936 125.116 85.9854 124.96V92.0791C85.9936 91.9232 86.0376 91.7716 86.1137 91.6372C86.1898 91.5028 86.2957 91.3896 86.4225 91.3071L119.209 71.5217C119.341 71.4385 119.492 71.3945 119.646 71.3945C119.8 71.3945 119.951 71.4385 120.083 71.5217C120.212 71.5994 120.318 71.7123 120.391 71.8483C120.463 71.9842 120.498 72.1382 120.493 72.2937V105.06C120.488 105.213 120.445 105.361 120.368 105.492C120.292 105.622 120.184 105.729 120.056 105.803L87.2695 125.617C87.135 125.692 86.9848 125.732 86.8323 125.732V125.732Z" fill="#AD181B"/>
<path fill-rule="evenodd" clip-rule="evenodd" d="M111.584 114.039L143.004 95.0537C143.69 96.1122 144.181 97.2951 144.453 98.5419L148.196 116.898C148.282 117.369 148.327 117.848 148.332 118.327V138.056L116.912 156.926V137.284C116.898 136.812 116.843 136.343 116.748 135.883L113.032 117.441C112.738 116.229 112.248 115.078 111.584 114.039V114.039Z" fill="white"/>
<path fill-rule="evenodd" clip-rule="evenodd" d="M112.733 114.296C113.238 115.183 113.607 116.148 113.826 117.155L117.624 135.683C117.741 136.208 117.805 136.745 117.815 137.284V155.468L147.542 137.513V118.299C147.567 117.88 147.567 117.46 147.542 117.041L143.771 98.6565C143.593 97.7932 143.289 96.9638 142.87 96.1976L112.815 114.296H112.733ZM116.913 157.87C116.78 157.916 116.637 157.916 116.504 157.87C116.368 157.799 116.254 157.688 116.177 157.551C116.099 157.414 116.061 157.257 116.066 157.098V137.284C116.062 136.87 116.016 136.458 115.93 136.054L112.159 117.641C111.929 116.511 111.483 115.441 110.848 114.496C110.78 114.398 110.733 114.287 110.71 114.168C110.686 114.05 110.687 113.928 110.711 113.81C110.733 113.688 110.781 113.573 110.852 113.474C110.923 113.374 111.015 113.294 111.121 113.238L142.542 94.2534C142.725 94.1414 142.942 94.1058 143.15 94.1534C143.357 94.2011 143.54 94.3286 143.662 94.5107C144.421 95.6478 144.96 96.9302 145.247 98.2848L148.962 116.698C149.091 117.211 149.156 117.74 149.154 118.27V138.027C149.151 138.177 149.112 138.324 149.04 138.454C148.969 138.584 148.867 138.693 148.744 138.771L117.323 157.755C117.201 157.836 117.058 157.876 116.913 157.87V157.87Z" fill="#AD181B"/>
<path fill-rule="evenodd" clip-rule="evenodd" d="M90.6015 101.17C90.6015 100.713 90.9021 100.513 91.2846 100.742L109.099 111.521C110.083 112.148 110.931 112.986 111.585 113.979V113.979C112.248 115.041 112.737 116.21 113.033 117.439L116.749 135.881C116.859 136.339 116.914 136.809 116.913 137.282V156.924C116.913 157.382 116.612 157.582 116.23 157.353L112.35 155.009C112.35 154.751 112.35 154.465 112.35 154.208C112.228 151.179 111.382 148.23 109.891 145.63V145.63C108.478 142.926 106.439 140.636 103.962 138.969C103.109 138.325 102.108 137.93 101.062 137.824C100.015 137.719 98.9603 137.907 98.0058 138.368C97.1404 139.001 96.4533 139.866 96.0159 140.872C95.5786 141.878 95.4072 142.988 95.5195 144.087C95.5195 144.344 95.5195 144.63 95.5195 144.916L90.5742 142.057L90.6015 101.17Z" fill="#FA2327"/>
<path fill-rule="evenodd" clip-rule="evenodd" d="M113.308 154.581L116.04 156.296V137.283C116.037 136.869 115.992 136.457 115.904 136.053L112.161 117.64C111.93 116.51 111.484 115.44 110.849 114.495C110.288 113.609 109.552 112.858 108.691 112.294L91.4231 101.858V141.4L94.7018 143.373C94.6773 142.243 94.9278 141.126 95.4297 140.125C95.9315 139.125 96.6683 138.275 97.5706 137.654C98.6514 137.119 99.8491 136.895 101.04 137.006C102.231 137.116 103.373 137.557 104.346 138.283C106.938 140.023 109.094 142.388 110.635 145.178C112.175 147.969 113.054 151.104 113.199 154.323V154.638L113.308 154.581ZM116.614 158.383C116.356 158.385 116.101 158.316 115.876 158.183L112.024 155.839C111.886 155.755 111.772 155.634 111.695 155.488C111.618 155.342 111.581 155.176 111.587 155.009C111.6 154.762 111.6 154.514 111.587 154.266C111.42 151.362 110.607 148.539 109.212 146.022C107.817 143.505 105.88 141.364 103.554 139.77C102.836 139.215 101.993 138.865 101.107 138.754C100.22 138.644 99.3217 138.777 98.4995 139.141C97.7656 139.698 97.1881 140.45 96.8276 141.321C96.467 142.191 96.3368 143.146 96.4504 144.087C96.4372 144.345 96.4372 144.602 96.4504 144.859C96.4602 145.016 96.43 145.173 96.3628 145.314C96.2956 145.455 96.1938 145.574 96.0679 145.66C95.9341 145.738 95.7837 145.778 95.6307 145.778C95.4778 145.778 95.3273 145.738 95.1936 145.66L90.3029 142.629C90.176 142.549 90.0715 142.436 89.9995 142.301C89.9276 142.165 89.8909 142.012 89.893 141.857V101.171C89.8805 100.929 89.9295 100.688 90.0351 100.472C90.1406 100.256 90.299 100.073 90.4941 99.9419C90.6893 99.809 90.9171 99.7383 91.1499 99.7383C91.3827 99.7383 91.6105 99.809 91.8056 99.9419L109.428 110.75C110.517 111.497 111.446 112.47 112.161 113.609C112.913 114.747 113.442 116.029 113.718 117.383L117.625 135.682C117.749 136.205 117.813 136.743 117.816 137.283V156.925C117.832 157.171 117.782 157.417 117.671 157.634C117.559 157.852 117.392 158.032 117.188 158.155C116.996 158.298 116.768 158.378 116.532 158.383H116.614Z" fill="#AD181B"/>
<path fill-rule="evenodd" clip-rule="evenodd" d="M73.9087 123.902L76.0945 122.616C76.395 122.444 76.5043 122.387 76.8048 122.616L89.9468 130.564C90.142 130.702 90.3049 130.884 90.4232 131.097C90.5415 131.31 90.6122 131.548 90.6299 131.794C90.6299 134.653 90.6299 141.315 90.6299 144.117L88.1162 145.489C88.3075 145.489 88.3075 145.26 88.3348 145.032V133.166C88.3205 132.916 88.2483 132.674 88.1246 132.46C88.0008 132.245 87.8292 132.066 87.6244 131.937L74.4551 123.96C74.3783 123.897 74.2863 123.859 74.1897 123.849C74.0931 123.839 73.9958 123.857 73.9087 123.902V123.902Z" fill="#D41E21"/>
<path fill-rule="evenodd" clip-rule="evenodd" d="M75.8498 123.786L88.0628 131.192C88.3779 131.396 88.6416 131.677 88.8317 132.011C89.0219 132.344 89.133 132.72 89.1557 133.107V143.972L89.7841 143.601V131.764C89.777 131.651 89.7464 131.542 89.6944 131.443C89.6425 131.344 89.5705 131.258 89.4836 131.192L76.4782 123.358L75.8498 123.729V123.786ZM88.1175 146.488C87.9807 146.486 87.8466 146.449 87.7273 146.379C87.608 146.309 87.5073 146.209 87.4344 146.088C87.3297 145.933 87.2735 145.749 87.2735 145.559C87.2735 145.37 87.3297 145.185 87.4344 145.03V133.165C87.4351 133.058 87.4074 132.953 87.3543 132.862C87.3011 132.771 87.2248 132.698 87.1339 132.65L74.1012 124.759C73.9211 124.792 73.7356 124.758 73.5763 124.665C73.4169 124.571 73.2935 124.422 73.2269 124.244C73.1371 124.049 73.121 123.826 73.1818 123.619C73.2426 123.412 73.3758 123.237 73.5547 123.129L75.6312 121.871C75.8655 121.706 76.1413 121.618 76.4236 121.618C76.7058 121.618 76.9817 121.706 77.2159 121.871L90.3032 129.762C90.6199 129.965 90.8848 130.245 91.0751 130.579C91.2655 130.913 91.3756 131.29 91.3961 131.678V144.087C91.3932 144.24 91.3543 144.391 91.2828 144.526C91.2114 144.66 91.1096 144.775 90.9863 144.859L88.4727 146.345C88.3696 146.427 88.2464 146.477 88.1175 146.488V146.488Z" fill="#AD181B"/>
<path fill-rule="evenodd" clip-rule="evenodd" d="M88.3323 143.659V145.146C88.3323 145.603 88.0044 145.775 87.6219 145.546L74.4526 137.598C74.261 137.458 74.1023 137.275 73.9887 137.062C73.875 136.849 73.8094 136.612 73.7969 136.368V124.36C73.7969 123.902 74.0974 123.731 74.4526 123.959L87.5673 131.936C87.7699 132.061 87.9405 132.236 88.0643 132.445C88.1881 132.654 88.2613 132.892 88.2776 133.137L88.3323 143.659Z" fill="#FA2327"/>
<path fill-rule="evenodd" clip-rule="evenodd" d="M74.6166 125.074V136.511C74.6471 136.695 74.7452 136.859 74.8899 136.968L87.5674 144.431V132.994C87.5336 132.824 87.4583 132.667 87.3488 132.536L74.7259 124.931L74.6166 125.074ZM87.9499 146.518C87.6997 146.523 87.4532 146.454 87.2395 146.318L74.0429 138.341C73.7225 138.135 73.4553 137.85 73.2648 137.511C73.0742 137.172 72.9661 136.789 72.95 136.396V124.359C72.9378 124.117 72.9898 123.876 73.1004 123.663C73.211 123.449 73.3758 123.272 73.5766 123.151C73.7774 123.03 74.0063 122.969 74.2381 122.975C74.4699 122.981 74.6954 123.055 74.8899 123.187L88.0592 131.193C88.3816 131.403 88.6499 131.693 88.8404 132.037C89.031 132.381 89.138 132.768 89.152 133.165V145.174C89.1659 145.416 89.1143 145.657 89.0031 145.869C88.892 146.082 88.7258 146.257 88.5236 146.375C88.3502 146.481 88.1504 146.531 87.9499 146.518V146.518Z" fill="#AD181B"/>
<path fill-rule="evenodd" clip-rule="evenodd" d="M95.9013 108.119L107.541 115.181C108.11 115.541 108.595 116.029 108.961 116.61V116.61C109.364 117.214 109.652 117.894 109.808 118.612V118.612L112.896 133.765C112.896 134.28 112.896 134.595 112.431 134.48H112.24L95.8466 124.588C95.6474 124.461 95.481 124.286 95.3619 124.076C95.2428 123.867 95.1747 123.63 95.1636 123.387V108.548C95.2182 108.09 95.5188 107.919 95.9013 108.119Z" fill="#D41E21"/>
<path fill-rule="evenodd" clip-rule="evenodd" d="M96.0667 109.235V123.331C96.0928 123.509 96.1802 123.672 96.3126 123.788L111.914 133.195L108.99 118.899C108.857 118.286 108.616 117.704 108.28 117.183C107.974 116.708 107.573 116.308 107.105 116.011L96.176 109.321L96.0667 109.235ZM112.46 135.396H112.159L111.75 135.225L95.3564 125.332C95.0322 125.124 94.7627 124.834 94.5719 124.49C94.3811 124.146 94.2751 123.757 94.2635 123.359V108.549C94.2512 108.306 94.3033 108.065 94.4139 107.852C94.5244 107.639 94.6892 107.462 94.89 107.34C95.0908 107.219 95.3198 107.158 95.5516 107.165C95.7833 107.171 96.0089 107.244 96.2033 107.376L107.843 114.41C108.521 114.833 109.1 115.409 109.537 116.097C110.014 116.8 110.349 117.598 110.52 118.441L113.608 133.595C113.675 133.849 113.677 134.118 113.615 134.374C113.553 134.629 113.428 134.864 113.252 135.053C113.061 135.251 112.81 135.373 112.542 135.396H112.46Z" fill="#AD181B"/>
<path fill-rule="evenodd" clip-rule="evenodd" d="M115.303 116.068L142.106 99.8848L145.849 118.298L119.046 134.481L115.303 116.068Z" fill="#D41E21"/>
<path fill-rule="evenodd" clip-rule="evenodd" d="M116.26 116.525L119.621 133.136L144.948 117.868L141.588 101.257L116.26 116.525ZM118.992 135.367C118.875 135.393 118.754 135.393 118.637 135.367C118.52 135.311 118.417 135.228 118.337 135.124C118.256 135.02 118.2 134.897 118.173 134.766L114.43 116.353C114.388 116.174 114.402 115.985 114.471 115.815C114.54 115.645 114.66 115.503 114.812 115.41L141.642 99.1981C141.761 99.1353 141.892 99.1025 142.025 99.1025C142.158 99.1025 142.289 99.1353 142.407 99.1981C142.521 99.2582 142.621 99.3428 142.701 99.4463C142.781 99.5497 142.839 99.6698 142.872 99.7985L146.615 118.24C146.654 118.423 146.636 118.614 146.562 118.784C146.488 118.954 146.363 119.095 146.205 119.184L119.402 135.367C119.286 135.398 119.163 135.398 119.047 135.367H118.992Z" fill="#AD181B"/>
<path fill-rule="evenodd" clip-rule="evenodd" d="M117.816 128.474L131.341 120.497L133.855 115.751L140.876 111.576L144.674 112.577L145.849 118.295L119.046 134.478L117.816 128.474Z" fill="#FA2327"/>
<path fill-rule="evenodd" clip-rule="evenodd" d="M118.771 128.932L119.618 133.135L144.946 117.867L144.017 113.292L141.038 112.52L134.536 116.38L132.131 120.926C132.051 121.06 131.938 121.169 131.804 121.241L118.826 128.932H118.771ZM119.044 135.365C118.927 135.392 118.806 135.392 118.689 135.365C118.572 135.31 118.469 135.227 118.388 135.123C118.308 135.019 118.252 134.896 118.224 134.765L116.995 128.761C116.954 128.574 116.971 128.378 117.045 128.203C117.119 128.028 117.245 127.882 117.405 127.788L130.711 119.754L133.142 115.237C133.203 115.09 133.309 114.97 133.443 114.894L140.465 110.748C140.666 110.663 140.891 110.663 141.093 110.748L144.946 111.749C145.1 111.783 145.241 111.864 145.352 111.98C145.464 112.097 145.541 112.245 145.574 112.406L146.721 118.124C146.761 118.307 146.742 118.498 146.668 118.668C146.594 118.839 146.469 118.979 146.312 119.068L119.509 135.251C119.371 135.344 119.207 135.384 119.044 135.365V135.365Z" fill="#AD181B"/>
<path fill-rule="evenodd" clip-rule="evenodd" d="M112.158 130.161L112.896 133.764C112.896 134.278 112.896 134.593 112.431 134.478H112.24L95.8466 124.586C95.6474 124.459 95.481 124.284 95.3619 124.074C95.2428 123.865 95.1747 123.628 95.1636 123.385V120.812L112.158 130.161Z" fill="#FA2327"/>
<path fill-rule="evenodd" clip-rule="evenodd" d="M96.065 122.216V123.331C96.0911 123.509 96.1785 123.672 96.3109 123.788L111.912 133.195L111.42 130.736L96.065 122.158V122.216ZM112.458 135.396H112.158L111.748 135.225L95.3546 125.332C95.0305 125.124 94.7609 124.835 94.5701 124.49C94.3794 124.146 94.2734 123.757 94.2617 123.359V120.786C94.2647 120.632 94.3036 120.481 94.375 120.347C94.4464 120.212 94.5482 120.098 94.6716 120.014C94.8026 119.944 94.9478 119.907 95.095 119.907C95.2423 119.907 95.3875 119.944 95.5185 120.014L112.431 129.449C112.542 129.51 112.638 129.595 112.714 129.698C112.789 129.802 112.842 129.922 112.868 130.05L113.606 133.652C113.673 133.907 113.676 134.175 113.613 134.431C113.551 134.687 113.426 134.921 113.251 135.111C113.052 135.288 112.801 135.388 112.54 135.396H112.458Z" fill="#AD181B"/>
<path fill-rule="evenodd" clip-rule="evenodd" d="M77.4042 131.877C78.1419 132.335 78.743 131.877 78.743 131.077C78.7148 130.591 78.5792 130.118 78.3469 129.697C78.1145 129.275 77.7918 128.915 77.4042 128.646C76.6392 128.217 76.0381 128.646 76.0381 129.476C76.0503 129.965 76.1824 130.442 76.4216 130.863C76.6608 131.283 76.9991 131.633 77.4042 131.877Z" fill="#D41E21"/>
<path fill-rule="evenodd" clip-rule="evenodd" d="M76.9708 129.421C76.9623 129.759 77.0354 130.093 77.1835 130.393C77.3316 130.693 77.5498 130.949 77.8178 131.137C77.8801 131.157 77.9467 131.157 78.0091 131.137C77.8878 130.43 77.5172 129.798 76.9708 129.364V129.421ZM78.0091 132.966C77.6431 132.955 77.2858 132.847 76.9708 132.652C76.4574 132.309 76.0306 131.841 75.7262 131.289C75.4219 130.736 75.249 130.115 75.2222 129.478C75.1958 129.145 75.2585 128.811 75.4033 128.513C75.548 128.215 75.7691 127.965 76.0419 127.791C76.3089 127.619 76.6163 127.528 76.9298 127.528C77.2434 127.528 77.5508 127.619 77.8178 127.791C78.3636 128.154 78.811 128.657 79.1173 129.253C79.4235 129.849 79.5781 130.517 79.5664 131.194C79.584 131.523 79.5203 131.85 79.3816 132.146C79.2428 132.441 79.0335 132.694 78.7741 132.881C78.5269 132.962 78.267 132.991 78.0091 132.966V132.966Z" fill="#AD181B"/>
<path fill-rule="evenodd" clip-rule="evenodd" d="M140.547 92.5357C141.512 93.179 142.348 94.0144 143.006 94.9946L111.585 114.037C110.939 113.036 110.09 112.197 109.099 111.578L91.285 100.799C91.2047 100.774 91.1193 100.774 91.0391 100.799V100.799L122.214 81.9854C122.432 81.9854 122.487 81.9854 122.678 81.9854L140.547 92.5357Z" fill="white"/>
<path fill-rule="evenodd" clip-rule="evenodd" d="M92.7594 100.629L109.426 110.75C110.285 111.302 111.043 112.009 111.666 112.838L141.721 94.7391C141.264 94.1636 140.719 93.6709 140.109 93.2809L122.486 82.5876L92.7594 100.629ZM111.584 114.925C111.445 114.934 111.306 114.904 111.182 114.839C111.057 114.774 110.951 114.675 110.874 114.553C110.313 113.667 109.577 112.916 108.716 112.352L90.8742 101.573C90.7 101.556 90.5359 101.48 90.4074 101.356C90.2789 101.232 90.1933 101.067 90.1638 100.886C90.1355 100.701 90.1622 100.511 90.2404 100.343C90.3186 100.174 90.4445 100.034 90.601 99.9428L121.885 81.0437C122.081 80.9449 122.296 80.8936 122.513 80.8936C122.731 80.8936 122.946 80.9449 123.142 81.0437L140.956 91.7942C142.054 92.528 142.987 93.5037 143.688 94.6533C143.756 94.7512 143.803 94.8629 143.826 94.9812C143.85 95.0994 143.849 95.2215 143.825 95.3395C143.753 95.573 143.609 95.7746 143.415 95.9114L111.994 114.896C111.858 114.926 111.716 114.916 111.584 114.868V114.925Z" fill="#AD181B"/>
<path fill-rule="evenodd" clip-rule="evenodd" d="M99.2622 131.192C99.1267 131.217 98.9879 131.217 98.8524 131.192L94.5082 128.333C94.3131 128.218 94.1692 128.028 94.1078 127.803C94.0464 127.578 94.0724 127.337 94.1803 127.132C94.234 127.03 94.3068 126.941 94.3944 126.87C94.482 126.799 94.5824 126.747 94.6897 126.717C94.797 126.688 94.9089 126.682 95.0185 126.699C95.1282 126.716 95.2334 126.756 95.3278 126.817L99.6994 129.448C99.8897 129.567 100.028 129.759 100.084 129.984C100.14 130.208 100.11 130.447 99.9999 130.649C99.9357 130.801 99.8332 130.932 99.7032 131.027C99.5732 131.123 99.4207 131.18 99.2622 131.192V131.192Z" fill="#AD181B"/>
<path fill-rule="evenodd" clip-rule="evenodd" d="M143.824 132.224C142.458 133.053 141.393 132.395 141.393 130.737C141.442 129.851 141.687 128.99 142.109 128.221C142.531 127.452 143.118 126.796 143.824 126.305C145.19 125.476 146.283 126.162 146.283 127.792C146.231 128.68 145.982 129.543 145.555 130.312C145.128 131.081 144.535 131.736 143.824 132.224V132.224Z" fill="#FA2327"/>
<path fill-rule="evenodd" clip-rule="evenodd" d="M144.946 126.819C144.7 126.836 144.463 126.925 144.263 127.076C143.675 127.48 143.184 128.02 142.829 128.655C142.473 129.29 142.263 130.002 142.214 130.736C142.214 131.193 142.214 131.536 142.487 131.651C142.76 131.765 143.006 131.651 143.389 131.479C143.971 131.065 144.455 130.518 144.805 129.879C145.156 129.24 145.363 128.526 145.41 127.791C145.431 127.627 145.417 127.46 145.37 127.302C145.323 127.144 145.243 126.999 145.137 126.876H144.919L144.946 126.819ZM142.733 133.452C142.368 133.463 142.008 133.363 141.695 133.166C141.311 132.908 141.001 132.546 140.799 132.118C140.597 131.69 140.51 131.212 140.547 130.736C140.578 129.705 140.842 128.696 141.317 127.791C141.792 126.887 142.464 126.113 143.279 125.532C143.655 125.27 144.091 125.116 144.541 125.086C144.992 125.055 145.443 125.15 145.848 125.361C146.232 125.619 146.541 125.981 146.744 126.409C146.946 126.837 147.033 127.315 146.995 127.791C146.964 128.822 146.7 129.831 146.225 130.736C145.75 131.64 145.078 132.414 144.263 132.995V132.995C143.801 133.287 143.273 133.445 142.733 133.452Z" fill="#AD181B"/>
<path fill-rule="evenodd" clip-rule="evenodd" d="M149.209 137.852V132.905L116.915 152.462V157.408L149.209 137.852Z" fill="#D41E21"/>
<path fill-rule="evenodd" clip-rule="evenodd" d="M117.761 152.952V155.811L148.389 137.284V134.425L117.761 152.952ZM116.914 158.299C116.781 158.344 116.637 158.344 116.504 158.299C116.368 158.227 116.255 158.117 116.177 157.98C116.1 157.843 116.061 157.686 116.067 157.527V152.466C116.065 152.307 116.104 152.152 116.181 152.015C116.259 151.879 116.37 151.768 116.504 151.694L148.799 132.137C148.93 132.067 149.075 132.03 149.222 132.03C149.37 132.03 149.515 132.067 149.646 132.137C149.78 132.211 149.891 132.322 149.969 132.459C150.046 132.595 150.085 132.751 150.083 132.909V137.856C150.089 138.015 150.05 138.172 149.973 138.309C149.895 138.446 149.782 138.556 149.646 138.627L117.324 158.184C117.201 158.265 117.058 158.305 116.914 158.299V158.299Z" fill="#AD181B"/>
<path fill-rule="evenodd" clip-rule="evenodd" d="M122.08 145.487C120.713 146.288 119.593 145.487 119.593 144C119.644 143.105 119.896 142.235 120.328 141.46C120.76 140.685 121.36 140.027 122.08 139.54C123.418 138.739 124.511 139.54 124.511 141.027C124.466 141.917 124.223 142.784 123.801 143.559C123.379 144.333 122.789 144.993 122.08 145.487Z" fill="#FA2327"/>
<path fill-rule="evenodd" clip-rule="evenodd" d="M123.09 139.943C122.848 139.961 122.614 140.04 122.407 140.171C121.815 140.578 121.322 141.123 120.967 141.763C120.611 142.403 120.402 143.121 120.358 143.86C120.339 144.019 120.354 144.181 120.401 144.334C120.449 144.487 120.527 144.628 120.631 144.746C120.783 144.796 120.945 144.807 121.102 144.777C121.259 144.747 121.407 144.678 121.532 144.574C122.119 144.163 122.609 143.617 122.964 142.978C123.319 142.339 123.531 141.624 123.582 140.886C123.598 140.724 123.58 140.561 123.528 140.407C123.476 140.254 123.391 140.115 123.281 140C123.21 139.974 123.133 139.974 123.062 140L123.09 139.943ZM120.959 146.719C120.595 146.715 120.238 146.617 119.92 146.433C119.54 146.171 119.234 145.807 119.032 145.38C118.831 144.953 118.741 144.478 118.773 144.003C118.804 142.971 119.068 141.962 119.543 141.058C120.018 140.154 120.69 139.38 121.505 138.799C121.868 138.508 122.306 138.336 122.763 138.304C123.219 138.272 123.675 138.383 124.072 138.621C124.469 138.859 124.789 139.215 124.994 139.643C125.198 140.072 125.277 140.554 125.221 141.029C125.189 142.06 124.926 143.069 124.451 143.974C123.976 144.878 123.304 145.652 122.489 146.233V146.233C122.015 146.483 121.488 146.601 120.959 146.576V146.719Z" fill="#AD181B"/>
<path fill-rule="evenodd" clip-rule="evenodd" d="M127.213 142.772C127.103 142.776 126.993 142.757 126.891 142.715C126.788 142.674 126.694 142.611 126.615 142.531C126.536 142.451 126.474 142.356 126.431 142.25C126.388 142.144 126.366 142.03 126.366 141.915V134.309C126.366 134.074 126.455 133.849 126.614 133.682C126.773 133.516 126.988 133.423 127.213 133.423C127.437 133.423 127.653 133.516 127.812 133.682C127.97 133.849 128.06 134.074 128.06 134.309V141.915C128.06 142.03 128.038 142.144 127.995 142.25C127.952 142.356 127.889 142.451 127.81 142.531C127.731 142.611 127.637 142.674 127.535 142.715C127.432 142.757 127.323 142.776 127.213 142.772V142.772Z" fill="#AD181B"/>
<path fill-rule="evenodd" clip-rule="evenodd" d="M130.003 141.115C129.779 141.115 129.563 141.021 129.404 140.855C129.245 140.689 129.156 140.463 129.156 140.228V132.623C129.156 132.508 129.178 132.394 129.221 132.288C129.264 132.182 129.327 132.086 129.406 132.006C129.485 131.926 129.579 131.863 129.681 131.822C129.784 131.781 129.893 131.761 130.003 131.765V131.765C130.113 131.761 130.223 131.781 130.325 131.822C130.428 131.863 130.522 131.926 130.601 132.006C130.68 132.086 130.742 132.182 130.785 132.288C130.828 132.394 130.85 132.508 130.85 132.623V140.228C130.85 140.345 130.828 140.46 130.786 140.567C130.743 140.675 130.681 140.773 130.602 140.855C130.523 140.937 130.43 141.003 130.327 141.047C130.225 141.092 130.114 141.115 130.003 141.115V141.115Z" fill="#AD181B"/>
<path fill-rule="evenodd" clip-rule="evenodd" d="M132.895 139.368C132.675 139.36 132.467 139.264 132.314 139.098C132.161 138.933 132.076 138.712 132.076 138.481V130.876C132.076 130.646 132.161 130.425 132.314 130.259C132.467 130.094 132.675 129.997 132.895 129.99V129.99C133.009 129.986 133.122 130.006 133.228 130.049C133.334 130.092 133.43 130.156 133.512 130.239C133.594 130.322 133.658 130.421 133.703 130.53C133.747 130.64 133.77 130.757 133.77 130.876V138.481C133.77 138.6 133.747 138.718 133.703 138.827C133.658 138.937 133.594 139.036 133.512 139.119C133.43 139.201 133.334 139.266 133.228 139.309C133.122 139.352 133.009 139.372 132.895 139.368V139.368Z" fill="#AD181B"/>
<path fill-rule="evenodd" clip-rule="evenodd" d="M135.74 137.624C135.63 137.628 135.521 137.609 135.418 137.567C135.315 137.526 135.222 137.463 135.143 137.383C135.064 137.303 135.001 137.207 134.958 137.101C134.915 136.995 134.893 136.881 134.893 136.766V129.161C134.893 129.046 134.915 128.932 134.958 128.826C135.001 128.72 135.064 128.624 135.143 128.544C135.222 128.464 135.315 128.401 135.418 128.36C135.521 128.319 135.63 128.299 135.74 128.303V128.303C135.85 128.299 135.96 128.319 136.062 128.36C136.165 128.401 136.258 128.464 136.337 128.544C136.416 128.624 136.479 128.72 136.522 128.826C136.565 128.932 136.587 129.046 136.587 129.161V136.909C136.58 137.139 136.488 137.358 136.33 137.518C136.171 137.678 135.96 137.767 135.74 137.767V137.624Z" fill="#AD181B"/>
<path fill-rule="evenodd" clip-rule="evenodd" d="M138.718 135.852C138.608 135.852 138.499 135.829 138.397 135.784C138.296 135.739 138.205 135.673 138.128 135.591C138.052 135.508 137.992 135.41 137.952 135.303C137.913 135.195 137.894 135.081 137.898 134.966V127.36C137.898 127.133 137.984 126.915 138.138 126.754C138.292 126.593 138.5 126.502 138.718 126.502V126.502C138.828 126.499 138.937 126.518 139.04 126.559C139.142 126.601 139.236 126.663 139.315 126.743C139.394 126.823 139.457 126.919 139.5 127.025C139.543 127.131 139.565 127.245 139.565 127.36V134.966C139.568 135.083 139.549 135.2 139.508 135.309C139.467 135.419 139.404 135.518 139.325 135.601C139.246 135.684 139.151 135.749 139.046 135.793C138.942 135.836 138.83 135.856 138.718 135.852V135.852Z" fill="#AD181B"/>
<path fill-rule="evenodd" clip-rule="evenodd" d="M116.914 157.439C116.825 157.515 116.714 157.557 116.599 157.557C116.485 157.557 116.374 157.515 116.285 157.439L112.351 155.066C112.351 154.808 112.351 154.522 112.351 154.265C112.335 152.529 112.039 150.809 111.477 149.176L116.941 152.464L116.914 157.439Z" fill="#D41E21"/>
<path fill-rule="evenodd" clip-rule="evenodd" d="M113.224 154.552L115.956 156.297V152.951L112.787 151.036C112.988 152.1 113.097 153.182 113.115 154.267V154.552H113.224ZM116.639 158.412C116.379 158.403 116.125 158.324 115.902 158.184L111.94 155.782C111.802 155.706 111.687 155.59 111.61 155.448C111.532 155.307 111.495 155.145 111.503 154.981C111.516 154.734 111.516 154.486 111.503 154.238C111.486 152.598 111.199 150.973 110.656 149.435C110.601 149.261 110.598 149.074 110.648 148.899C110.699 148.723 110.8 148.569 110.937 148.456C111.075 148.343 111.243 148.278 111.417 148.269C111.592 148.26 111.765 148.307 111.913 148.405L117.377 151.665C117.507 151.743 117.616 151.856 117.692 151.991C117.769 152.126 117.811 152.28 117.814 152.437V157.412C117.812 157.624 117.734 157.828 117.596 157.983C117.481 158.132 117.335 158.251 117.169 158.33C117.003 158.41 116.822 158.448 116.639 158.441V158.412Z" fill="#AD181B"/>
<path fill-rule="evenodd" clip-rule="evenodd" d="M112.789 134.508V126.103L109.646 127.99V136.396L112.789 134.508Z" fill="white"/>
<path fill-rule="evenodd" clip-rule="evenodd" d="M110.519 128.503V134.879L111.967 133.993V127.617L110.519 128.503V128.503ZM109.644 137.281C109.427 137.267 109.222 137.168 109.07 137.004C108.919 136.84 108.831 136.623 108.825 136.394V127.989C108.825 127.838 108.862 127.69 108.934 127.559C109.006 127.429 109.11 127.32 109.235 127.245L112.349 125.472C112.485 125.402 112.635 125.365 112.786 125.365C112.938 125.365 113.088 125.402 113.224 125.472C113.347 125.556 113.449 125.671 113.52 125.805C113.592 125.94 113.63 126.091 113.633 126.244V134.65C113.634 134.801 113.596 134.949 113.524 135.08C113.452 135.21 113.348 135.318 113.224 135.394L110.082 137.281C109.939 137.325 109.787 137.325 109.644 137.281V137.281Z" fill="#AD181B"/>
<path fill-rule="evenodd" clip-rule="evenodd" d="M112.789 135.365C112.645 135.368 112.502 135.33 112.377 135.254C112.252 135.178 112.149 135.068 112.079 134.936C111.969 134.734 111.939 134.496 111.995 134.271C112.051 134.047 112.189 133.854 112.38 133.735L113.937 132.791C114.131 132.701 114.35 132.689 114.551 132.759C114.752 132.829 114.921 132.976 115.024 133.17C115.127 133.364 115.157 133.591 115.107 133.807C115.058 134.023 114.933 134.211 114.757 134.335L113.227 135.25C113.092 135.325 112.942 135.365 112.789 135.365V135.365Z" fill="#AD181B"/>
<path fill-rule="evenodd" clip-rule="evenodd" d="M150.767 111.436V103.059L147.652 104.946V113.323L150.767 111.436Z" fill="white"/>
<path fill-rule="evenodd" clip-rule="evenodd" d="M148.47 105.46V111.836L149.918 110.95V104.574L148.47 105.432V105.46ZM147.678 114.209C147.535 114.256 147.383 114.256 147.24 114.209C147.112 114.132 147.005 114.019 146.933 113.883C146.861 113.747 146.826 113.593 146.831 113.437V104.946C146.833 104.792 146.872 104.641 146.944 104.506C147.015 104.372 147.117 104.258 147.24 104.174L150.41 102.287C150.536 102.203 150.683 102.158 150.833 102.158C150.983 102.158 151.13 102.203 151.257 102.287C151.382 102.369 151.485 102.482 151.557 102.617C151.628 102.752 151.666 102.904 151.667 103.059V111.436C151.666 111.59 151.628 111.742 151.557 111.877C151.485 112.012 151.382 112.126 151.257 112.208L148.06 114.038C147.95 114.131 147.818 114.19 147.678 114.209V114.209Z" fill="#AD181B"/>
<path fill-rule="evenodd" clip-rule="evenodd" d="M77.4328 87.5334C77.2521 87.5281 77.0779 87.4626 76.9354 87.3463C76.7929 87.2299 76.6897 87.069 76.6409 86.8869C76.5921 86.7049 76.6001 86.5113 76.664 86.3344C76.7278 86.1575 76.844 86.0065 76.9956 85.9037L109.782 66.0896C109.975 65.9744 110.203 65.9428 110.417 66.0016C110.632 66.0604 110.816 66.2049 110.93 66.4042C110.988 66.5029 111.026 66.613 111.043 66.7278C111.059 66.8426 111.053 66.9596 111.025 67.0719C110.997 67.1842 110.947 67.2893 110.879 67.3809C110.811 67.4726 110.726 67.5488 110.629 67.605L77.8426 87.419C77.719 87.4968 77.577 87.5365 77.4328 87.5334V87.5334Z" fill="#AD181B"/>
<path fill-rule="evenodd" clip-rule="evenodd" d="M77.3807 120.297C77.1608 120.289 76.9524 120.193 76.7994 120.027C76.6464 119.862 76.5609 119.641 76.561 119.41V86.6444C76.5646 86.5279 76.59 86.4134 76.6358 86.3073C76.6817 86.2011 76.7471 86.1055 76.8283 86.0259C76.9095 85.9462 77.0049 85.8841 77.1091 85.843C77.2132 85.802 77.3241 85.7828 77.4353 85.7866C77.6527 85.7866 77.8612 85.877 78.0149 86.0378C78.1687 86.1987 78.255 86.4169 78.255 86.6444V119.41C78.2551 119.529 78.2323 119.647 78.188 119.756C78.1438 119.866 78.0789 119.965 77.9974 120.047C77.9158 120.13 77.8192 120.195 77.7132 120.238C77.6073 120.281 77.4942 120.301 77.3807 120.297V120.297Z" fill="#AD181B"/>
<path fill-rule="evenodd" clip-rule="evenodd" d="M69.7837 82.588C69.6386 82.5944 69.4947 82.5575 69.3689 82.4816C69.2431 82.4056 69.1406 82.2938 69.0733 82.1591C69.015 82.0603 68.9766 81.9502 68.9602 81.8355C68.9438 81.7207 68.9498 81.6036 68.9779 81.4914C69.006 81.3791 69.0556 81.274 69.1236 81.1823C69.1917 81.0907 69.2768 81.0145 69.3738 80.9583L102.16 61.1442C102.352 61.0305 102.58 61.0012 102.792 61.0629C103.005 61.1245 103.186 61.2721 103.294 61.473C103.403 61.674 103.431 61.9119 103.372 62.1344C103.313 62.3569 103.172 62.5458 102.98 62.6596L70.2208 82.588C70.0772 82.6244 69.9273 82.6244 69.7837 82.588Z" fill="#AD181B"/>
<path fill-rule="evenodd" clip-rule="evenodd" d="M69.7557 115.38C69.6444 115.38 69.5343 115.357 69.4315 115.312C69.3288 115.268 69.2354 115.202 69.1568 115.12C69.0781 115.038 69.0157 114.94 68.9732 114.833C68.9306 114.725 68.9087 114.61 68.9087 114.493V81.7274C68.9086 81.6123 68.9307 81.4984 68.9736 81.3924C69.0165 81.2864 69.0793 81.1905 69.1583 81.1105C69.2374 81.0305 69.331 80.9679 69.4336 80.9265C69.5362 80.8851 69.6458 80.8658 69.7557 80.8696V80.8696C69.8656 80.8658 69.9751 80.8851 70.0777 80.9265C70.1804 80.9679 70.274 81.0305 70.353 81.1105C70.432 81.1905 70.4949 81.2864 70.5378 81.3924C70.5807 81.4984 70.6027 81.6123 70.6027 81.7274V114.493C70.6065 114.611 70.5872 114.728 70.546 114.837C70.5047 114.947 70.4425 115.046 70.3631 115.129C70.2836 115.212 70.1887 115.277 70.0843 115.32C69.9798 115.364 69.8679 115.384 69.7557 115.38V115.38Z" fill="#AD181B"/>
<path fill-rule="evenodd" clip-rule="evenodd" d="M62.1586 78.0139C62.0085 78.0103 61.8617 77.9664 61.7325 77.8863C61.6033 77.8061 61.496 77.6925 61.4209 77.5564C61.3627 77.4576 61.3242 77.3475 61.3078 77.2327C61.2914 77.118 61.2975 77.0009 61.3256 76.8886C61.3537 76.7764 61.4032 76.6712 61.4713 76.5796C61.5393 76.488 61.6245 76.4117 61.7215 76.3555L94.5081 56.5701C94.6037 56.4879 94.7158 56.4294 94.8361 56.399C94.9564 56.3686 95.0817 56.3671 95.2027 56.3946C95.3236 56.4221 95.437 56.4779 95.5344 56.5578C95.6317 56.6377 95.7106 56.7397 95.7649 56.856C95.875 57.0575 95.9053 57.2961 95.8491 57.5207C95.7929 57.7452 95.6547 57.9377 95.4644 58.0569L62.6778 77.8709C62.518 77.9608 62.34 78.0098 62.1586 78.0139V78.0139Z" fill="#AD181B"/>
<path fill-rule="evenodd" clip-rule="evenodd" d="M62.1033 110.747C61.9933 110.748 61.8845 110.724 61.7832 110.68C61.6819 110.635 61.5903 110.569 61.5139 110.486C61.4374 110.404 61.3776 110.306 61.338 110.198C61.2985 110.091 61.28 109.976 61.2837 109.861V77.1236C61.2837 76.8886 61.3729 76.6631 61.5317 76.4969C61.6906 76.3307 61.906 76.2373 62.1306 76.2373V76.2373C62.3505 76.2447 62.559 76.3414 62.712 76.5068C62.8649 76.6722 62.9504 76.8934 62.9503 77.1236V109.861C62.9541 109.979 62.9348 110.096 62.8936 110.205C62.8524 110.314 62.7901 110.414 62.7107 110.497C62.6313 110.58 62.5364 110.645 62.4319 110.688C62.3274 110.731 62.2156 110.751 62.1033 110.747V110.747Z" fill="#AD181B"/>
<path fill-rule="evenodd" clip-rule="evenodd" d="M54.5083 73.3819C54.3602 73.3841 54.2142 73.3457 54.0848 73.2705C53.9553 73.1952 53.847 73.0858 53.7706 72.953C53.6673 72.75 53.6408 72.5137 53.6965 72.2911C53.7522 72.0686 53.886 71.8762 54.0711 71.7522L86.8577 51.9382C87.0477 51.8316 87.2692 51.8049 87.4774 51.8633C87.6855 51.9217 87.8645 52.061 87.978 52.2527C88.0362 52.3514 88.0747 52.4615 88.0911 52.5763C88.1075 52.6911 88.1014 52.8081 88.0733 52.9204C88.0452 53.0327 87.9956 53.1378 87.9276 53.2294C87.8595 53.3211 87.7744 53.3973 87.6774 53.4535L54.8908 73.2675C54.7727 73.3341 54.6422 73.3731 54.5083 73.3819V73.3819Z" fill="#AD181B"/>
<path fill-rule="evenodd" clip-rule="evenodd" d="M54.4827 106.145C54.2581 106.145 54.0427 106.052 53.8838 105.885C53.725 105.719 53.6357 105.494 53.6357 105.259V72.4925C53.6357 72.265 53.7221 72.0469 53.8758 71.886C54.0295 71.7251 54.238 71.6348 54.4554 71.6348V71.6348C54.6754 71.6346 54.8868 71.7241 55.0449 71.8842C55.2029 72.0443 55.2953 72.2624 55.3024 72.4925V105.259C55.3025 105.489 55.217 105.71 55.0641 105.875C54.9111 106.041 54.7026 106.138 54.4827 106.145V106.145Z" fill="#AD181B"/>
<path fill-rule="evenodd" clip-rule="evenodd" d="M46.8851 68.7473C46.7349 68.7437 46.5882 68.6998 46.4589 68.6197C46.3297 68.5395 46.2224 68.4259 46.1474 68.2898C46.1021 68.1828 46.0774 68.0676 46.0749 67.9506C46.0724 67.8337 46.092 67.7174 46.1327 67.6084C46.1733 67.4994 46.2341 67.3999 46.3117 67.3157C46.3893 67.2314 46.482 67.1641 46.5845 67.1175L79.3711 47.3035C79.4644 47.2471 79.5674 47.2105 79.6742 47.1958C79.781 47.1811 79.8895 47.1886 79.9935 47.2178C80.0976 47.247 80.1951 47.2974 80.2805 47.366C80.3659 47.4347 80.4376 47.5203 80.4913 47.618C80.5502 47.719 80.5891 47.8313 80.6058 47.9482C80.6225 48.0652 80.6167 48.1844 80.5887 48.299C80.5607 48.4136 80.511 48.5211 80.4427 48.6153C80.3744 48.7095 80.2887 48.7884 80.1908 48.8474L47.4042 68.6329C47.2454 68.723 47.065 68.7628 46.8851 68.7473V68.7473Z" fill="#AD181B"/>
<path fill-rule="evenodd" clip-rule="evenodd" d="M46.8572 101.513C46.746 101.513 46.6359 101.49 46.5331 101.446C46.4304 101.401 46.337 101.336 46.2583 101.253C46.1797 101.171 46.1173 101.073 46.0747 100.966C46.0322 100.858 46.0103 100.743 46.0103 100.627V67.8893C46.0103 67.7729 46.0322 67.6576 46.0747 67.5501C46.1173 67.4425 46.1797 67.3448 46.2583 67.2625C46.337 67.1802 46.4304 67.1149 46.5331 67.0704C46.6359 67.0259 46.746 67.0029 46.8572 67.0029V67.0029C46.9672 67.0029 47.0761 67.026 47.1774 67.0708C47.2786 67.1157 47.3702 67.1815 47.4467 67.2642C47.5232 67.3469 47.583 67.4448 47.6225 67.5522C47.6621 67.6596 47.6806 67.7742 47.6769 67.8893V100.627C47.677 100.857 47.5915 101.078 47.4386 101.244C47.2856 101.409 47.0771 101.506 46.8572 101.513V101.513Z" fill="#AD181B"/>
<path fill-rule="evenodd" clip-rule="evenodd" d="M86.8857 92.9662C86.7208 92.9669 86.5594 92.9172 86.4212 92.8233L85.0824 91.9941L84.4813 92.3372C84.3551 92.4073 84.2144 92.4439 84.0715 92.4439C83.9286 92.4439 83.7879 92.4073 83.6616 92.3372L78.7983 89.478C78.6666 89.4089 78.5559 89.3027 78.4787 89.1714C78.4015 89.0401 78.3608 88.8888 78.3611 88.7347V88.077L77.4322 87.4766L76.8311 87.8197C76.7044 87.9036 76.5575 87.9481 76.4076 87.9481C76.2577 87.9481 76.1108 87.9036 75.9841 87.8197L71.1481 84.9605C71.0231 84.8785 70.9199 84.7647 70.8483 84.6297C70.7766 84.4947 70.7388 84.343 70.7383 84.1886V83.5596L69.782 82.9591L69.2082 83.3022C69.0815 83.3861 68.9347 83.4306 68.7847 83.4306C68.6348 83.4306 68.4879 83.3861 68.3612 83.3022L63.4979 80.4431C63.3827 80.3528 63.2885 80.2365 63.2223 80.1028C63.1561 79.9692 63.1195 79.8216 63.1154 79.6711V79.0135L62.1591 78.4131L61.558 78.7562C61.4367 78.841 61.2941 78.8862 61.1482 78.8862C61.0023 78.8862 60.8597 78.841 60.7383 78.7562L55.9023 75.897C55.7706 75.8279 55.6599 75.7217 55.5827 75.5904C55.5055 75.459 55.4648 75.3078 55.4652 75.1536V74.0099L54.5089 73.4095L53.9624 74.0099C53.8314 74.0802 53.6862 74.1168 53.539 74.1168C53.3917 74.1168 53.2465 74.0802 53.1155 74.0099L48.2794 71.1508C48.1477 71.0816 48.037 70.9755 47.9598 70.8441C47.8826 70.7128 47.8419 70.5616 47.8423 70.4074V69.4925L46.886 68.892L46.3122 69.2351C46.186 69.3052 46.0453 69.3419 45.9024 69.3419C45.7595 69.3419 45.6188 69.3052 45.4926 69.2351L40.6292 66.376C40.4778 66.2805 40.3575 66.1392 40.2843 65.9708C40.2112 65.8023 40.1885 65.6146 40.2194 65.4324V64.8606L38.826 64.0028C38.6337 63.8784 38.4949 63.6808 38.4389 63.4515C38.3829 63.2223 38.4139 62.9792 38.5254 62.7734C38.6609 62.591 38.8573 62.4689 39.0753 62.4318C39.2932 62.3947 39.5165 62.4452 39.7003 62.5733L41.5035 63.6598C41.6223 63.7485 41.7207 63.8639 41.7916 63.9974C41.8625 64.1309 41.9041 64.2793 41.9134 64.4317V65.0893L45.9024 67.5196L46.5855 67.1193C46.7174 67.0361 46.8686 66.9922 47.0226 66.9922C47.1767 66.9922 47.3278 67.0361 47.4598 67.1193L49.1264 68.2916C49.2476 68.371 49.3483 68.4803 49.4198 68.6099C49.4912 68.7395 49.5312 68.8855 49.5363 69.035V69.6926L53.5253 72.1229L54.0717 71.7798C54.2055 71.7022 54.3559 71.6615 54.5089 71.6615C54.6618 71.6615 54.8123 71.7022 54.946 71.7798L56.7493 72.8949C56.8708 72.9716 56.9705 73.081 57.0378 73.2118C57.105 73.3426 57.1375 73.4898 57.1318 73.6382V74.2959L61.1482 76.7261L61.7219 76.383C61.8578 76.3125 62.0074 76.2758 62.1591 76.2758C62.3108 76.2758 62.4604 76.3125 62.5963 76.383L64.3722 77.4981C64.4955 77.5821 64.5973 77.6963 64.6687 77.8308C64.7402 77.9654 64.7791 78.1162 64.782 78.2701V78.8991L68.7711 81.358L69.3722 80.9863C69.5032 80.916 69.6484 80.8794 69.7956 80.8794C69.9429 80.8794 70.0881 80.916 70.2191 80.9863L72.0224 82.1014C72.1424 82.1867 72.2401 82.302 72.3069 82.4368C72.3737 82.5715 72.4074 82.7216 72.4049 82.8734V83.531L76.4213 85.9613L76.995 85.6182C77.1218 85.5343 77.2686 85.4898 77.4185 85.4898C77.5685 85.4898 77.7153 85.5343 77.842 85.6182L79.6453 86.7332C79.77 86.8086 79.8735 86.9169 79.9454 87.0474C80.0174 87.1779 80.0552 87.326 80.0551 87.4766V88.1342L84.0715 90.5931L84.6452 90.2214C84.7763 90.1512 84.9215 90.1145 85.0687 90.1145C85.216 90.1145 85.3612 90.1512 85.4922 90.2214L87.2955 91.3365C87.4581 91.4324 87.5858 91.5819 87.6588 91.7616C87.7319 91.9414 87.7461 92.1413 87.6994 92.3304C87.6526 92.5195 87.5475 92.6872 87.4004 92.8073C87.2532 92.9274 87.0723 92.9934 86.8857 92.9948V92.9662Z" fill="#AD181B"/>
<rect x="73" y="180" width="40" height="19" rx="4" fill="#222428"/>
<path d="M80.8633 184.25H82.6914V192.426L82.5073 194H80.8633V184.25ZM87.0396 190.496V190.629C87.0396 191.141 86.9845 191.611 86.8745 192.039C86.7687 192.466 86.6037 192.836 86.3794 193.149C86.1551 193.458 85.8758 193.7 85.5415 193.873C85.2114 194.042 84.8221 194.127 84.3735 194.127C83.9546 194.127 83.5907 194.042 83.2817 193.873C82.9771 193.704 82.721 193.465 82.5137 193.156C82.3063 192.847 82.1392 192.485 82.0122 192.07C81.8853 191.656 81.79 191.203 81.7266 190.712V190.42C81.79 189.929 81.8853 189.476 82.0122 189.062C82.1392 188.647 82.3063 188.285 82.5137 187.976C82.721 187.667 82.9771 187.428 83.2817 187.259C83.5864 187.09 83.9461 187.005 84.3608 187.005C84.8136 187.005 85.2072 187.092 85.5415 187.265C85.88 187.434 86.1593 187.676 86.3794 187.989C86.6037 188.298 86.7687 188.666 86.8745 189.093C86.9845 189.516 87.0396 189.984 87.0396 190.496ZM85.2114 190.629V190.496C85.2114 190.217 85.1903 189.954 85.1479 189.709C85.1099 189.459 85.0422 189.241 84.9448 189.055C84.8475 188.865 84.7142 188.715 84.5449 188.604C84.3799 188.494 84.1662 188.439 83.9038 188.439C83.6541 188.439 83.4425 188.482 83.269 188.566C83.0955 188.651 82.9517 188.77 82.8374 188.922C82.7274 189.074 82.6449 189.256 82.5898 189.468C82.5348 189.675 82.501 189.904 82.4883 190.153V190.985C82.501 191.319 82.556 191.615 82.6533 191.874C82.7549 192.127 82.9072 192.328 83.1104 192.477C83.3177 192.62 83.5864 192.692 83.9165 192.692C84.1746 192.692 84.3883 192.642 84.5576 192.54C84.7269 192.438 84.8581 192.295 84.9512 192.108C85.0485 191.922 85.1162 191.704 85.1543 191.455C85.1924 191.201 85.2114 190.926 85.2114 190.629ZM91.3369 194.127C90.8037 194.127 90.3255 194.042 89.9023 193.873C89.4792 193.7 89.1195 193.46 88.8232 193.156C88.5312 192.851 88.307 192.498 88.1504 192.096C87.9938 191.689 87.9155 191.258 87.9155 190.801V190.547C87.9155 190.026 87.9896 189.55 88.1377 189.119C88.2858 188.687 88.4974 188.312 88.7725 187.995C89.0518 187.678 89.3903 187.434 89.7881 187.265C90.1859 187.092 90.6344 187.005 91.1338 187.005C91.6204 187.005 92.0521 187.085 92.4287 187.246C92.8053 187.407 93.1206 187.635 93.3745 187.932C93.6326 188.228 93.8273 188.583 93.9585 188.998C94.0897 189.409 94.1553 189.866 94.1553 190.369V191.131H88.6963V189.912H92.3589V189.772C92.3589 189.519 92.3123 189.292 92.2192 189.093C92.1304 188.89 91.995 188.729 91.813 188.611C91.631 188.492 91.3983 188.433 91.1147 188.433C90.8735 188.433 90.6662 188.486 90.4927 188.592C90.3192 188.698 90.1774 188.846 90.0674 189.036C89.9616 189.227 89.8812 189.451 89.8262 189.709C89.7754 189.963 89.75 190.242 89.75 190.547V190.801C89.75 191.076 89.7881 191.33 89.8643 191.562C89.9447 191.795 90.0568 191.996 90.2007 192.166C90.3488 192.335 90.5265 192.466 90.7339 192.559C90.9455 192.652 91.1846 192.699 91.4512 192.699C91.7812 192.699 92.0881 192.635 92.3716 192.508C92.6593 192.377 92.9069 192.18 93.1143 191.918L94.0029 192.883C93.859 193.09 93.6623 193.289 93.4126 193.479C93.1672 193.67 92.8709 193.826 92.5239 193.949C92.1769 194.068 91.7812 194.127 91.3369 194.127ZM98.5605 187.132V188.427H94.5615V187.132H98.5605ZM95.5518 185.437H97.3799V191.931C97.3799 192.13 97.4053 192.282 97.4561 192.388C97.5111 192.493 97.5915 192.568 97.6973 192.61C97.8031 192.648 97.9364 192.667 98.0972 192.667C98.2114 192.667 98.313 192.663 98.4019 192.654C98.495 192.642 98.5732 192.629 98.6367 192.616L98.6431 193.962C98.4865 194.013 98.3172 194.053 98.1353 194.083C97.9533 194.112 97.7523 194.127 97.5322 194.127C97.1302 194.127 96.779 194.061 96.4785 193.93C96.1823 193.795 95.9538 193.579 95.793 193.283C95.6322 192.986 95.5518 192.597 95.5518 192.115V185.437ZM103.309 192.451V189.392C103.309 189.172 103.273 188.983 103.201 188.827C103.129 188.666 103.017 188.541 102.864 188.452C102.716 188.363 102.524 188.319 102.287 188.319C102.083 188.319 101.908 188.355 101.76 188.427C101.612 188.494 101.497 188.594 101.417 188.725C101.337 188.852 101.296 189.002 101.296 189.176H99.4683C99.4683 188.884 99.536 188.607 99.6714 188.344C99.8068 188.082 100.004 187.851 100.262 187.652C100.52 187.449 100.827 187.291 101.182 187.176C101.542 187.062 101.944 187.005 102.388 187.005C102.921 187.005 103.395 187.094 103.81 187.271C104.225 187.449 104.551 187.716 104.788 188.071C105.029 188.427 105.149 188.871 105.149 189.404V192.343C105.149 192.72 105.173 193.029 105.219 193.27C105.266 193.507 105.333 193.714 105.422 193.892V194H103.575C103.486 193.814 103.419 193.581 103.372 193.302C103.33 193.018 103.309 192.735 103.309 192.451ZM103.55 189.817L103.562 190.852H102.541C102.299 190.852 102.09 190.879 101.912 190.934C101.734 190.989 101.588 191.067 101.474 191.169C101.36 191.266 101.275 191.381 101.22 191.512C101.169 191.643 101.144 191.787 101.144 191.943C101.144 192.1 101.18 192.242 101.252 192.369C101.324 192.491 101.428 192.589 101.563 192.661C101.698 192.728 101.857 192.762 102.039 192.762C102.314 192.762 102.553 192.707 102.756 192.597C102.959 192.487 103.116 192.352 103.226 192.191C103.34 192.03 103.4 191.878 103.404 191.734L103.886 192.508C103.819 192.682 103.725 192.862 103.607 193.048C103.493 193.234 103.347 193.41 103.169 193.575C102.991 193.736 102.778 193.869 102.528 193.975C102.278 194.076 101.982 194.127 101.639 194.127C101.203 194.127 100.808 194.04 100.452 193.867C100.101 193.689 99.8216 193.446 99.6143 193.137C99.4111 192.824 99.3096 192.468 99.3096 192.07C99.3096 191.711 99.3773 191.391 99.5127 191.112C99.6481 190.833 99.847 190.598 100.109 190.407C100.376 190.213 100.708 190.067 101.106 189.969C101.504 189.868 101.965 189.817 102.49 189.817H103.55Z" fill="white"/>
<defs>
<filter id="filter0_dd_45675_143028" x="3.41358" y="0.0156302" width="178.251" height="203.047" filterUnits="userSpaceOnUse" color-interpolation-filters="sRGB">
<feFlood flood-opacity="0" result="BackgroundImageFix"/>
<feColorMatrix in="SourceAlpha" type="matrix" values="0 0 0 0 0 0 0 0 0 0 0 0 0 0 0 0 0 0 127 0" result="hardAlpha"/>
<feOffset dx="-2.24609" dy="-2.24609"/>
<feGaussianBlur stdDeviation="3.36914"/>
<feColorMatrix type="matrix" values="0 0 0 0 1 0 0 0 0 1 0 0 0 0 1 0 0 0 1 0"/>
<feBlend mode="normal" in2="BackgroundImageFix" result="effect1_dropShadow_45675_143028"/>
<feColorMatrix in="SourceAlpha" type="matrix" values="0 0 0 0 0 0 0 0 0 0 0 0 0 0 0 0 0 0 127 0" result="hardAlpha"/>
<feOffset dx="2.24609" dy="2.24609"/>
<feGaussianBlur stdDeviation="3.36914"/>
<feColorMatrix type="matrix" values="0 0 0 0 0.682353 0 0 0 0 0.682353 0 0 0 0 0.752941 0 0 0 0.4 0"/>
<feBlend mode="normal" in2="effect1_dropShadow_45675_143028" result="effect2_dropShadow_45675_143028"/>
<feBlend mode="normal" in="SourceGraphic" in2="effect2_dropShadow_45675_143028" result="shape"/>
</filter>
</defs>
</svg>
