<svg width="186" height="206" viewBox="0 0 186 206" fill="none" xmlns="http://www.w3.org/2000/svg">
<g filter="url(#filter0_dd_4111_85)">
<path d="M13.5883 57.1516L93 11.3032L172.412 57.1516V148.848L93 194.697L13.5883 148.848V57.1516Z" stroke="#EC2227" stroke-width="2.25728"/>
</g>
<path fill-rule="evenodd" clip-rule="evenodd" d="M54.65 151.326L69.6633 159.988C71.3956 137.179 85.5428 113.216 104.887 101.378C112.971 97.0474 121.344 94.4489 130.005 98.7797C123.653 95.0263 114.703 88.6746 108.063 87.8084C101.422 86.9423 95.3591 89.5407 89.5848 92.4279C70.5295 104.554 56.3823 128.518 54.65 151.326Z" fill="#D41E21"/>
<path fill-rule="evenodd" clip-rule="evenodd" d="M56.3823 150.461L68.5084 157.391C71.1069 134.582 85.254 111.773 104.309 99.9359C108.929 97.3374 114.703 94.7389 120.766 94.7389C116.435 92.1405 111.527 89.542 108.063 89.2533C101.422 88.3872 95.3591 91.2743 90.7397 93.8728C72.2618 105.421 58.4033 127.941 56.3823 150.461ZM69.952 161.433C69.6633 161.433 69.3746 161.433 69.0859 161.144L54.0726 152.482C53.4951 152.194 53.2064 151.616 53.2064 151.039C54.9387 127.364 69.3746 103.4 89.2961 91.2743C94.493 88.3872 101.133 85.5 108.64 86.3661C113.837 86.9436 120.766 91.2743 126.541 94.7389C127.984 95.6051 129.716 96.76 130.871 97.3374C131.449 97.6261 131.737 98.781 131.449 99.3584C131.16 100.225 130.005 100.225 129.428 99.9359C120.766 95.3164 112.105 98.781 105.753 102.534C86.6976 114.083 72.8392 137.18 71.1069 159.7C71.1069 160.278 70.8182 160.566 70.2407 160.855C70.5295 161.433 70.2407 161.433 69.952 161.433Z" fill="#AD181B"/>
<path fill-rule="evenodd" clip-rule="evenodd" d="M119.9 48.8311C115.28 46.2327 104.887 39.3035 100.845 38.726C80.3457 36.1276 57.8258 80.59 75.1488 90.9839L90.1621 99.6454C71.3955 87.808 99.9785 38.4373 119.9 48.8311Z" fill="#FA2327"/>
<path fill-rule="evenodd" clip-rule="evenodd" d="M99.113 40.4587C88.4305 40.4587 77.1705 53.7397 72.8397 67.0207C69.0864 77.992 70.2413 86.6535 76.0156 90.1181L84.0997 94.7376C80.9238 86.6535 83.811 74.8161 89.2966 65.5771C94.7823 56.0495 103.444 47.388 112.394 46.5218C108.063 43.9233 103.155 41.0362 100.845 40.7475C100.268 40.4587 99.6905 40.4587 99.113 40.4587ZM90.4515 101.667C90.1628 101.667 89.8741 101.667 89.5853 101.378L74.5721 92.7165C67.3541 88.3858 65.6218 78.2807 69.9526 65.8659C75.1495 50.5638 88.4305 35.8393 101.134 37.5716C104.599 37.8603 110.373 41.3249 117.013 45.6557C118.457 46.5218 119.612 47.388 120.767 47.9654C121.633 48.2541 121.633 49.409 121.344 49.9864C121.056 50.8526 119.901 50.8526 119.323 50.5638C110.084 45.6557 98.5356 55.7608 92.1838 67.0207C85.5433 78.2807 82.6561 93.294 91.6064 99.0683C92.1838 99.6458 92.4725 100.512 92.1838 101.089C91.6064 101.378 91.0289 101.667 90.4515 101.667Z" fill="#AD181B"/>
<path fill-rule="evenodd" clip-rule="evenodd" d="M130.294 99.0695C116.436 90.9855 93.9161 103.978 80.0576 127.941C74.2833 138.046 70.2413 149.595 69.6638 159.989L140.4 119.28C140.111 109.175 136.357 102.245 130.294 99.0695Z" fill="#FA2327"/>
<path fill-rule="evenodd" clip-rule="evenodd" d="M121.055 98.2031C108.352 98.2031 92.1837 110.04 81.5012 128.807C76.0156 138.046 72.551 148.151 71.6848 157.39L138.956 118.413C138.378 109.752 134.914 103.4 129.428 100.513C127.119 98.7805 124.231 98.2031 121.055 98.2031ZM69.9525 161.432C69.6638 161.432 69.3751 161.432 69.0864 161.143C68.5089 160.855 68.2202 160.277 68.2202 159.7C68.7976 149.306 72.551 137.757 78.614 127.075C92.7612 102.534 116.436 89.2528 130.872 97.6256C137.224 101.379 141.266 108.886 141.843 118.991C141.843 119.568 141.554 120.146 140.977 120.434L69.9525 161.432C70.2412 161.432 70.5299 161.432 69.9525 161.432Z" fill="#AD181B"/>
<path fill-rule="evenodd" clip-rule="evenodd" d="M126.251 62.4021C126.251 55.7616 123.942 51.1421 120.188 48.8324C116.435 46.5226 111.238 47.1 105.464 50.2759C99.6895 53.7405 94.4926 59.2262 90.7393 65.8667C86.9859 72.5072 84.6762 79.7251 84.6762 86.3656C84.6762 93.0061 86.9859 97.6256 90.7393 99.9353C103.732 107.442 126.251 83.7671 126.251 62.4021Z" fill="white"/>
<path fill-rule="evenodd" clip-rule="evenodd" d="M114.415 49.1225C111.817 49.1225 108.929 49.9886 106.042 51.7209C100.557 54.8968 95.6484 60.0937 91.8951 66.7342C88.1418 73.3747 86.1207 80.3039 86.1207 86.6557C86.1207 92.43 88.1417 96.7608 91.6064 98.7818C95.9371 101.38 101.134 99.3592 104.599 97.3382C114.415 91.8526 124.809 76.8393 124.809 62.4034C124.809 56.6291 122.788 52.2984 119.612 50.2773C117.88 49.4112 116.147 49.1225 114.415 49.1225ZM95.9371 102.824C93.6274 102.824 91.6064 102.246 89.5853 101.092C85.2546 98.4931 82.6561 93.2962 82.6561 86.367C82.6561 79.7265 84.9659 72.2198 89.0079 65.0019C93.0499 58.0727 98.5356 52.2984 104.31 48.8337C110.373 45.3691 116.147 44.7917 120.478 47.3902C124.809 49.9886 127.407 55.1855 127.407 62.1147C127.407 77.7055 116.436 93.5849 105.465 99.648C102.289 101.958 99.113 102.824 95.9371 102.824Z" fill="#AD181B"/>
<defs>
<filter id="filter0_dd_4111_85" x="3.43053" y="0.970874" width="179.139" height="204.058" filterUnits="userSpaceOnUse" color-interpolation-filters="sRGB">
<feFlood flood-opacity="0" result="BackgroundImageFix"/>
<feColorMatrix in="SourceAlpha" type="matrix" values="0 0 0 0 0 0 0 0 0 0 0 0 0 0 0 0 0 0 127 0" result="hardAlpha"/>
<feOffset dx="-2.25728" dy="-2.25728"/>
<feGaussianBlur stdDeviation="3.38592"/>
<feColorMatrix type="matrix" values="0 0 0 0 1 0 0 0 0 1 0 0 0 0 1 0 0 0 1 0"/>
<feBlend mode="normal" in2="BackgroundImageFix" result="effect1_dropShadow_4111_85"/>
<feColorMatrix in="SourceAlpha" type="matrix" values="0 0 0 0 0 0 0 0 0 0 0 0 0 0 0 0 0 0 127 0" result="hardAlpha"/>
<feOffset dx="2.25728" dy="2.25728"/>
<feGaussianBlur stdDeviation="3.38592"/>
<feColorMatrix type="matrix" values="0 0 0 0 0.682353 0 0 0 0 0.682353 0 0 0 0 0.752941 0 0 0 0.4 0"/>
<feBlend mode="normal" in2="effect1_dropShadow_4111_85" result="effect2_dropShadow_4111_85"/>
<feBlend mode="normal" in="SourceGraphic" in2="effect2_dropShadow_4111_85" result="shape"/>
</filter>
</defs>
</svg>
